<?xml version="1.0" encoding="utf-8"?>
<!-- Generator: Adobe Illustrator 27.6.1, SVG Export Plug-In . SVG Version: 6.00 Build 0)  -->
<svg version="1.1" id="Layer_1" xmlns="http://www.w3.org/2000/svg" xmlns:xlink="http://www.w3.org/1999/xlink" x="0px" y="0px"
	 viewBox="0 0 301 319" style="enable-background:new 0 0 301 319;" xml:space="preserve">
<style type="text/css">
	.st0{fill-rule:evenodd;clip-rule:evenodd;fill:#945715;}
	.st1{fill-rule:evenodd;clip-rule:evenodd;fill:#BF793B;}
	.st2{fill:#BF793B;}
	.st3{fill-rule:evenodd;clip-rule:evenodd;fill:url(#SVGID_1_);}
	.st4{fill-rule:evenodd;clip-rule:evenodd;fill:url(#SVGID_00000128450101940982059040000002968010360595260812_);}
	.st5{fill-rule:evenodd;clip-rule:evenodd;fill:url(#SVGID_00000018945390996272641720000011135179282775185792_);}
	.st6{fill-rule:evenodd;clip-rule:evenodd;fill:url(#SVGID_00000114047399696906845070000014558736509017763470_);}
	.st7{fill-rule:evenodd;clip-rule:evenodd;fill:url(#SVGID_00000016049380472297199700000009978085724952962986_);}
	.st8{fill-rule:evenodd;clip-rule:evenodd;fill:url(#SVGID_00000097460671303529111840000007706755884291597441_);}
	.st9{fill-rule:evenodd;clip-rule:evenodd;fill:url(#SVGID_00000072962820695555299080000010213141802492228021_);}
	.st10{fill-rule:evenodd;clip-rule:evenodd;fill:url(#SVGID_00000038413719669577624130000004169054148789316764_);}
	.st11{fill-rule:evenodd;clip-rule:evenodd;fill:url(#SVGID_00000163065948485029464870000000758404159501043340_);}
	.st12{fill-rule:evenodd;clip-rule:evenodd;fill:url(#SVGID_00000054239371186865247840000015185423920775165836_);}
	.st13{fill-rule:evenodd;clip-rule:evenodd;fill:url(#SVGID_00000090285045184170602270000010875495095580563852_);}
	.st14{fill-rule:evenodd;clip-rule:evenodd;fill:url(#SVGID_00000076565331523432048430000011628542896337281951_);}
	.st15{fill-rule:evenodd;clip-rule:evenodd;fill:url(#SVGID_00000092456461195620266020000003469588722297503649_);}
	.st16{fill-rule:evenodd;clip-rule:evenodd;fill:url(#SVGID_00000010298257702387073330000004043056384037898412_);}
	.st17{fill-rule:evenodd;clip-rule:evenodd;fill:url(#SVGID_00000026134833313831784240000011620989169013604767_);}
	.st18{fill-rule:evenodd;clip-rule:evenodd;fill:url(#SVGID_00000108987129016164097640000000170055568496178060_);}
	.st19{fill-rule:evenodd;clip-rule:evenodd;fill:url(#SVGID_00000177445194012413775800000013149461965037245825_);}
	.st20{fill-rule:evenodd;clip-rule:evenodd;fill:url(#SVGID_00000008130727887529122130000016482321042922204575_);}
	.st21{fill-rule:evenodd;clip-rule:evenodd;fill:url(#SVGID_00000007420879847737097080000015256693372413217154_);}
	.st22{fill-rule:evenodd;clip-rule:evenodd;fill:url(#SVGID_00000175284083914504305440000008250894230611468461_);}
	.st23{fill-rule:evenodd;clip-rule:evenodd;fill:url(#SVGID_00000150069858891447682660000006286296813225916584_);}
	.st24{fill-rule:evenodd;clip-rule:evenodd;fill:url(#SVGID_00000144336737826320052280000006062971469928115118_);}
	.st25{fill-rule:evenodd;clip-rule:evenodd;fill:url(#SVGID_00000157296682532656046600000002574757063935874238_);}
	.st26{fill-rule:evenodd;clip-rule:evenodd;fill:url(#SVGID_00000109016918109862100310000014121223932520634496_);}
	.st27{fill-rule:evenodd;clip-rule:evenodd;fill:url(#SVGID_00000049941603931920264210000007394233609353556654_);}
	.st28{fill-rule:evenodd;clip-rule:evenodd;fill:url(#SVGID_00000106137417469504889470000002277417016729789872_);}
	.st29{fill-rule:evenodd;clip-rule:evenodd;fill:url(#SVGID_00000169525365207807877270000012293749388883169972_);}
	.st30{fill-rule:evenodd;clip-rule:evenodd;fill:url(#SVGID_00000063632906243887630100000014436558834540187299_);}
	.st31{fill-rule:evenodd;clip-rule:evenodd;fill:url(#SVGID_00000070810072462552053640000014266987924720045953_);}
	.st32{fill-rule:evenodd;clip-rule:evenodd;fill:url(#SVGID_00000129927564430901779200000001165841185729034928_);}
	.st33{fill-rule:evenodd;clip-rule:evenodd;fill:url(#SVGID_00000123416469434174882760000000780313596735003546_);}
	.st34{fill-rule:evenodd;clip-rule:evenodd;fill:url(#SVGID_00000124137925487617398880000004569440244550487713_);}
	.st35{fill-rule:evenodd;clip-rule:evenodd;fill:url(#SVGID_00000001622653349849090250000011274406921755518640_);}
	.st36{fill-rule:evenodd;clip-rule:evenodd;fill:url(#SVGID_00000093864738279562829020000014389175311196183699_);}
	.st37{fill-rule:evenodd;clip-rule:evenodd;fill:url(#SVGID_00000050636892912768747360000011956411614446008495_);}
	.st38{fill-rule:evenodd;clip-rule:evenodd;fill:url(#SVGID_00000034781072624308318920000017794492589229495937_);}
	.st39{fill-rule:evenodd;clip-rule:evenodd;fill:url(#SVGID_00000134952628006673876870000017486926848663211689_);}
	.st40{fill-rule:evenodd;clip-rule:evenodd;fill:#A30000;}
</style>
<g>
	<polygon class="st0" points="143.9,185.5 143.9,203.4 210.7,164.8 195.2,155.8 143.9,126.2 	"/>
	<polygon class="st1" points="144,126.2 77.1,164.8 144,203.4 144,185.5 	"/>
	<path class="st2" d="M241.6,141.2l-61.9-35.7c-1-0.6-2.3-0.6-3.3,0l-26,15c-2.2,1.3-2.2,4.4,0,5.7l61.9,35.7c1,0.6,2.3,0.6,3.3,0
		l26-15C243.8,145.6,243.8,142.5,241.6,141.2z"/>
	<path class="st2" d="M241.6,182.6l-26-15c-1-0.6-2.3-0.6-3.3,0l-61.9,35.7c-2.2,1.3-2.2,4.4,0,5.7l26,15c1,0.6,2.3,0.6,3.3,0
		l61.9-35.7C243.8,187.1,243.8,183.9,241.6,182.6z"/>
	<path class="st2" d="M46.2,188.3l61.9,35.7c1,0.6,2.3,0.6,3.3,0l26-15c2.2-1.3,2.2-4.4,0-5.7l-61.9-35.7c-1-0.6-2.3-0.6-3.3,0
		l-26,15C44,183.9,44,187.1,46.2,188.3z"/>
	<path class="st2" d="M75.5,161.9l61.9-35.7c2.2-1.3,2.2-4.4,0-5.7l-26-15c-1-0.6-2.3-0.6-3.3,0l-61.9,35.7c-2.2,1.3-2.2,4.4,0,5.7
		l26,15C73.2,162.5,74.5,162.5,75.5,161.9z"/>
	<g>
		
			<linearGradient id="SVGID_1_" gradientUnits="userSpaceOnUse" x1="30743.2949" y1="-16364.4775" x2="33964.8672" y2="-16748.4629" gradientTransform="matrix(2.834645e-02 0 0 -2.834645e-02 -786.0677 -360.1575)">
			<stop  offset="0" style="stop-color:#00376B"/>
			<stop  offset="1" style="stop-color:#00AFEF"/>
		</linearGradient>
		<path class="st3" d="M222.7,123.6l-8.1-4.7c1.3-0.7,2.7-1.5,5-2.7l0,0C220.9,119.3,221.9,121.7,222.7,123.6z"/>
		
			<linearGradient id="SVGID_00000073692484011318602100000015339313575314698921_" gradientUnits="userSpaceOnUse" x1="30650.8594" y1="-17144.4453" x2="33872.082" y2="-17528.3418" gradientTransform="matrix(2.834645e-02 0 0 -2.834645e-02 -786.0677 -360.1575)">
			<stop  offset="0" style="stop-color:#00376B"/>
			<stop  offset="1" style="stop-color:#00AFEF"/>
		</linearGradient>
		<path style="fill-rule:evenodd;clip-rule:evenodd;fill:url(#SVGID_00000073692484011318602100000015339313575314698921_);" d="
			M61.6,125.3l-7.5,4.3l0-0.2l0.2-0.9c3.1-5.8,3.1-5.9,7.3-12.4l0,0C61.6,120.7,61.5,122.8,61.6,125.3z"/>
		
			<linearGradient id="SVGID_00000057119596430035390710000014797686881354060185_" gradientUnits="userSpaceOnUse" x1="30743.7012" y1="-16364.0479" x2="33965.0117" y2="-16748.0312" gradientTransform="matrix(2.834645e-02 0 0 -2.834645e-02 -786.0677 -360.1575)">
			<stop  offset="0" style="stop-color:#00376B"/>
			<stop  offset="1" style="stop-color:#00AFEF"/>
		</linearGradient>
		<path style="fill-rule:evenodd;clip-rule:evenodd;fill:url(#SVGID_00000057119596430035390710000014797686881354060185_);" d="
			M234.9,130.6l-8.3-4.8c-1.1-2.7-2.3-5.6-4.6-10.9c3.4-2,3.4-2,5.8-3.3l0,0C231.7,121.1,231.8,121.4,234.9,130.6z"/>
		
			<linearGradient id="SVGID_00000105410084532600607700000016380371693505522583_" gradientUnits="userSpaceOnUse" x1="30748.2949" y1="-16321.7969" x2="33969.8672" y2="-16705.7812" gradientTransform="matrix(2.834645e-02 0 0 -2.834645e-02 -786.0677 -360.1575)">
			<stop  offset="0" style="stop-color:#00376B"/>
			<stop  offset="1" style="stop-color:#00AFEF"/>
		</linearGradient>
		<path style="fill-rule:evenodd;clip-rule:evenodd;fill:url(#SVGID_00000105410084532600607700000016380371693505522583_);" d="
			M234.3,120.5c0.7,2.5,1.4,4.9,1.9,7.5c-0.1,0.5-0.2,1-0.4,2.1l0,0c-3.1-9.6-3.1-9.6-7.2-19.1c1-0.7,1-0.7,1.4-1.1l0,0
			C232.4,115.6,233.1,117.4,234.3,120.5z"/>
		
			<linearGradient id="SVGID_00000098183659080426042220000015451206049736039336_" gradientUnits="userSpaceOnUse" x1="30685.748" y1="-16851.6914" x2="33906.9727" y2="-17235.6758" gradientTransform="matrix(2.834645e-02 0 0 -2.834645e-02 -786.0677 -360.1575)">
			<stop  offset="0" style="stop-color:#00376B"/>
			<stop  offset="1" style="stop-color:#00AFEF"/>
		</linearGradient>
		<path style="fill-rule:evenodd;clip-rule:evenodd;fill:url(#SVGID_00000098183659080426042220000015451206049736039336_);" d="
			M54.8,126.8c1.7-7.4,4.3-14.5,7.6-21.1l2-3.1l0,0c-1.5,5.4-1.5,5.4-2.5,12.3l0,0C57.7,121.1,57.5,121.3,54.8,126.8z"/>
		
			<linearGradient id="SVGID_00000098192768878894790250000010869911058338092970_" gradientUnits="userSpaceOnUse" x1="30707.8887" y1="-16665.9395" x2="33928.7617" y2="-17049.8359" gradientTransform="matrix(2.834645e-02 0 0 -2.834645e-02 -786.0677 -360.1575)">
			<stop  offset="0" style="stop-color:#00376B"/>
			<stop  offset="1" style="stop-color:#00AFEF"/>
		</linearGradient>
		<path style="fill-rule:evenodd;clip-rule:evenodd;fill:url(#SVGID_00000098192768878894790250000010869911058338092970_);" d="
			M80.7,114.3l-15.9,9.2c-0.3-3.7-0.3-5.5-0.3-11.2c6.2-7.2,6.2-7.2,13.5-14.3l0,0C79,105.5,79,106,80.7,114.3z"/>
		
			<linearGradient id="SVGID_00000013186054659146613060000017161417517453120419_" gradientUnits="userSpaceOnUse" x1="30797.1133" y1="-15918.7217" x2="34018.2461" y2="-16302.5312" gradientTransform="matrix(2.834645e-02 0 0 -2.834645e-02 -786.0677 -360.1575)">
			<stop  offset="0" style="stop-color:#00376B"/>
			<stop  offset="1" style="stop-color:#00AFEF"/>
		</linearGradient>
		<path style="fill-rule:evenodd;clip-rule:evenodd;fill:url(#SVGID_00000013186054659146613060000017161417517453120419_);" d="
			M190.7,105.1l-10.4-6l5.5-2l0,0C187.9,100.5,189.4,103,190.7,105.1z M165.2,105l-1.6,1l-0.1-0.3C163.4,105.7,165.2,105,165.2,105z
			"/>
		
			<linearGradient id="SVGID_00000126317918717245981310000012762897127626014360_" gradientUnits="userSpaceOnUse" x1="30800.2441" y1="-15891.1729" x2="34021.5547" y2="-16275.1572" gradientTransform="matrix(2.834645e-02 0 0 -2.834645e-02 -786.0677 -360.1575)">
			<stop  offset="0" style="stop-color:#00376B"/>
			<stop  offset="1" style="stop-color:#00AFEF"/>
		</linearGradient>
		<path style="fill-rule:evenodd;clip-rule:evenodd;fill:url(#SVGID_00000126317918717245981310000012762897127626014360_);" d="
			M212.1,117.5l-12.3-7.1c-2.4-4.3-4.2-7.2-9-14.9c8-2.1,8-2.1,14.5-3.4l0,0c6.9,10.6,6.9,10.6,13.2,22l0,0
			C215.4,115.8,214,116.5,212.1,117.5z"/>
		
			<linearGradient id="SVGID_00000039123033137879554820000010734637739702607793_" gradientUnits="userSpaceOnUse" x1="30823.877" y1="-15694.2812" x2="34045.0117" y2="-16078.1787" gradientTransform="matrix(2.834645e-02 0 0 -2.834645e-02 -786.0677 -360.1575)">
			<stop  offset="0" style="stop-color:#00376B"/>
			<stop  offset="1" style="stop-color:#00AFEF"/>
		</linearGradient>
		<path style="fill-rule:evenodd;clip-rule:evenodd;fill:url(#SVGID_00000039123033137879554820000010734637739702607793_);" d="
			M227.8,109.5c1.1-0.6,1.1-0.6,1.6-0.8l0,0c-4.2-7.7-4.2-7.7-9-14.8l0,0c-1.3-1-1.3-1-3.1-1.7l0,0
			C222.8,100.4,222.8,100.4,227.8,109.5z"/>
		
			<linearGradient id="SVGID_00000041277912585010734570000013805508942366522280_" gradientUnits="userSpaceOnUse" x1="30815.6641" y1="-15763.8613" x2="34036.7109" y2="-16147.7578" gradientTransform="matrix(2.834645e-02 0 0 -2.834645e-02 -786.0677 -360.1575)">
			<stop  offset="0" style="stop-color:#00376B"/>
			<stop  offset="1" style="stop-color:#00AFEF"/>
		</linearGradient>
		<path style="fill-rule:evenodd;clip-rule:evenodd;fill:url(#SVGID_00000041277912585010734570000013805508942366522280_);" d="
			M208.2,91.7c6.8,10.1,6.8,10.1,12.8,21.1l0,0c3.5-1.7,3.5-1.7,5.8-3l0,0c-5.2-9.3-5.2-9.3-11-18l0,0c-1.8-0.1-2.6-0.2-3.7-0.2l0,0
			C211.3,91.6,210.2,91.6,208.2,91.7z"/>
		
			<linearGradient id="SVGID_00000103253747759824732310000001876708075395086744_" gradientUnits="userSpaceOnUse" x1="30757.9766" y1="-16245.71" x2="33978.8477" y2="-16629.6074" gradientTransform="matrix(2.834645e-02 0 0 -2.834645e-02 -786.0677 -360.1575)">
			<stop  offset="0" style="stop-color:#00376B"/>
			<stop  offset="1" style="stop-color:#00AFEF"/>
		</linearGradient>
		<path style="fill-rule:evenodd;clip-rule:evenodd;fill:url(#SVGID_00000103253747759824732310000001876708075395086744_);" d="
			M66.9,99.1c-1.4,5.2-1.4,5.2-2.3,12l0,0c6.1-7.1,6.1-7.1,13.4-14.2l0,0c0.1-6,0.1-6,0.6-10.6l0,0C72.3,92.6,72.3,92.6,66.9,99.1z"
			/>
		
			<linearGradient id="SVGID_00000156563204470253719540000018066119225171230600_" gradientUnits="userSpaceOnUse" x1="30790.5234" y1="-15972.7158" x2="34011.8359" y2="-16356.7002" gradientTransform="matrix(2.834645e-02 0 0 -2.834645e-02 -786.0677 -360.1575)">
			<stop  offset="0" style="stop-color:#00376B"/>
			<stop  offset="1" style="stop-color:#00AFEF"/>
		</linearGradient>
		<path style="fill-rule:evenodd;clip-rule:evenodd;fill:url(#SVGID_00000156563204470253719540000018066119225171230600_);" d="
			M138.7,114.4l-18.4-10.7L116,95c12.4-6.2,12.4-6.2,24.8-11.5l0,0c6.8,10.5,6.8,10.5,14.3,23l0,0
			C146.5,110.5,143.4,112,138.7,114.4z"/>
		
			<linearGradient id="SVGID_00000168085567155773315260000003600659762264843711_" gradientUnits="userSpaceOnUse" x1="30780.0645" y1="-16060.3906" x2="34001.2891" y2="-16444.375" gradientTransform="matrix(2.834645e-02 0 0 -2.834645e-02 -786.0677 -360.1575)">
			<stop  offset="0" style="stop-color:#00376B"/>
			<stop  offset="1" style="stop-color:#00AFEF"/>
		</linearGradient>
		<path style="fill-rule:evenodd;clip-rule:evenodd;fill:url(#SVGID_00000168085567155773315260000003600659762264843711_);" d="
			M90.9,108.4l-4.7,2.7c-2.2-9.2-2.3-9.4-3.5-17.1c9.1-6.9,9.1-6.9,19-13.2l0,0c2.9,7,2.9,7,6.8,16.1l0,0
			C98.8,102.9,97.2,103.9,90.9,108.4z"/>
		
			<linearGradient id="SVGID_00000034075219307530633420000017369803797256808088_" gradientUnits="userSpaceOnUse" x1="30797.0742" y1="-15917.5732" x2="34018.2109" y2="-16301.3818" gradientTransform="matrix(2.834645e-02 0 0 -2.834645e-02 -786.0677 -360.1575)">
			<stop  offset="0" style="stop-color:#00376B"/>
			<stop  offset="1" style="stop-color:#00AFEF"/>
		</linearGradient>
		<path style="fill-rule:evenodd;clip-rule:evenodd;fill:url(#SVGID_00000034075219307530633420000017369803797256808088_);" d="
			M68.4,95.5c3.6-5.3,7.8-10.3,12.4-14.8c-1,1.7-1.1,2-2,4.9l0,0c-6.3,6.2-6.3,6.2-11.6,12.6l0,0C67.7,97,68.1,96.2,68.4,95.5z"/>
		
			<linearGradient id="SVGID_00000118359906019425038710000009068266551221030023_" gradientUnits="userSpaceOnUse" x1="30884.1504" y1="-15185.6709" x2="34105.5469" y2="-15569.6553" gradientTransform="matrix(2.834645e-02 0 0 -2.834645e-02 -786.0677 -360.1575)">
			<stop  offset="0" style="stop-color:#00376B"/>
			<stop  offset="1" style="stop-color:#00AFEF"/>
		</linearGradient>
		<path style="fill-rule:evenodd;clip-rule:evenodd;fill:url(#SVGID_00000118359906019425038710000009068266551221030023_);" d="
			M216.3,90.8c2,0.8,2,0.8,3.3,1.9l0,0c-1.4-1.9-1.5-2-3-3.6l0,0c-2.7-3.3-5.7-6.4-8.7-9.3l0,0c-1.7-1.3-1.8-1.3-3.9-2.6l0,0
			C210.3,83.4,210.3,83.4,216.3,90.8z"/>
		
			<linearGradient id="SVGID_00000141451840732002120530000010562099141188129710_" gradientUnits="userSpaceOnUse" x1="30842.8359" y1="-15533.6055" x2="34064.0586" y2="-15917.502" gradientTransform="matrix(2.834645e-02 0 0 -2.834645e-02 -786.0677 -360.1575)">
			<stop  offset="0" style="stop-color:#00376B"/>
			<stop  offset="1" style="stop-color:#00AFEF"/>
		</linearGradient>
		<path style="fill-rule:evenodd;clip-rule:evenodd;fill:url(#SVGID_00000141451840732002120530000010562099141188129710_);" d="
			M147.4,81.1c7.1,10.2,7.1,10.2,14.7,22.4l0,0c11.9-4.8,11.9-4.8,22.3-8.4l0,0c-7.9-10.8-7.9-10.8-15.5-19.8l0,0
			C158.7,77.7,158.7,77.7,147.4,81.1z"/>
		
			<linearGradient id="SVGID_00000126311519827410437310000015039285795902477452_" gradientUnits="userSpaceOnUse" x1="30890.8184" y1="-15134.6484" x2="34111.6875" y2="-15518.457" gradientTransform="matrix(2.834645e-02 0 0 -2.834645e-02 -786.0677 -360.1575)">
			<stop  offset="0" style="stop-color:#00376B"/>
			<stop  offset="1" style="stop-color:#00AFEF"/>
		</linearGradient>
		<path style="fill-rule:evenodd;clip-rule:evenodd;fill:url(#SVGID_00000126311519827410437310000015039285795902477452_);" d="
			M207,90.1c4.5-0.1,4.5-0.1,7.8,0.3l0,0c-6.3-7.6-6.3-7.6-12.8-14.1l0,0c-4.2-1.3-4.2-1.3-9.2-2.3l0,0
			C199.9,81.3,199.9,81.3,207,90.1z"/>
		
			<linearGradient id="SVGID_00000114035900862554068380000002279121493703602593_" gradientUnits="userSpaceOnUse" x1="30878.832" y1="-15233.3486" x2="34099.9688" y2="-15617.333" gradientTransform="matrix(2.834645e-02 0 0 -2.834645e-02 -786.0677 -360.1575)">
			<stop  offset="0" style="stop-color:#00376B"/>
			<stop  offset="1" style="stop-color:#00AFEF"/>
		</linearGradient>
		<path style="fill-rule:evenodd;clip-rule:evenodd;fill:url(#SVGID_00000114035900862554068380000002279121493703602593_);" d="
			M174,74.4c7.7,8.7,7.7,8.7,15.5,19.2l0,0c8-2,8-2,14.6-3.2l0,0c-7.3-9.1-7.3-9.1-14.6-16.7l0,0C182.4,73.7,182.4,73.7,174,74.4z"
			/>
		
			<linearGradient id="SVGID_00000142855275605219663130000013286686553302293654_" gradientUnits="userSpaceOnUse" x1="30835.1211" y1="-15599.1055" x2="34056.2539" y2="-15983.002" gradientTransform="matrix(2.834645e-02 0 0 -2.834645e-02 -786.0677 -360.1575)">
			<stop  offset="0" style="stop-color:#00376B"/>
			<stop  offset="1" style="stop-color:#00AFEF"/>
		</linearGradient>
		<path style="fill-rule:evenodd;clip-rule:evenodd;fill:url(#SVGID_00000142855275605219663130000013286686553302293654_);" d="
			M82.4,82.9c-0.3,4.3-0.3,4.3,0.1,10.1l0,0c9-6.9,9-6.9,18.8-13.2l0,0c-1.9-4.8-1.9-4.8-2.9-8.2l0,0C90.1,76.9,90.1,76.9,82.4,82.9
			z"/>
		
			<linearGradient id="SVGID_00000042709586557817926930000014829055722050599570_" gradientUnits="userSpaceOnUse" x1="30857.3633" y1="-15412.6074" x2="34078.4102" y2="-15796.5039" gradientTransform="matrix(2.834645e-02 0 0 -2.834645e-02 -786.0677 -360.1575)">
			<stop  offset="0" style="stop-color:#00376B"/>
			<stop  offset="1" style="stop-color:#00AFEF"/>
		</linearGradient>
		<path style="fill-rule:evenodd;clip-rule:evenodd;fill:url(#SVGID_00000042709586557817926930000014829055722050599570_);" d="
			M107.5,77.6c3.3,6.8,3.3,6.8,7.7,15.6l0,0c12.3-6,12.3-6,24.5-11.2l0,0c-5.8-7.9-5.8-7.9-10.8-13.8l0,0
			C118.1,72.4,118.1,72.4,107.5,77.6z"/>
		
			<linearGradient id="SVGID_00000111173240899279687750000011319775223033480087_" gradientUnits="userSpaceOnUse" x1="30864.7012" y1="-15350.3809" x2="34086.1016" y2="-15734.3662" gradientTransform="matrix(2.834645e-02 0 0 -2.834645e-02 -786.0677 -360.1575)">
			<stop  offset="0" style="stop-color:#00376B"/>
			<stop  offset="1" style="stop-color:#00AFEF"/>
		</linearGradient>
		<path style="fill-rule:evenodd;clip-rule:evenodd;fill:url(#SVGID_00000111173240899279687750000011319775223033480087_);" d="
			M84.3,77.5l0.9-0.8c5.5-4.3,5.8-4.5,12.3-8.7l0,0c0.2,1.2,0.2,1.2,0.7,3.2l0,0c-8.1,5.2-8.1,5.2-15.7,11.1l0,0
			C83.3,79.4,83.3,79.3,84.3,77.5z"/>
		
			<linearGradient id="SVGID_00000067931192683984691540000006402162341239938464_" gradientUnits="userSpaceOnUse" x1="30927.6855" y1="-14820.0557" x2="34149.0859" y2="-15204.1279" gradientTransform="matrix(2.834645e-02 0 0 -2.834645e-02 -786.0677 -360.1575)">
			<stop  offset="0" style="stop-color:#00376B"/>
			<stop  offset="1" style="stop-color:#00AFEF"/>
		</linearGradient>
		<path style="fill-rule:evenodd;clip-rule:evenodd;fill:url(#SVGID_00000067931192683984691540000006402162341239938464_);" d="
			M202.9,76.1c2.1,1.2,2.1,1.2,3.8,2.6l0,0c-4.7-4.3-9.7-8-15.2-11.2l0,0c-0.5-0.3-0.5-0.3-1.1-0.6l0,0
			C196.5,71,196.5,71,202.9,76.1z"/>
		
			<linearGradient id="SVGID_00000077299094376952860040000017436045201194342287_" gradientUnits="userSpaceOnUse" x1="30949.6602" y1="-14627.917" x2="34172.0234" y2="-15011.8145" gradientTransform="matrix(2.834645e-02 0 0 -2.834645e-02 -786.0677 -360.1575)">
			<stop  offset="0" style="stop-color:#00376B"/>
			<stop  offset="1" style="stop-color:#00AFEF"/>
		</linearGradient>
		<path style="fill-rule:evenodd;clip-rule:evenodd;fill:url(#SVGID_00000077299094376952860040000017436045201194342287_);" d="
			M189.4,66.4c0.3,0.2,0.3,0.2,0.6,0.3l0,0c-0.6-0.4-1.2-0.7-1.9-1l0,0C188.8,65.9,188.8,65.9,189.4,66.4z"/>
		
			<linearGradient id="SVGID_00000105407840001993463290000014222749395808767891_" gradientUnits="userSpaceOnUse" x1="30939.2031" y1="-14722.3574" x2="34160.6875" y2="-15106.3418" gradientTransform="matrix(2.834645e-02 0 0 -2.834645e-02 -786.0677 -360.1575)">
			<stop  offset="0" style="stop-color:#00376B"/>
			<stop  offset="1" style="stop-color:#00AFEF"/>
		</linearGradient>
		<path style="fill-rule:evenodd;clip-rule:evenodd;fill:url(#SVGID_00000105407840001993463290000014222749395808767891_);" d="
			M191.5,72.9c5.2,1,5.2,1,9.4,2.3l0,0c-6.4-5.2-6.4-5.2-12.8-9.3l0,0c-4.7-1.8-4.7-1.8-10.3-3.2l0,0
			C184.5,67.1,184.5,67.1,191.5,72.9z"/>
		
			<linearGradient id="SVGID_00000165210059647076040230000000878649695517629630_" gradientUnits="userSpaceOnUse" x1="30912.0586" y1="-14954.2275" x2="34133.1953" y2="-15338.2988" gradientTransform="matrix(2.834645e-02 0 0 -2.834645e-02 -786.0677 -360.1575)">
			<stop  offset="0" style="stop-color:#00376B"/>
			<stop  offset="1" style="stop-color:#00AFEF"/>
		</linearGradient>
		<path style="fill-rule:evenodd;clip-rule:evenodd;fill:url(#SVGID_00000165210059647076040230000000878649695517629630_);" d="
			M134.7,66.3C140,72,140,72,146.2,79.6l0,0c11.3-3.4,11.3-3.4,21.5-5.7l0,0c-7-6.8-7-6.8-13.4-11.7l0,0
			C144.8,63.7,144.8,63.7,134.7,66.3z"/>
		
			<linearGradient id="SVGID_00000003066206549448788880000007807986585064660880_" gradientUnits="userSpaceOnUse" x1="30937.1465" y1="-14743.0508" x2="34158.2812" y2="-15126.9473" gradientTransform="matrix(2.834645e-02 0 0 -2.834645e-02 -786.0677 -360.1575)">
			<stop  offset="0" style="stop-color:#00376B"/>
			<stop  offset="1" style="stop-color:#00AFEF"/>
		</linearGradient>
		<path style="fill-rule:evenodd;clip-rule:evenodd;fill:url(#SVGID_00000003066206549448788880000007807986585064660880_);" d="
			M159.2,61.7c6.5,4.8,6.5,4.8,13.6,11.4l0,0c8.3-0.7,8.3-0.7,15.3-0.6l0,0c-7-5.9-7-5.9-13.8-10.4l0,0c-4.5-0.3-6.2-0.5-8.8-0.5
			l0,0C164,61.6,162.2,61.7,159.2,61.7z"/>
		
			<linearGradient id="SVGID_00000128454941845268089190000002578940478908612766_" gradientUnits="userSpaceOnUse" x1="30902.3008" y1="-15034.8281" x2="34123.6094" y2="-15418.8125" gradientTransform="matrix(2.834645e-02 0 0 -2.834645e-02 -786.0677 -360.1575)">
			<stop  offset="0" style="stop-color:#00376B"/>
			<stop  offset="1" style="stop-color:#00AFEF"/>
		</linearGradient>
		<path style="fill-rule:evenodd;clip-rule:evenodd;fill:url(#SVGID_00000128454941845268089190000002578940478908612766_);" d="
			M103.1,68.9c1.6,3.1,1.6,3.1,3.9,7.7l0,0c10.5-5.2,10.5-5.2,21.2-9.3l0,0c-3.9-3.8-3.9-3.8-7-6.2l0,0
			C112.1,64.6,112.1,64.6,103.1,68.9z"/>
		
			<linearGradient id="SVGID_00000087404068345252575560000004198556403478537621_" gradientUnits="userSpaceOnUse" x1="30920.7715" y1="-14879.7881" x2="34142.082" y2="-15263.7725" gradientTransform="matrix(2.834645e-02 0 0 -2.834645e-02 -786.0677 -360.1575)">
			<stop  offset="0" style="stop-color:#00376B"/>
			<stop  offset="1" style="stop-color:#00AFEF"/>
		</linearGradient>
		<path style="fill-rule:evenodd;clip-rule:evenodd;fill:url(#SVGID_00000087404068345252575560000004198556403478537621_);" d="
			M101.6,65.7c0.4,1,0.4,1,1.4,2.8l0,0c8.8-4.3,8.8-4.3,17.8-7.6l0,0c-2.4-1.2-2.4-1.2-4.2-1.5l0,0
			C108.9,62.2,108.9,62.2,101.6,65.7z"/>
		
			<linearGradient id="SVGID_00000019654216740568086560000014084717553034532014_" gradientUnits="userSpaceOnUse" x1="30965.2832" y1="-14506.9619" x2="34186.418" y2="-14890.8594" gradientTransform="matrix(2.834645e-02 0 0 -2.834645e-02 -786.0677 -360.1575)">
			<stop  offset="0" style="stop-color:#00376B"/>
			<stop  offset="1" style="stop-color:#00AFEF"/>
		</linearGradient>
		<path style="fill-rule:evenodd;clip-rule:evenodd;fill:url(#SVGID_00000019654216740568086560000014084717553034532014_);" d="
			M176.7,62c5.7,1.4,5.7,1.4,10.4,3.2l0,0c-2.6-1.4-2.6-1.4-5.1-2.6l0,0c-4-1.8-8-3.3-12.3-4.4l0,0c-2.3-0.6-2.3-0.6-4.7-1.2l0,0
			C170.7,59.1,170.7,59.1,176.7,62z"/>
		
			<linearGradient id="SVGID_00000174587870771372074630000014491471515239099052_" gradientUnits="userSpaceOnUse" x1="30977.3203" y1="-14410.2803" x2="34197.8398" y2="-14794.0889" gradientTransform="matrix(2.834645e-02 0 0 -2.834645e-02 -786.0677 -360.1575)">
			<stop  offset="0" style="stop-color:#00376B"/>
			<stop  offset="1" style="stop-color:#00AFEF"/>
		</linearGradient>
		<path style="fill-rule:evenodd;clip-rule:evenodd;fill:url(#SVGID_00000174587870771372074630000014491471515239099052_);" d="
			M164.3,56.9c1.8,0.4,1.8,0.4,3.5,0.7l0,0c-1.5-0.3-2.9-0.7-4.4-1l0,0C163.6,56.7,163.9,56.7,164.3,56.9z"/>
		
			<linearGradient id="SVGID_00000172419758797988487100000014882524388949505971_" gradientUnits="userSpaceOnUse" x1="30947.4336" y1="-14656.6143" x2="34168.6562" y2="-15040.5986" gradientTransform="matrix(2.834645e-02 0 0 -2.834645e-02 -786.0677 -360.1575)">
			<stop  offset="0" style="stop-color:#00376B"/>
			<stop  offset="1" style="stop-color:#00AFEF"/>
		</linearGradient>
		<path style="fill-rule:evenodd;clip-rule:evenodd;fill:url(#SVGID_00000172419758797988487100000014882524388949505971_);" d="
			M126,59.6c3.6,2.3,3.6,2.3,7.9,5.9l0,0c10-2.6,10-2.6,19.5-4.1l0,0c-5.5-3.2-5.5-3.2-10.2-5.2l0,0C134.8,57.6,134.8,57.6,126,59.6
			z"/>
		
			<linearGradient id="SVGID_00000145760888084338568570000007402008691832957626_" gradientUnits="userSpaceOnUse" x1="30975.7461" y1="-14400.8262" x2="34199.7773" y2="-14784.3721" gradientTransform="matrix(2.834645e-02 0 0 -2.834645e-02 -786.0677 -360.1575)">
			<stop  offset="0" style="stop-color:#00376B"/>
			<stop  offset="1" style="stop-color:#00AFEF"/>
		</linearGradient>
		<path style="fill-rule:evenodd;clip-rule:evenodd;fill:url(#SVGID_00000145760888084338568570000007402008691832957626_);" d="
			M163.4,56.6c-0.4-0.1-0.7-0.1-1.4-0.3l0,0C162.5,56.4,162.9,56.5,163.4,56.6z"/>
		
			<linearGradient id="SVGID_00000096059507699792429520000006417356968999349915_" gradientUnits="userSpaceOnUse" x1="30967.0293" y1="-14492.0762" x2="34188.3398" y2="-14876.1484" gradientTransform="matrix(2.834645e-02 0 0 -2.834645e-02 -786.0677 -360.1575)">
			<stop  offset="0" style="stop-color:#00376B"/>
			<stop  offset="1" style="stop-color:#00AFEF"/>
		</linearGradient>
		<path style="fill-rule:evenodd;clip-rule:evenodd;fill:url(#SVGID_00000096059507699792429520000006417356968999349915_);" d="
			M147.5,56c4.9,2,4.9,2,10.7,5.1l0,0c8-0.2,8-0.2,15.1,0.4l0,0c-6-3-6-3-11.5-5l0,0c-4.9-0.5-6.3-0.6-9.4-0.6l0,0
			C151.1,55.9,149.6,56,147.5,56z"/>
		
			<linearGradient id="SVGID_00000054980411993056819970000004790458369790422668_" gradientUnits="userSpaceOnUse" x1="30959.1328" y1="-14558.4922" x2="34180.4414" y2="-14942.4766" gradientTransform="matrix(2.834645e-02 0 0 -2.834645e-02 -786.0677 -360.1575)">
			<stop  offset="0" style="stop-color:#00376B"/>
			<stop  offset="1" style="stop-color:#00AFEF"/>
		</linearGradient>
		<path style="fill-rule:evenodd;clip-rule:evenodd;fill:url(#SVGID_00000054980411993056819970000004790458369790422668_);" d="
			M135,55.2l0.3,0c3.1,0.1,3.2,0.1,7.1,0.9l0,0c-8.3,1.2-8.3,1.2-16.9,3.3l0,0c-2.8-1.1-2.8-1.1-4.9-1.3C128,56.3,128,56.2,135,55.2
			z"/>
		
			<linearGradient id="SVGID_00000132048283280319305610000001271891155765112249_" gradientUnits="userSpaceOnUse" x1="30976.3281" y1="-14414.582" x2="34197.4609" y2="-14798.5664" gradientTransform="matrix(2.834645e-02 0 0 -2.834645e-02 -786.0677 -360.1575)">
			<stop  offset="0" style="stop-color:#00376B"/>
			<stop  offset="1" style="stop-color:#00AFEF"/>
		</linearGradient>
		<path style="fill-rule:evenodd;clip-rule:evenodd;fill:url(#SVGID_00000132048283280319305610000001271891155765112249_);" d="
			M139.6,54.8L139.6,54.8l0.1,0l0.1,0l0.1,0l0.1,0l0.1,0l0.1,0l0.1,0l0.1,0l1.2-0.1l0.1,0l0.1,0l0.1,0l0.1,0l0.1,0
			c1.1,0,2.3-0.1,3.4-0.1h0.3l0.2,0l0.2,0l0.2,0c3.6,0.1,7.2,0.3,10.8,0.8l0,0c2,0.4,2,0.4,4.1,0.8l0,0c-6.8-0.5-6.8-0.5-14.1-0.5
			l0,0C142.9,54.9,142.9,54.9,139.6,54.8z"/>
		
			<linearGradient id="SVGID_00000142864735629618306750000011082969275171222692_" gradientUnits="userSpaceOnUse" x1="30700.668" y1="-16678.5234" x2="33925.1367" y2="-17063.3867" gradientTransform="matrix(2.834645e-02 0 0 -2.834645e-02 -786.0677 -360.1575)">
			<stop  offset="0" style="stop-color:#00376B"/>
			<stop  offset="1" style="stop-color:#00AFEF"/>
		</linearGradient>
		<path style="fill-rule:evenodd;clip-rule:evenodd;fill:url(#SVGID_00000142864735629618306750000011082969275171222692_);" d="
			M236.6,129.9c0.1,0.6,0.2,1.3,0.4,1.9l-0.7-0.4C236.4,130.7,236.5,130.2,236.6,129.9z"/>
	</g>
	
		<linearGradient id="SVGID_00000116217859058819589050000004518241277149293233_" gradientUnits="userSpaceOnUse" x1="30344.0996" y1="-18474.8652" x2="33238.4609" y2="-17875.5469" gradientTransform="matrix(2.834645e-02 0 0 -2.834645e-02 -786.0677 -360.1575)">
		<stop  offset="0" style="stop-color:#00376B"/>
		<stop  offset="1" style="stop-color:#00AFEF"/>
	</linearGradient>
	<path style="fill-rule:evenodd;clip-rule:evenodd;fill:url(#SVGID_00000116217859058819589050000004518241277149293233_);" d="
		M168.9,137.1l7,10.6C67.5,239.8,37.7,173,61.5,107.3C5.3,249.1,130.8,239,184.4,160.4l7.1,9.6l21.3-45.8
		C212.8,124.2,168.9,137.1,168.9,137.1z"/>
	<path class="st40" d="M144,209.1L144,209.1L144,209.1L144,209.1L144,209.1L144,209.1L144,209.1L144,209.1L144,209.1L144,209.1
		L144,209.1L144,209.1L144,209.1l-34.2,19.8l-34.2-19.8v13.3c-1.7-0.4-3.5-1.1-5.2-1.8l-4.4-2.4c-2.3-1.9-0.5-3.5-4.4-6.2
		c0,0-2.6-2.5-2.8-4.5c0,0-3.4,0.2-0.3,4.3c0,0-2.3-0.6-2.4-5c-0.1-4.4-1.3-6.4-2.8-5.9l-0.2,1.9c0,0-1.3-3.6-3.2-2.4
		c1.6,5,3.2,9.9,5.6,14.2c39.7,69.1,136.3,63.1,176.8,3.4c-0.2,0.3,3.8-6.8,5.8-17.5c-2-1.1-3.2,2.4-3.2,2.4l-0.2-1.9
		c-1.4-0.5-2.7,1.5-2.8,5.9c-0.1,4.4-2.4,5-2.4,5c3.1-4.1-0.3-4.3-0.3-4.3c-0.3,1.9-2.8,4.5-2.8,4.5c-3.9,2.8-2.1,4.3-4.4,6.2
		l-4.4,2.4c-1.8,0.8-3.5,1.4-5.2,1.8v-13.3l-34.2,19.8L144,209.1L144,209.1C144,209.1,144,209.1,144,209.1z"/>
</g>
</svg>
