<?xml version="1.0" encoding="UTF-8"?>
<!DOCTYPE svg PUBLIC "-//W3C//DTD SVG 1.1//EN" "http://www.w3.org/Graphics/SVG/1.1/DTD/svg11.dtd">
<!-- Creator: CorelDRAW 2018 (64-Bit) -->
<svg xmlns="http://www.w3.org/2000/svg" xml:space="preserve" width="46.5666mm" height="12.6998mm" version="1.1" style="shape-rendering:geometricPrecision; text-rendering:geometricPrecision; image-rendering:optimizeQuality; fill-rule:evenodd; clip-rule:evenodd"
viewBox="0 0 4656.66 1269.98"
 xmlns:xlink="http://www.w3.org/1999/xlink">
 <defs>
  <style type="text/css">
   <![CDATA[
    .fil43 {fill:none;fill-rule:nonzero}
    .fil41 {fill:#A2D9F7}
    .fil1 {fill:#945715}
    .fil40 {fill:#A30000}
    .fil2 {fill:#BF793B}
    .fil0 {fill:#BF793B;fill-rule:nonzero}
    .fil14 {fill:url(#id9)}
    .fil25 {fill:url(#id10)}
    .fil6 {fill:url(#id11)}
    .fil10 {fill:url(#id12)}
    .fil21 {fill:url(#id13)}
    .fil24 {fill:url(#id14)}
    .fil3 {fill:url(#id15)}
    .fil11 {fill:url(#id16)}
    .fil30 {fill:url(#id17)}
    .fil38 {fill:url(#id18)}
    .fil32 {fill:url(#id19)}
    .fil34 {fill:url(#id20)}
    .fil4 {fill:url(#id21)}
    .fil19 {fill:url(#id22)}
    .fil12 {fill:url(#id23)}
    .fil22 {fill:url(#id24)}
    .fil15 {fill:url(#id25)}
    .fil13 {fill:url(#id26)}
    .fil35 {fill:url(#id27)}
    .fil17 {fill:url(#id28)}
    .fil26 {fill:url(#id29)}
    .fil28 {fill:url(#id30)}
    .fil20 {fill:url(#id31)}
    .fil36 {fill:url(#id32)}
    .fil18 {fill:url(#id33)}
    .fil33 {fill:url(#id34)}
    .fil9 {fill:url(#id35)}
    .fil31 {fill:url(#id36)}
    .fil16 {fill:url(#id37)}
    .fil7 {fill:url(#id38)}
    .fil27 {fill:url(#id39)}
    .fil39 {fill:url(#id40)}
    .fil37 {fill:url(#id41)}
    .fil29 {fill:url(#id42)}
    .fil5 {fill:url(#id43)}
    .fil8 {fill:url(#id44)}
    .fil23 {fill:url(#id45)}
    .fil45 {fill:url(#id46);fill-rule:nonzero}
    .fil42 {fill:url(#id47);fill-rule:nonzero}
    .fil44 {fill:url(#id48);fill-rule:nonzero}
   ]]>
  </style>
     <clipPath id="id0" style="clip-rule:nonzero">
      <path d="M1588.04 771.84l0 64.75c0,17.34 3.53,29.61 10.43,36.82 6.9,7.21 18.57,10.74 35.14,10.74 17.95,0 30.07,-3.38 36.36,-10.28 6.29,-6.91 9.51,-19.94 9.51,-39.13l0 -47.25c0,-14.27 -0.92,-25 -2.76,-31.91 -1.69,-6.9 -4.76,-13.04 -8.9,-18.41 -10.28,-12.28 -33.75,-22.55 -70.58,-30.53 -16.88,-3.69 -29.91,-6.75 -39.12,-9.52 -43.27,-12.27 -72.87,-29.45 -89.14,-51.55 -16.11,-22.09 -24.24,-56.77 -24.24,-104.18l0 -61.67c0,-59.84 11.66,-101.57 34.83,-125.35 23.16,-23.62 63.36,-35.44 120.59,-35.44l46.02 0c35.91,0 65.36,3.07 88.53,9.2 23.02,6.14 41.12,15.96 54.32,29.46 10.58,10.44 17.79,23.79 22.09,40.05 4.14,16.11 6.29,42.04 6.29,77.63l0 51.71 -137.93 0 0 -41.74c0,-21.02 -2.76,-34.98 -8.29,-41.88 -5.67,-6.91 -16.87,-10.28 -34.06,-10.28 -16.57,0 -27.77,3.22 -33.6,9.66 -5.83,6.45 -8.74,18.42 -8.74,36.21l0 43.12c0,32.67 27.92,56 83.77,70.11 15.8,4.3 28.38,7.67 37.74,10.43 42.81,11.97 72.27,28.84 88.22,50.33 16.11,21.63 24.09,55.84 24.09,102.64l0 89.91c0,55.85 -13.2,95.88 -39.74,120.59 -26.54,24.55 -69.81,36.82 -129.64,36.82l-41.43 0c-65.97,0 -111.23,-11.2 -135.93,-33.75 -24.71,-22.4 -37.13,-63.98 -37.13,-124.58l0 -72.73 143.3 0z"/>
     </clipPath>
      <clipPath id="id1">
       <path d="M1588.04 771.84l0 64.75c0,17.34 3.53,29.61 10.43,36.82 6.9,7.21 18.57,10.74 35.14,10.74 17.95,0 30.07,-3.38 36.36,-10.28 6.29,-6.91 9.51,-19.94 9.51,-39.13l0 -47.25c0,-14.27 -0.92,-25 -2.76,-31.91 -1.69,-6.9 -4.76,-13.04 -8.9,-18.41 -10.28,-12.28 -33.75,-22.55 -70.58,-30.53 -16.88,-3.69 -29.91,-6.75 -39.12,-9.52 -43.27,-12.27 -72.87,-29.45 -89.14,-51.55 -16.11,-22.09 -24.24,-56.77 -24.24,-104.18l0 -61.67c0,-59.84 11.66,-101.57 34.83,-125.35 23.16,-23.62 63.36,-35.44 120.59,-35.44l46.02 0c35.91,0 65.36,3.07 88.53,9.2 23.02,6.14 41.12,15.96 54.32,29.46 10.58,10.44 17.79,23.79 22.09,40.05 4.14,16.11 6.29,42.04 6.29,77.63l0 51.71 -137.93 0 0 -41.74c0,-21.02 -2.76,-34.98 -8.29,-41.88 -5.67,-6.91 -16.87,-10.28 -34.06,-10.28 -16.57,0 -27.77,3.22 -33.6,9.66 -5.83,6.45 -8.74,18.42 -8.74,36.21l0 43.12c0,32.67 27.92,56 83.77,70.11 15.8,4.3 28.38,7.67 37.74,10.43 42.81,11.97 72.27,28.84 88.22,50.33 16.11,21.63 24.09,55.84 24.09,102.64l0 89.91c0,55.85 -13.2,95.88 -39.74,120.59 -26.54,24.55 -69.81,36.82 -129.64,36.82l-41.43 0c-65.97,0 -111.23,-11.2 -135.93,-33.75 -24.71,-22.4 -37.13,-63.98 -37.13,-124.58l0 -72.73 143.3 0z"/>
      </clipPath>
      <clipPath id="id2">
       <path d="M1588.04 771.84l0 64.75c0,17.34 3.53,29.61 10.43,36.82 6.9,7.21 18.57,10.74 35.14,10.74 17.95,0 30.07,-3.38 36.36,-10.28 6.29,-6.91 9.51,-19.94 9.51,-39.13l0 -47.25c0,-14.27 -0.92,-25 -2.76,-31.91 -1.69,-6.9 -4.76,-13.04 -8.9,-18.41 -10.28,-12.28 -33.75,-22.55 -70.58,-30.53 -16.88,-3.69 -29.91,-6.75 -39.12,-9.52 -43.27,-12.27 -72.87,-29.45 -89.14,-51.55 -16.11,-22.09 -24.24,-56.77 -24.24,-104.18l0 -61.67c0,-59.84 11.66,-101.57 34.83,-125.35 23.16,-23.62 63.36,-35.44 120.59,-35.44l46.02 0c35.91,0 65.36,3.07 88.53,9.2 23.02,6.14 41.12,15.96 54.32,29.46 10.58,10.44 17.79,23.79 22.09,40.05 4.14,16.11 6.29,42.04 6.29,77.63l0 51.71 -137.93 0 0 -41.74c0,-21.02 -2.76,-34.98 -8.29,-41.88 -5.67,-6.91 -16.87,-10.28 -34.06,-10.28 -16.57,0 -27.77,3.22 -33.6,9.66 -5.83,6.45 -8.74,18.42 -8.74,36.21l0 43.12c0,32.67 27.92,56 83.77,70.11 15.8,4.3 28.38,7.67 37.74,10.43 42.81,11.97 72.27,28.84 88.22,50.33 16.11,21.63 24.09,55.84 24.09,102.64l0 89.91c0,55.85 -13.2,95.88 -39.74,120.59 -26.54,24.55 -69.81,36.82 -129.64,36.82l-41.43 0c-65.97,0 -111.23,-11.2 -135.93,-33.75 -24.71,-22.4 -37.13,-63.98 -37.13,-124.58l0 -72.73 143.3 0z"/>
      </clipPath>
     <clipPath id="id3" style="clip-rule:nonzero">
      <path d="M1973.13 994.62l-92.97 -667.41 160.02 0 57.07 584.71 58.77 -584.71 160.48 0 -93.89 667.41 -249.48 0z"/>
     </clipPath>
      <clipPath id="id4">
       <path d="M1973.13 994.62l-92.97 -667.41 160.02 0 57.07 584.71 58.77 -584.71 160.48 0 -93.89 667.41 -249.48 0z"/>
      </clipPath>
      <clipPath id="id5">
       <path d="M1973.13 994.62l-92.97 -667.41 160.02 0 57.07 584.71 58.77 -584.71 160.48 0 -93.89 667.41 -249.48 0z"/>
      </clipPath>
     <clipPath id="id6" style="clip-rule:nonzero">
      <path d="M2380.78 994.62l0 -667.41 155.58 0 0 547.73 271.68 0c-8.71,92.66 -96.62,127.23 -222.43,120.76l-204.83 -1.08z"/>
     </clipPath>
      <clipPath id="id7">
       <path d="M2380.78 994.62l0 -667.41 155.58 0 0 547.73 271.68 0c-8.71,92.66 -96.62,127.23 -222.43,120.76l-204.83 -1.08z"/>
      </clipPath>
      <clipPath id="id8">
       <path d="M2380.78 994.62l0 -667.41 155.58 0 0 547.73 271.68 0c-8.71,92.66 -96.62,127.23 -222.43,120.76l-204.83 -1.08z"/>
      </clipPath>
  <linearGradient id="id9" gradientUnits="userSpaceOnUse" x1="710.66" y1="463.22" x2="1077.77" y2="506.98">
   <stop offset="0" style="stop-opacity:1; stop-color:#00376B"/>
   <stop offset="1" style="stop-opacity:1; stop-color:#00AFEF"/>
  </linearGradient>
  <linearGradient id="id10" gradientUnits="userSpaceOnUse" xlink:href="#id9" x1="710.52" y1="463.42" x2="1077.75" y2="507.17">
  </linearGradient>
  <linearGradient id="id11" gradientUnits="userSpaceOnUse" xlink:href="#id9" x1="710.59" y1="463.22" x2="1077.73" y2="506.98">
  </linearGradient>
  <linearGradient id="id12" gradientUnits="userSpaceOnUse" xlink:href="#id9" x1="710.66" y1="463.22" x2="1077.77" y2="506.98">
  </linearGradient>
  <linearGradient id="id13" gradientUnits="userSpaceOnUse" xlink:href="#id9" x1="710.67" y1="463.22" x2="1077.76" y2="506.97">
  </linearGradient>
  <linearGradient id="id14" gradientUnits="userSpaceOnUse" xlink:href="#id9" x1="710.63" y1="463.2" x2="1077.75" y2="506.97">
  </linearGradient>
  <linearGradient id="id15" gradientUnits="userSpaceOnUse" xlink:href="#id9" x1="710.6" y1="463.22" x2="1077.74" y2="506.98">
  </linearGradient>
  <linearGradient id="id16" gradientUnits="userSpaceOnUse" xlink:href="#id9" x1="710.68" y1="463.23" x2="1077.77" y2="506.98">
  </linearGradient>
  <linearGradient id="id17" gradientUnits="userSpaceOnUse" xlink:href="#id9" x1="710.66" y1="463.19" x2="1077.77" y2="506.95">
  </linearGradient>
  <linearGradient id="id18" gradientUnits="userSpaceOnUse" xlink:href="#id9" x1="710.01" y1="463.18" x2="1077.48" y2="507.04">
  </linearGradient>
  <linearGradient id="id19" gradientUnits="userSpaceOnUse" xlink:href="#id9" x1="710.73" y1="463.22" x2="1077.75" y2="506.96">
  </linearGradient>
  <linearGradient id="id20" gradientUnits="userSpaceOnUse" xlink:href="#id9" x1="710.39" y1="463.98" x2="1077.81" y2="507.69">
  </linearGradient>
  <linearGradient id="id21" gradientUnits="userSpaceOnUse" xlink:href="#id9" x1="710.66" y1="463.22" x2="1077.76" y2="506.97">
  </linearGradient>
  <linearGradient id="id22" gradientUnits="userSpaceOnUse" xlink:href="#id9" x1="710.71" y1="463.24" x2="1077.77" y2="506.98">
  </linearGradient>
  <linearGradient id="id23" gradientUnits="userSpaceOnUse" xlink:href="#id9" x1="710.69" y1="463.22" x2="1077.77" y2="506.97">
  </linearGradient>
  <linearGradient id="id24" gradientUnits="userSpaceOnUse" xlink:href="#id9" x1="710.67" y1="463.23" x2="1077.75" y2="506.98">
  </linearGradient>
  <linearGradient id="id25" gradientUnits="userSpaceOnUse" xlink:href="#id9" x1="710.66" y1="463.21" x2="1077.76" y2="506.97">
  </linearGradient>
  <linearGradient id="id26" gradientUnits="userSpaceOnUse" xlink:href="#id9" x1="710.66" y1="463.22" x2="1077.72" y2="506.97">
  </linearGradient>
  <linearGradient id="id27" gradientUnits="userSpaceOnUse" xlink:href="#id9" x1="710.66" y1="463.17" x2="1077.77" y2="506.94">
  </linearGradient>
  <linearGradient id="id28" gradientUnits="userSpaceOnUse" xlink:href="#id9" x1="710.64" y1="463.21" x2="1077.76" y2="506.97">
  </linearGradient>
  <linearGradient id="id29" gradientUnits="userSpaceOnUse" xlink:href="#id9" x1="710.62" y1="463.22" x2="1077.75" y2="506.98">
  </linearGradient>
  <linearGradient id="id30" gradientUnits="userSpaceOnUse" xlink:href="#id9" x1="710.67" y1="463.22" x2="1077.76" y2="506.97">
  </linearGradient>
  <linearGradient id="id31" gradientUnits="userSpaceOnUse" xlink:href="#id9" x1="710.68" y1="463.21" x2="1077.77" y2="506.97">
  </linearGradient>
  <linearGradient id="id32" gradientUnits="userSpaceOnUse" xlink:href="#id9" x1="710.66" y1="463.25" x2="1077.77" y2="507.01">
  </linearGradient>
  <linearGradient id="id33" gradientUnits="userSpaceOnUse" xlink:href="#id9" x1="710.66" y1="463.22" x2="1077.76" y2="506.97">
  </linearGradient>
  <linearGradient id="id34" gradientUnits="userSpaceOnUse" xlink:href="#id9" x1="710.66" y1="463.24" x2="1077.76" y2="507">
  </linearGradient>
  <linearGradient id="id35" gradientUnits="userSpaceOnUse" xlink:href="#id9" x1="710.68" y1="463.24" x2="1077.77" y2="506.98">
  </linearGradient>
  <linearGradient id="id36" gradientUnits="userSpaceOnUse" xlink:href="#id9" x1="710.67" y1="463.22" x2="1077.76" y2="506.97">
  </linearGradient>
  <linearGradient id="id37" gradientUnits="userSpaceOnUse" xlink:href="#id9" x1="710.66" y1="463.24" x2="1077.75" y2="506.98">
  </linearGradient>
  <linearGradient id="id38" gradientUnits="userSpaceOnUse" xlink:href="#id9" x1="710.66" y1="463.22" x2="1077.76" y2="506.98">
  </linearGradient>
  <linearGradient id="id39" gradientUnits="userSpaceOnUse" xlink:href="#id9" x1="710.67" y1="463.2" x2="1077.76" y2="506.97">
  </linearGradient>
  <linearGradient id="id40" gradientUnits="userSpaceOnUse" xlink:href="#id9" x1="720.86" y1="890.26" x2="1050.71" y2="821.96">
  </linearGradient>
  <linearGradient id="id41" gradientUnits="userSpaceOnUse" xlink:href="#id9" x1="710.67" y1="463.19" x2="1077.76" y2="506.95">
  </linearGradient>
  <linearGradient id="id42" gradientUnits="userSpaceOnUse" xlink:href="#id9" x1="710.66" y1="463.2" x2="1077.77" y2="506.96">
  </linearGradient>
  <linearGradient id="id43" gradientUnits="userSpaceOnUse" xlink:href="#id9" x1="710.64" y1="463.22" x2="1077.75" y2="506.98">
  </linearGradient>
  <linearGradient id="id44" gradientUnits="userSpaceOnUse" xlink:href="#id9" x1="710.66" y1="463.22" x2="1077.72" y2="506.97">
  </linearGradient>
  <linearGradient id="id45" gradientUnits="userSpaceOnUse" xlink:href="#id9" x1="710.66" y1="463.22" x2="1077.78" y2="506.98">
  </linearGradient>
  <linearGradient id="id46" gradientUnits="userSpaceOnUse" x1="3043.33" y1="1145.59" x2="3043.35" y2="383">
   <stop offset="0" style="stop-opacity:1; stop-color:#990000"/>
   <stop offset="1" style="stop-opacity:1; stop-color:#E31E24"/>
  </linearGradient>
  <linearGradient id="id47" gradientUnits="userSpaceOnUse" xlink:href="#id46" x1="3043.33" y1="1145.59" x2="3043.35" y2="383">
  </linearGradient>
  <linearGradient id="id48" gradientUnits="userSpaceOnUse" xlink:href="#id46" x1="3043.33" y1="1145.59" x2="3043.35" y2="383">
  </linearGradient>
 </defs>
 <g id="Layer_x0020_1">
  <metadata id="CorelCorpID_0Corel-Layer"/>
  <g id="_2368908160512">
   <g>
    <path class="fil0" d="M2715.01 388.36l34.51 0c9.39,0 16.27,-2.13 20.75,-6.44 4.48,-4.31 6.69,-10.96 6.69,-19.94 0,-8.72 -2.3,-15.21 -6.98,-19.52 -4.61,-4.31 -11.64,-6.44 -21.02,-6.44l-33.95 0 0 52.34zm-52.35 122.33l0 -218.79 93.04 0c23.62,0 41.59,5.88 53.94,17.6 12.36,11.71 18.53,28.65 18.53,50.81 0,23.29 -6.08,41.14 -18.25,53.56 -12.16,12.43 -29.7,18.61 -52.57,18.61l-42.34 0 0 78.21 -52.35 0zm269.96 -76.02c-3.77,2.58 -10.42,4.96 -19.95,7.15 -4.62,0.96 -8.11,1.82 -10.51,2.53 -5.94,1.78 -10.09,4.06 -12.55,6.8 -2.45,2.78 -3.68,6.49 -3.68,11.15 0,5.74 1.66,10.41 5.01,13.9 3.3,3.5 7.68,5.27 13.15,5.27 8.39,0 15.24,-2.58 20.56,-7.8 5.33,-5.18 7.97,-12.02 7.97,-20.44l0 -18.56zm54.04 76.02l-50.03 0c-0.56,-2.59 -1.04,-5.23 -1.46,-8.02 -0.43,-2.73 -0.8,-5.63 -1.18,-8.56 -6.89,7.4 -14.24,12.88 -22.07,16.43 -7.78,3.55 -16.31,5.33 -25.65,5.33 -14.48,0 -25.94,-4.27 -34.38,-12.84 -8.43,-8.57 -12.63,-20.13 -12.63,-34.69 0,-13.34 3.29,-24.19 9.9,-32.56 6.55,-8.37 16.55,-14.25 29.89,-17.6 7.41,-1.78 16.75,-3.7 28.11,-5.78 16.97,-2.99 25.46,-7.35 25.46,-13.09l0 -3.9c0,-4.66 -1.65,-8.27 -4.9,-10.7 -3.3,-2.43 -8.16,-3.65 -14.62,-3.65 -6.98,0 -12.55,1.52 -16.65,4.61 -4.1,3.1 -6.65,7.66 -7.68,13.64l-45.27 0c2.41,-18.25 9.43,-31.84 21.08,-40.77 11.64,-8.93 28.19,-13.39 49.65,-13.39 13.34,0 24.62,1.72 33.76,5.22 9.2,3.45 16.37,8.73 21.5,15.78 3.59,5.02 6.13,11.05 7.6,18.05 1.46,7 2.21,18.21 2.21,33.68l0 61.22c0,7.3 0.62,13.08 1.84,17.29 1.23,4.21 3.07,6.95 5.52,8.22l0 6.08zm164.67 -59.95c-2.51,20.54 -10.14,36.52 -22.97,47.93 -12.87,11.46 -29.61,17.2 -50.32,17.2 -22.34,0 -40.36,-7.72 -53.99,-23.14 -13.62,-15.36 -20.42,-35.75 -20.42,-61.11 0,-27.38 6.89,-48.94 20.71,-64.66 13.81,-15.77 32.58,-23.64 56.3,-23.64 20.61,0 37.2,5.58 49.79,16.74 12.54,11.11 19.62,26.52 21.18,46.26l-49.51 0c-1.37,-7.51 -3.92,-13.14 -7.6,-16.89 -3.68,-3.76 -8.43,-5.63 -14.24,-5.63 -8.48,0 -14.9,3.9 -19.33,11.76 -4.43,7.81 -6.65,19.32 -6.65,34.49 0,14.86 2.08,25.91 6.27,33.22 4.2,7.25 10.61,10.9 19.14,10.9 6.47,0 11.61,-1.92 15.43,-5.83 3.82,-3.85 6.46,-9.74 7.83,-17.6l48.38 0zm24.37 59.95l0 -218.79 48.38 0 0 112.79 45.32 -55.58 57.72 0 -52.06 61.66 53.43 99.92 -54.56 0 -31.74 -63.91 -18.11 20.35 0 43.56 -48.38 0zm256.62 -76.02c-3.78,2.58 -10.43,4.96 -19.96,7.15 -4.61,0.96 -8.1,1.82 -10.51,2.53 -5.94,1.78 -10.09,4.06 -12.54,6.8 -2.45,2.78 -3.68,6.49 -3.68,11.15 0,5.74 1.65,10.41 5,13.9 3.3,3.5 7.69,5.27 13.16,5.27 8.39,0 15.23,-2.58 20.56,-7.8 5.33,-5.18 7.97,-12.02 7.97,-20.44l0 -18.56zm54.04 76.02l-50.04 0c-0.56,-2.59 -1.03,-5.23 -1.46,-8.02 -0.42,-2.73 -0.8,-5.63 -1.17,-8.56 -6.89,7.4 -14.25,12.88 -22.07,16.43 -7.79,3.55 -16.32,5.33 -25.66,5.33 -14.47,0 -25.94,-4.27 -34.37,-12.84 -8.44,-8.57 -12.64,-20.13 -12.64,-34.69 0,-13.34 3.3,-24.19 9.9,-32.56 6.56,-8.37 16.55,-14.25 29.9,-17.6 7.4,-1.78 16.74,-3.7 28.1,-5.78 16.98,-2.99 25.47,-7.35 25.47,-13.09l0 -3.9c0,-4.66 -1.66,-8.27 -4.91,-10.7 -3.3,-2.43 -8.16,-3.65 -14.62,-3.65 -6.97,0 -12.54,1.52 -16.65,4.61 -4.09,3.1 -6.64,7.66 -7.68,13.64l-45.26 0c2.4,-18.25 9.42,-31.84 21.07,-40.77 11.64,-8.93 28.19,-13.39 49.65,-13.39 13.35,0 24.62,1.72 33.77,5.22 9.2,3.45 16.36,8.73 21.5,15.78 3.58,5.02 6.13,11.05 7.6,18.05 1.45,7 2.2,18.21 2.2,33.68l0 61.22c0,7.3 0.62,13.08 1.85,17.29 1.23,4.21 3.07,6.95 5.52,8.22l0 6.08zm25.74 13.69l49.23 0c1.27,4.87 3.82,8.47 7.55,10.81 3.72,2.33 8.72,3.49 15.09,3.49 10.6,0 18.06,-2.53 22.35,-7.66 4.34,-5.12 6.5,-14.3 6.5,-27.59l0 -17.14c-5.33,8.73 -11.88,15.27 -19.56,19.53 -7.69,4.26 -16.65,6.39 -26.88,6.39 -18.44,0 -33.48,-7.66 -45.23,-22.97 -11.69,-15.32 -17.54,-35.25 -17.54,-59.8 0,-25.2 5.85,-45.59 17.54,-61.16 11.75,-15.62 26.98,-23.44 45.79,-23.44 10.42,0 19.43,2.08 27.07,6.24 7.64,4.16 14.47,10.7 20.46,19.63l0 -21.6 46.16 0 0 133.33c0,20.14 -0.7,34.28 -2.07,42.45 -1.37,8.16 -3.68,14.96 -6.88,20.44 -5.9,9.99 -14.53,17.6 -25.79,22.77 -11.28,5.12 -24.81,7.71 -40.56,7.71 -22.73,0 -40.08,-4.21 -52.01,-12.58 -11.93,-8.37 -19,-21.3 -21.22,-38.85zm42.44 -95.25c0,12.84 2.54,22.98 7.59,30.34 5.1,7.35 11.98,11.05 20.7,11.05 9.34,0 16.55,-3.65 21.69,-10.9 5.19,-7.26 7.74,-17.45 7.74,-30.49 0,-14.14 -2.41,-24.89 -7.22,-32.2 -4.85,-7.36 -11.97,-11 -21.35,-11 -9.39,0 -16.6,3.7 -21.6,11.1 -5.05,7.46 -7.55,18.11 -7.55,32.1zm140.33 -94.63l0 -42.6 48.95 0 0 42.6 -48.95 0zm0 176.19l0 -161.58 48.95 0 0 161.58 -48.95 0zm83.46 0l0 -161.58 48.1 0 0 22.21c5.18,-8.83 11.5,-15.42 18.95,-19.73 7.45,-4.31 16.37,-6.44 26.64,-6.44 17.59,0 30.37,4.72 38.25,14.2 7.87,9.48 11.78,24.9 11.78,46.3l0 105.04 -49.22 0 0 -81.25c0,-19.02 -1.47,-31.14 -4.44,-36.31 -2.91,-5.22 -8.35,-7.81 -16.26,-7.81 -8.68,0 -14.96,3.09 -18.91,9.28 -3.96,6.18 -5.94,16.08 -5.94,29.62l0 86.47 -48.95 0zm177.11 13.69l49.23 0c1.27,4.87 3.82,8.47 7.55,10.81 3.72,2.33 8.72,3.49 15.09,3.49 10.6,0 18.05,-2.53 22.35,-7.66 4.34,-5.12 6.5,-14.3 6.5,-27.59l0 -17.14c-5.33,8.73 -11.88,15.27 -19.57,19.53 -7.68,4.26 -16.65,6.39 -26.87,6.39 -18.44,0 -33.48,-7.66 -45.22,-22.97 -11.7,-15.32 -17.54,-35.25 -17.54,-59.8 0,-25.2 5.84,-45.59 17.54,-61.16 11.74,-15.62 26.97,-23.44 45.78,-23.44 10.42,0 19.43,2.08 27.07,6.24 7.64,4.16 14.48,10.7 20.46,19.63l0 -21.6 46.17 0 0 133.33c0,20.14 -0.71,34.28 -2.08,42.45 -1.37,8.16 -3.68,14.96 -6.88,20.44 -5.9,9.99 -14.53,17.6 -25.8,22.77 -11.27,5.12 -24.79,7.71 -40.55,7.71 -22.73,0 -40.07,-4.21 -52.01,-12.58 -11.93,-8.37 -19,-21.3 -21.22,-38.85zm42.44 -95.25c0,12.84 2.55,22.98 7.59,30.34 5.1,7.35 11.98,11.05 20.71,11.05 9.33,0 16.55,-3.65 21.68,-10.9 5.19,-7.26 7.74,-17.45 7.74,-30.49 0,-14.14 -2.41,-24.89 -7.22,-32.2 -4.85,-7.36 -11.97,-11 -21.36,-11 -9.38,0 -16.59,3.7 -21.6,11.1 -5.04,7.46 -7.54,18.11 -7.54,32.1z"/>
    <path class="fil0" d="M2715.01 681.24l34.51 0c9.39,0 16.27,-2.13 20.75,-6.44 4.48,-4.31 6.69,-10.96 6.69,-19.94 0,-8.72 -2.3,-15.21 -6.98,-19.52 -4.61,-4.31 -11.64,-6.44 -21.02,-6.44l-33.95 0 0 52.34zm-52.34 122.33l0 -218.79 93.03 0c23.62,0 41.59,5.88 53.95,17.6 12.35,11.71 18.52,28.65 18.52,50.81 0,23.28 -6.08,41.13 -18.25,53.56 -12.16,12.42 -29.7,18.61 -52.57,18.61l-42.34 0 0 78.21 -52.34 0zm192.11 0l0 -161.59 47.29 0 0 28.31c5.23,-11.12 11.79,-19.23 19.62,-24.3 7.82,-5.12 17.77,-7.76 29.84,-7.96l0 52.34c-2.11,-0.31 -4.19,-0.56 -6.26,-0.71 -2.08,-0.16 -4.06,-0.2 -5.9,-0.2 -7.55,0 -13.77,1.21 -18.72,3.64 -4.95,2.44 -8.87,6.14 -11.84,11.21 -1.84,3.35 -3.15,8.22 -3.91,14.51 -0.8,6.29 -1.18,16.43 -1.18,30.53l0 54.22 -48.94 0zm119.34 -176.19l0 -42.6 48.95 0 0 42.6 -48.95 0zm0 176.19l0 -161.59 48.95 0 0 161.59 -48.95 0zm83.46 0l0 -161.59 48.1 0 0 22.22c5.18,-8.83 11.5,-15.42 18.95,-19.73 7.45,-4.31 16.36,-6.44 26.64,-6.44 17.6,0 30.37,4.71 38.24,14.2 7.88,9.48 11.8,24.9 11.8,46.3l0 105.04 -49.24 0 0 -81.25c0,-19.02 -1.45,-31.14 -4.43,-36.32 -2.92,-5.22 -8.35,-7.8 -16.26,-7.8 -8.69,0 -14.95,3.09 -18.91,9.27 -3.97,6.19 -5.94,16.08 -5.94,29.62l0 86.48 -48.95 0zm161.55 -129.64l0 -31.95 20.09 0 0 -45.65 49.23 0 0 45.65 25.18 0 0 31.95 -25.18 0 0 69.99c0,10.7 1.27,17.81 3.87,21.25 2.59,3.5 7.45,5.23 14.52,5.23 1.6,0 2.78,-0.05 3.67,-0.1 0.9,-0.06 1.75,-0.11 2.55,-0.2l0 33.77c-5.14,1.06 -10.18,1.88 -15.13,2.49 -4.96,0.56 -9.72,0.86 -14.29,0.86 -17.07,0 -28.77,-4.46 -35.04,-13.44 -6.27,-8.98 -9.38,-28.05 -9.38,-57.26l0 -62.59 -20.09 0zm117.09 -46.55l0 -42.6 48.95 0 0 42.6 -48.95 0zm0 176.19l0 -161.59 48.95 0 0 161.59 -48.95 0zm83.45 0l0 -161.59 48.11 0 0 22.22c5.18,-8.83 11.5,-15.42 18.95,-19.73 7.45,-4.31 16.36,-6.44 26.64,-6.44 17.59,0 30.37,4.71 38.24,14.2 7.88,9.48 11.8,24.9 11.8,46.3l0 105.04 -49.24 0 0 -81.25c0,-19.02 -1.46,-31.14 -4.43,-36.32 -2.92,-5.22 -8.35,-7.8 -16.27,-7.8 -8.68,0 -14.95,3.09 -18.9,9.27 -3.97,6.19 -5.95,16.08 -5.95,29.62l0 86.48 -48.95 0zm177.12 13.69l49.23 0c1.27,4.87 3.82,8.47 7.54,10.81 3.73,2.33 8.72,3.49 15.1,3.49 10.6,0 18.05,-2.53 22.34,-7.66 4.34,-5.12 6.51,-14.3 6.51,-27.59l0 -17.14c-5.33,8.72 -11.88,15.27 -19.57,19.53 -7.68,4.26 -16.65,6.39 -26.88,6.39 -18.43,0 -33.47,-7.66 -45.22,-22.97 -11.69,-15.32 -17.54,-35.25 -17.54,-59.8 0,-25.21 5.85,-45.6 17.54,-61.17 11.75,-15.62 26.97,-23.43 45.79,-23.43 10.42,0 19.42,2.08 27.06,6.24 7.65,4.16 14.48,10.7 20.47,19.63l0 -21.61 46.16 0 0 133.33c0,20.14 -0.7,34.29 -2.07,42.46 -1.37,8.16 -3.68,14.96 -6.89,20.44 -5.89,9.99 -14.52,17.59 -25.79,22.77 -11.27,5.12 -24.8,7.71 -40.55,7.71 -22.73,0 -40.08,-4.21 -52.01,-12.58 -11.93,-8.37 -19.01,-21.3 -21.22,-38.85zm42.44 -95.25c0,12.84 2.54,22.98 7.59,30.33 5.09,7.36 11.98,11.06 20.7,11.06 9.34,0 16.55,-3.66 21.69,-10.9 5.19,-7.26 7.73,-17.45 7.73,-30.49 0,-14.15 -2.4,-24.9 -7.21,-32.2 -4.85,-7.36 -11.97,-11.01 -21.36,-11.01 -9.38,0 -16.6,3.71 -21.6,11.11 -5.04,7.46 -7.54,18.11 -7.54,32.1z"/>
   </g>
   <polygon class="fil1" points="951.89,739.49 951.89,811.29 1220.51,656.21 1158.32,620.3 951.89,501.11 "/>
   <polygon class="fil2" points="952.32,501.11 683.7,656.21 952.32,811.29 952.32,739.49 "/>
   <path class="fil0" d="M1344.89 561.45l-248.76 -143.62c-4.09,-2.36 -9.14,-2.36 -13.24,0l-104.5 60.34c-8.84,5.09 -8.84,17.84 0,22.94l248.75 143.62c4.09,2.37 9.14,2.37 13.24,0l104.51 -60.34c8.84,-5.1 8.84,-17.84 0,-22.94z"/>
   <path class="fil0" d="M1344.89 728.02l-104.51 -60.34c-4.1,-2.37 -9.15,-2.37 -13.24,0l-248.75 143.62c-8.84,5.1 -8.84,17.85 0,22.94l104.5 60.34c4.1,2.37 9.15,2.37 13.24,0l248.76 -143.62c8.84,-5.1 8.84,-17.85 0,-22.94z"/>
   <path class="fil0" d="M559.31 750.96l248.75 143.62c4.1,2.37 9.15,2.37 13.25,0l104.51 -60.34c8.83,-5.09 8.83,-17.84 0,-22.94l-248.76 -143.62c-4.1,-2.37 -9.15,-2.37 -13.25,0l-104.5 60.34c-8.83,5.09 -8.83,17.84 0,22.94z"/>
   <path class="fil0" d="M677.06 644.73l248.76 -143.62c8.83,-5.1 8.83,-17.84 0,-22.94l-104.51 -60.34c-4.1,-2.36 -9.15,-2.36 -13.25,0l-248.75 143.62c-8.83,5.1 -8.83,17.84 0,22.94l104.5 60.34c4.1,2.36 9.15,2.36 13.25,0z"/>
   <g>
    <path class="fil3" d="M1268.9 490.61l-32.62 -18.83c5.26,-2.9 10.71,-5.84 20,-10.86l0 0c5.39,12.6 9.38,21.93 12.62,29.69z"/>
    <path class="fil4" d="M621.38 497.5l-30.03 17.34 0.03 -0.63 0.78 -3.75c12.34,-23.49 12.6,-23.9 29.34,-49.9l0 0c-0.38,18.36 -0.55,26.68 -0.12,36.94z"/>
    <path class="fil5" d="M1317.75 518.81l-33.34 -19.25c-4.25,-10.85 -9.24,-22.4 -18.59,-44 13.6,-7.86 13.6,-7.86 23.14,-13.22l0 0c16.17,38.45 16.66,39.61 28.79,76.47z"/>
    <path class="fil6" d="M1315.31 478.39c3,9.86 5.6,19.9 7.78,30.1 -0.25,1.95 -0.75,4.1 -1.8,8.5l0 0c-12.6,-38.58 -12.6,-38.58 -28.92,-76.79 4.08,-2.86 4.08,-2.86 5.77,-4.29l0 0c9.59,22.56 12.61,29.64 17.17,42.48z"/>
    <path class="fil7" d="M593.71 503.38c6.82,-29.82 17.2,-58.29 30.68,-84.91l8 -12.55 0 0c-6.13,21.78 -6.13,21.78 -10.21,49.29l0 0c-16.65,25.35 -17.33,26.39 -28.47,48.17z"/>
    <path class="fil8" d="M698.15 453.17l-63.89 36.89c-1.19,-14.99 -1.19,-22.2 -1.19,-44.87 24.85,-28.91 24.85,-28.91 54.47,-57.48l0 0c3.53,30.33 3.73,32.05 10.61,65.46z"/>
    <path class="fil9" d="M1140.27 416.34l-41.98 -24.23 22.18 -7.97 0 0c8.51,13.76 14.7,23.79 19.8,32.2zm-102.59 -0.46l-6.5 3.9 -0.57 -1.01 7.07 -2.89z"/>
    <path class="fil10" d="M1226.45 466.1l-49.46 -28.56c-9.71,-17.42 -16.88,-28.94 -36.1,-59.84 32.35,-8.57 32.35,-8.57 58.22,-13.56l0 0c27.91,42.5 27.91,42.5 53.09,88.56l0 0c-12.62,6.52 -18.26,9.43 -25.75,13.4z"/>
    <path class="fil11" d="M1289.3 433.77c4.43,-2.5 4.43,-2.5 6.47,-3.22l0 0c-17.02,-31.05 -17.02,-31.05 -36.09,-59.63l0 0c-5.1,-3.93 -5.1,-3.93 -12.59,-6.78l0 0c22.12,33.21 22.12,33.21 42.21,69.63z"/>
    <path class="fil12" d="M1210.68 362.34c27.23,40.73 27.23,40.73 51.39,85.01l0 0c13.96,-6.78 13.96,-6.78 23.48,-12.15l0 0c-20.76,-37.5 -20.76,-37.5 -44.25,-72.49l0 0c-7.13,-0.59 -10.33,-0.86 -14.73,-0.86l0 0c-3.58,0 -7.96,0.18 -15.89,0.49z"/>
    <path class="fil13" d="M642.61 392c-5.45,21.06 -5.45,21.06 -9.2,48.2l0 0c24.51,-28.57 24.51,-28.57 53.78,-57.13l0 0c0.35,-24.3 0.35,-24.3 2.39,-42.5l0 0c-25.19,25.35 -25.19,25.35 -46.97,51.43z"/>
    <path class="fil14" d="M931.12 453.48l-74 -42.82 -17.1 -35.1c49.7,-25 49.7,-25 99.73,-46.07l0 0c27.21,42.14 27.21,42.14 57.51,92.5l0 0c-34.72,16.15 -47.02,21.87 -66.14,31.49z"/>
    <path class="fil15" d="M738.79 429.71l-18.77 10.84c-9,-37.14 -9.1,-37.72 -14.1,-68.56 36.76,-27.85 36.76,-27.85 76.58,-53.21l0 0c11.57,28.22 11.57,28.22 27.23,64.64l0 0c-38.81,24.07 -45.31,28.11 -70.94,46.29z"/>
    <path class="fil16" d="M648.35 377.77c14.56,-21.49 31.29,-41.39 49.89,-59.37 -3.93,6.9 -4.25,7.91 -7.98,19.65l0 0c-25.2,25.01 -25.2,25.01 -46.64,50.72l0 0c2.1,-4.96 3.51,-8.33 4.73,-11z"/>
    <path class="fil17" d="M1243.01 358.77c8.17,3.23 8.17,3.23 13.27,7.51l0 0c-5.78,-7.51 -6.12,-7.86 -11.91,-14.64l0 0c-10.89,-13.21 -22.8,-25.72 -35.06,-37.5l0 0c-6.81,-5.37 -7.14,-5.37 -15.66,-10.36l0 0c25.19,25.36 25.19,25.36 49.36,54.99z"/>
    <path class="fil18" d="M965.95 319.85c28.59,41.07 28.59,41.07 59.23,90l0 0c47.65,-19.28 47.65,-19.28 89.85,-33.92l0 0c-31.65,-43.58 -31.65,-43.58 -62.29,-79.65l0 0c-41.18,9.64 -41.18,9.64 -86.79,23.57z"/>
    <path class="fil19" d="M1205.91 355.93c18.05,-0.37 18.05,-0.37 31.32,1.06l0 0c-25.19,-30.71 -25.19,-30.71 -51.39,-56.78l0 0c-16.69,-5.36 -16.69,-5.36 -37.11,-9.28l0 0c28.59,29.63 28.59,29.63 57.18,65z"/>
    <path class="fil20" d="M1073.17 292.71c30.96,35 30.96,35 62.28,77.14l0 0c32.34,-8.22 32.34,-8.22 58.55,-12.86l0 0c-29.28,-36.43 -29.28,-36.43 -58.88,-67.14l0 0c-28.26,0 -28.26,0 -61.95,2.86z"/>
    <path class="fil21" d="M704.89 327c-1.03,17.14 -1.03,17.14 0.35,40.71l0 0c36.08,-27.86 36.08,-27.86 75.55,-53.22l0 0c-7.49,-19.27 -7.49,-19.27 -11.57,-32.85l0 0c-33.36,21.43 -33.36,21.43 -64.33,45.36z"/>
    <path class="fil22" d="M805.64 305.57c13.28,27.49 13.28,27.49 30.97,62.85l0 0c49.36,-24.28 49.36,-24.28 98.37,-45l0 0c-23.48,-31.78 -23.48,-31.78 -43.22,-55.34l0 0c-43.24,16.78 -43.24,16.78 -86.12,37.49z"/>
    <path class="fil23" d="M712.49 305.3l3.69 -3.16c22.13,-17.32 23.36,-18.12 49.64,-35.15l0 0c0.69,4.66 0.69,4.66 2.72,12.87l0 0c-32.68,21.07 -32.68,21.07 -62.97,44.64l0 0c3,-11.56 3.06,-11.78 6.92,-19.2z"/>
    <path class="fil24" d="M1189.23 299.86c8.51,4.64 8.51,4.99 15.31,10.34l0 0c-18.7,-17.13 -39.14,-32.14 -60.91,-44.99l0 0c-2.05,-1.07 -2.05,-1.07 -4.43,-2.5l0 0c24.51,16.44 24.51,16.44 50.03,37.15z"/>
    <path class="fil25" d="M1135.12 260.57c1.35,0.71 1.35,0.71 2.38,1.07l0 0c-2.38,-1.43 -4.77,-2.85 -7.49,-3.92l0 0c2.37,1.07 2.37,1.07 5.11,2.85z"/>
    <path class="fil26" d="M1143.63 286.64c21.09,3.93 21.09,3.93 37.77,9.29l0 0c-25.87,-21.07 -25.87,-21.07 -51.39,-37.5l0 0c-18.72,-7.14 -18.72,-7.14 -41.52,-12.86l0 0c26.88,17.86 26.88,17.86 55.14,41.07z"/>
    <path class="fil27" d="M914.9 260.21c21.44,22.85 21.44,22.85 46.29,53.58l0 0c45.27,-13.58 45.27,-13.58 86.45,-22.86l0 0c-28.24,-27.15 -28.24,-27.15 -53.77,-47.14l0 0c-38.13,6.07 -38.13,6.07 -78.97,16.42z"/>
    <path class="fil28" d="M1013.6 241.99c26.21,19.29 26.21,19.29 54.8,45.72l0 0c33.36,-2.85 33.36,-2.85 61.61,-2.51l0 0c-28.25,-23.56 -28.25,-23.56 -55.48,-41.78l0 0c-18.11,-1.36 -24.76,-1.85 -35.42,-1.85l0 0c-6.16,0 -13.66,0.17 -25.51,0.42z"/>
    <path class="fil29" d="M787.93 270.93c6.48,12.51 6.48,12.51 15.67,31.07l0 0c42.21,-20.71 42.21,-20.71 85.08,-37.5l0 0c-15.64,-15.36 -15.64,-15.36 -28.24,-24.99l0 0c-36.42,13.92 -36.42,13.92 -72.51,31.42z"/>
    <path class="fil30" d="M781.81 258.07c1.7,3.93 1.7,3.93 5.45,11.06l0 0c35.4,-17.13 35.4,-17.13 71.47,-30.71l0 0c-9.52,-4.63 -9.52,-4.63 -17.02,-6.06l0 0c-30.29,11.43 -30.29,11.43 -59.9,25.71z"/>
    <path class="fil31" d="M1084.06 243.08c22.8,5.7 22.8,5.7 41.87,12.84l0 0c-10.56,-5.71 -10.56,-5.71 -20.44,-10.35l0 0c-15.99,-7.15 -32.32,-13.21 -49.35,-17.85l0 0c-9.17,-2.51 -9.17,-2.51 -18.71,-4.65l0 0c22.47,8.22 22.47,8.22 46.63,20.01z"/>
    <path class="fil32" d="M1034.03 222.36c7.14,1.42 7.14,1.42 13.95,2.85l0 0c-5.98,-1.36 -11.75,-2.72 -17.63,-3.93l0 0c0.9,0.25 1.99,0.57 3.68,1.08z"/>
    <path class="fil33" d="M880.17 233.43c14.31,9.28 14.31,9.28 31.66,23.92l0 0c40.16,-10.35 40.16,-10.35 78.29,-16.42l0 0c-22.12,-12.87 -22.12,-12.87 -40.85,-20.71l0 0c-33.69,4.99 -33.69,4.99 -69.1,13.21z"/>
    <path class="fil34" d="M1030.35 221.28c-1.64,-0.44 -2.65,-0.6 -5.51,-1.06l0 0c1.85,0.33 3.69,0.69 5.51,1.06z"/>
    <path class="fil35" d="M966.63 218.79c19.74,7.85 19.74,7.85 42.89,20.36l0 0c32.32,-0.73 32.32,-0.73 60.59,1.78l0 0c-24.17,-12.15 -24.17,-12.15 -46.29,-20l0 0c-19.69,-1.81 -25.15,-2.32 -37.97,-2.32l0 0c-4.91,0 -10.92,0.08 -19.22,0.18z"/>
    <path class="fil36" d="M916.39 215.7l1.22 -0.12c12.61,0.35 12.75,0.37 28.61,3.57l0 0c-33.36,4.99 -33.36,4.99 -68.09,13.21l0 0c-11.23,-4.3 -11.23,-4.3 -19.73,-5.35 29.63,-7.08 29.94,-7.15 57.99,-11.31z"/>
    <path class="fil37" d="M934.68 214.14l0.27 -0.02 0.32 -0.01 0.31 -0.02 0.31 -0.01 0.32 -0.02 0.31 -0.01 0.32 -0.02 0.31 -0.02 0.32 -0.02 4.72 -0.23 0.33 -0.01 0.31 -0.01 0.32 -0.02 0.31 -0.01 0.32 -0.01c4.53,-0.16 9.09,-0.27 13.67,-0.27l1.02 0 0.76 0.01 0.77 0.01 0.77 0.01c14.54,0.21 29.06,1.28 43.3,3.19l0 0c8.17,1.42 8.17,1.42 16.34,3.21l0 0c-27.24,-2.15 -27.24,-2.15 -56.84,-2.15l0 0c-15.64,-3.19 -15.66,-3.2 -28.89,-3.57z"/>
    <path class="fil38" d="M1324.6 515.84c0.49,2.57 0.96,5.15 1.41,7.74l-2.69 -1.55c0.64,-2.83 1.05,-4.66 1.28,-6.19z"/>
   </g>
   <path class="fil39" d="M1052.7 545.12l28.29 42.52c-436.06,370.09 -556.02,101.47 -460.02,-162.51 -226.01,570.17 278.27,529.45 493.84,213.37l28.73 38.68 85.7 -184.12 -176.54 52.06z"/>
   <path class="fil40" d="M952.32 834.26l0 -0.01 -0.01 0 -0.01 0 0 0.01 -0.05 0.02 -0.05 -0.02 0 -0.01 -0.01 0 0 0 0 0.01 -0.18 0.09 0 0.07 -137.32 79.29 -137.62 -79.46 0 53.52c-6.89,-1.78 -13.92,-4.23 -21.1,-7.4l-17.65 -9.57c-9.17,-7.59 -1.83,-13.92 -17.49,-25.07 0,0 -10.26,-10.21 -11.31,-17.98 0,0 -13.6,0.76 -1.33,17.18 0,0 -9.3,-2.46 -9.58,-20.12 -0.28,-17.65 -5.3,-25.78 -11.1,-23.81l-0.79 7.44c0,0 -5.06,-14.4 -12.93,-9.84 6.32,20.25 12.8,39.84 22.65,56.99 159.55,277.67 548.05,253.63 710.96,13.53 -0.65,1.31 15.46,-27.4 23.32,-70.52 -7.87,-4.56 -12.94,9.84 -12.94,9.84l-0.78 -7.44c-5.81,-1.97 -10.82,6.16 -11.11,23.81 -0.27,17.66 -9.58,20.12 -9.58,20.12 12.27,-16.42 -1.33,-17.18 -1.33,-17.18 -1.05,7.77 -11.3,17.98 -11.3,17.98 -15.67,11.15 -8.32,17.48 -17.49,25.07l-17.66 9.57c-7.18,3.17 -14.21,5.62 -21.1,7.4l0 -53.52 -137.61 79.46 -137.33 -79.29 0 -0.07 -0.17 -0.09z"/>
   <path class="fil41" d="M2380.78 994.62l0 -667.41 54.27 -35.89 155.57 0 0 547.72 271.69 0c-3.75,39.89 -22.18,69.01 -51.98,88.73l-54.27 35.9c-0.25,0.17 -0.52,0.33 -0.78,0.5 -0.14,0.08 -0.28,0.18 -0.43,0.26 -39.43,25.51 -98.3,34.91 -169.24,31.27l-204.83 -1.08zm-605 -18.32c-0.07,0.05 -0.15,0.1 -0.23,0.15 -26.81,17.64 -65.61,26.45 -116.32,26.45l-41.43 0c-65.97,0 -111.23,-11.2 -135.93,-33.75 -24.71,-22.4 -37.13,-63.98 -37.13,-124.58l0 -72.73 54.27 -35.9 143.29 0 0 64.75c0,17.34 3.53,29.61 10.44,36.82 5.57,5.83 14.27,9.25 26.15,10.35 0.39,-4 0.59,-8.37 0.59,-13.12l0 -47.25c0,-14.27 -0.92,-25 -2.76,-31.91 -1.69,-6.9 -4.76,-13.04 -8.9,-18.41 -10.28,-12.28 -33.75,-22.55 -70.58,-30.53 -16.88,-3.69 -29.91,-6.75 -39.12,-9.52 -43.27,-12.27 -72.87,-29.45 -89.14,-51.55 -16.11,-22.09 -24.24,-56.77 -24.24,-104.18l0 -61.67c0,-59.84 11.66,-101.57 34.83,-125.35 4.16,-4.25 8.88,-8.11 14.14,-11.6l54.27 -35.9c24.03,-15.89 59.51,-23.84 106.45,-23.84l46.02 0c35.9,0 65.36,3.07 88.53,9.21 23.01,6.13 41.11,15.95 54.31,29.46 10.59,10.43 17.8,23.78 22.1,40.04 4.14,16.11 6.28,42.04 6.28,77.63l0 51.71 -54.26 35.9 -137.93 0 0 -41.74c0,-21.02 -2.76,-34.98 -8.29,-41.88 -4.19,-5.11 -11.42,-8.28 -21.84,-9.59 -0.2,2.9 -0.3,5.99 -0.3,9.29l0 43.11c0,32.68 27.92,56 83.77,70.11 15.81,4.3 28.39,7.68 37.75,10.44 42.8,11.96 72.26,28.84 88.22,50.32 16.11,21.63 24.09,55.85 24.09,102.64l0 89.91c0,55.85 -13.2,95.89 -39.74,120.59 -3.98,3.68 -8.34,7.08 -13.06,10.21l-54.3 35.91zm447.33 17.98l-0.5 0.34 -249.48 0 -92.97 -667.41 54.27 -35.89 160.01 0 32.12 329.01 29.46 -293.12 54.27 -35.89 160.47 0 -93.89 667.4 -53.76 35.56z"/>
   <g>
    <path class="fil42" d="M1588.04 771.84l0 64.75c0,17.34 3.53,29.61 10.43,36.82 6.9,7.21 18.57,10.74 35.14,10.74 17.95,0 30.07,-3.38 36.36,-10.28 6.29,-6.91 9.51,-19.94 9.51,-39.13l0 -47.25c0,-14.27 -0.92,-25 -2.76,-31.91 -1.69,-6.9 -4.76,-13.04 -8.9,-18.41 -10.28,-12.28 -33.75,-22.55 -70.58,-30.53 -16.88,-3.69 -29.91,-6.75 -39.12,-9.52 -43.27,-12.27 -72.87,-29.45 -89.14,-51.55 -16.11,-22.09 -24.24,-56.77 -24.24,-104.18l0 -61.67c0,-59.84 11.66,-101.57 34.83,-125.35 23.16,-23.62 63.36,-35.44 120.59,-35.44l46.02 0c35.91,0 65.36,3.07 88.53,9.2 23.02,6.14 41.12,15.96 54.32,29.46 10.58,10.44 17.79,23.79 22.09,40.05 4.14,16.11 6.29,42.04 6.29,77.63l0 51.71 -137.93 0 0 -41.74c0,-21.02 -2.76,-34.98 -8.29,-41.88 -5.67,-6.91 -16.87,-10.28 -34.06,-10.28 -16.57,0 -27.77,3.22 -33.6,9.66 -5.83,6.45 -8.74,18.42 -8.74,36.21l0 43.12c0,32.67 27.92,56 83.77,70.11 15.8,4.3 28.38,7.67 37.74,10.43 42.81,11.97 72.27,28.84 88.22,50.33 16.11,21.63 24.09,55.84 24.09,102.64l0 89.91c0,55.85 -13.2,95.88 -39.74,120.59 -26.54,24.55 -69.81,36.82 -129.64,36.82l-41.43 0c-65.97,0 -111.23,-11.2 -135.93,-33.75 -24.71,-22.4 -37.13,-63.98 -37.13,-124.58l0 -72.73 143.3 0z"/>
    <g style="clip-path:url(#id0)">
     <g>
     </g>
     <g style="clip-path:url(#id1)">
      <image id="Fedora_20_with_GNOME.png" x="1424.45" y="266.08" width="1403.88" height="789.68" xlink:href="SVL Logo_Images\SVL Logo_ImgID1.jpg"/>
     </g>
     <g style="clip-path:url(#id2)">
     </g>
    </g>
    <path class="fil43" d="M1588.04 771.84l0 64.75c0,17.34 3.53,29.61 10.43,36.82 6.9,7.21 18.57,10.74 35.14,10.74 17.95,0 30.07,-3.38 36.36,-10.28 6.29,-6.91 9.51,-19.94 9.51,-39.13l0 -47.25c0,-14.27 -0.92,-25 -2.76,-31.91 -1.69,-6.9 -4.76,-13.04 -8.9,-18.41 -10.28,-12.28 -33.75,-22.55 -70.58,-30.53 -16.88,-3.69 -29.91,-6.75 -39.12,-9.52 -43.27,-12.27 -72.87,-29.45 -89.14,-51.55 -16.11,-22.09 -24.24,-56.77 -24.24,-104.18l0 -61.67c0,-59.84 11.66,-101.57 34.83,-125.35 23.16,-23.62 63.36,-35.44 120.59,-35.44l46.02 0c35.91,0 65.36,3.07 88.53,9.2 23.02,6.14 41.12,15.96 54.32,29.46 10.58,10.44 17.79,23.79 22.09,40.05 4.14,16.11 6.29,42.04 6.29,77.63l0 51.71 -137.93 0 0 -41.74c0,-21.02 -2.76,-34.98 -8.29,-41.88 -5.67,-6.91 -16.87,-10.28 -34.06,-10.28 -16.57,0 -27.77,3.22 -33.6,9.66 -5.83,6.45 -8.74,18.42 -8.74,36.21l0 43.12c0,32.67 27.92,56 83.77,70.11 15.8,4.3 28.38,7.67 37.74,10.43 42.81,11.97 72.27,28.84 88.22,50.33 16.11,21.63 24.09,55.84 24.09,102.64l0 89.91c0,55.85 -13.2,95.88 -39.74,120.59 -26.54,24.55 -69.81,36.82 -129.64,36.82l-41.43 0c-65.97,0 -111.23,-11.2 -135.93,-33.75 -24.71,-22.4 -37.13,-63.98 -37.13,-124.58l0 -72.73 143.3 0z"/>
    <polygon class="fil44" points="1973.13,994.62 1880.16,327.21 2040.18,327.21 2097.25,911.92 2156.02,327.21 2316.5,327.21 2222.61,994.62 "/>
    <g style="clip-path:url(#id3)">
     <g>
     </g>
     <g style="clip-path:url(#id4)">
      <image id="Fedora_20_with_GNOME.png_0" x="1424.45" y="266.08" width="1403.88" height="789.68" xlink:href="SVL Logo_Images\SVL Logo_ImgID2.jpg"/>
     </g>
     <g style="clip-path:url(#id5)">
     </g>
    </g>
    <polygon class="fil43" points="1973.13,994.62 1880.16,327.21 2040.18,327.21 2097.25,911.92 2156.02,327.21 2316.5,327.21 2222.61,994.62 "/>
    <path class="fil45" d="M2380.78 994.62l0 -667.41 155.58 0 0 547.73 271.68 0c-8.71,92.66 -96.62,127.23 -222.43,120.76l-204.83 -1.08z"/>
    <g style="clip-path:url(#id6)">
     <g>
     </g>
     <g style="clip-path:url(#id7)">
      <image id="Fedora_20_with_GNOME.png_1" x="1424.45" y="266.08" width="1403.88" height="789.68" xlink:href="SVL Logo_Images\SVL Logo_ImgID3.jpg"/>
     </g>
     <g style="clip-path:url(#id8)">
     </g>
    </g>
    <path class="fil43" d="M2380.78 994.62l0 -667.41 155.58 0 0 547.73 271.68 0c-8.71,92.66 -96.62,127.23 -222.43,120.76l-204.83 -1.08z"/>
   </g>
  </g>
 </g>
</svg>
