<?xml version="1.0" encoding="utf-8"?>
<!-- Generator: Adobe Illustrator 27.6.1, SVG Export Plug-In . SVG Version: 6.00 Build 0)  -->
<svg version="1.1" id="Layer_1" xmlns="http://www.w3.org/2000/svg" xmlns:xlink="http://www.w3.org/1999/xlink" x="0px" y="0px"
	 viewBox="0 0 132 36" style="enable-background:new 0 0 132 36;" xml:space="preserve">
<style type="text/css">
	.st0{fill:#FFFFFF;}
	.st1{fill-rule:evenodd;clip-rule:evenodd;fill:#FFFFFF;}
	.st2{fill-rule:evenodd;clip-rule:evenodd;fill:url(#SVGID_1_);}
	.st3{fill-rule:evenodd;clip-rule:evenodd;fill:url(#SVGID_00000068662822810197812500000006349985968560470193_);}
	.st4{fill-rule:evenodd;clip-rule:evenodd;fill:url(#SVGID_00000071525516766374839660000016166804207450404528_);}
	.st5{fill-rule:evenodd;clip-rule:evenodd;fill:url(#SVGID_00000151519760871071527940000017469273177154864564_);}
	.st6{fill-rule:evenodd;clip-rule:evenodd;fill:url(#SVGID_00000153666365625892597730000005943109008867309975_);}
	.st7{fill-rule:evenodd;clip-rule:evenodd;fill:url(#SVGID_00000124159172250107837800000009143816429987761051_);}
	.st8{fill-rule:evenodd;clip-rule:evenodd;fill:url(#SVGID_00000066490008740195592100000000671572641315447969_);}
	.st9{fill-rule:evenodd;clip-rule:evenodd;fill:url(#SVGID_00000052793588881850817310000005391748642842475707_);}
	.st10{fill-rule:evenodd;clip-rule:evenodd;fill:url(#SVGID_00000089570955936342785520000017198720772728415625_);}
	.st11{fill-rule:evenodd;clip-rule:evenodd;fill:url(#SVGID_00000159459307046442504470000000755833942668316056_);}
	.st12{fill-rule:evenodd;clip-rule:evenodd;fill:url(#SVGID_00000137842255232459546620000008005884158023101597_);}
	.st13{fill-rule:evenodd;clip-rule:evenodd;fill:url(#SVGID_00000053527424274427944560000017859378103596672153_);}
	.st14{fill-rule:evenodd;clip-rule:evenodd;fill:url(#SVGID_00000172399869501395677540000012846962076725657750_);}
	.st15{fill-rule:evenodd;clip-rule:evenodd;fill:url(#SVGID_00000181800580182929311800000003534549768500986242_);}
	.st16{fill-rule:evenodd;clip-rule:evenodd;fill:url(#SVGID_00000011005676114438747780000007424281287973291415_);}
	.st17{fill-rule:evenodd;clip-rule:evenodd;fill:url(#SVGID_00000017474409611579558500000012289094698385097871_);}
	.st18{fill-rule:evenodd;clip-rule:evenodd;fill:url(#SVGID_00000090292590344500368300000008301520783372558521_);}
	.st19{fill-rule:evenodd;clip-rule:evenodd;fill:url(#SVGID_00000027591261379258977010000001748778206127941531_);}
	.st20{fill-rule:evenodd;clip-rule:evenodd;fill:url(#SVGID_00000106123190525693928670000015887297893404613506_);}
	.st21{fill-rule:evenodd;clip-rule:evenodd;fill:url(#SVGID_00000103244577854248594600000009059384142600749196_);}
	.st22{fill-rule:evenodd;clip-rule:evenodd;fill:url(#SVGID_00000159461504228582206610000006572944656567625115_);}
	.st23{fill-rule:evenodd;clip-rule:evenodd;fill:url(#SVGID_00000164497477166423307890000002807030749144372356_);}
	.st24{fill-rule:evenodd;clip-rule:evenodd;fill:url(#SVGID_00000168838906555597574470000007184231229657706114_);}
	.st25{fill-rule:evenodd;clip-rule:evenodd;fill:url(#SVGID_00000165920871505602683920000006269242881520183186_);}
	.st26{fill-rule:evenodd;clip-rule:evenodd;fill:url(#SVGID_00000088098390441110563740000008185769744042810016_);}
	.st27{fill-rule:evenodd;clip-rule:evenodd;fill:url(#SVGID_00000090293382965927222480000001504478581111766463_);}
	.st28{fill-rule:evenodd;clip-rule:evenodd;fill:url(#SVGID_00000028294730304981017890000005457342530423905924_);}
	.st29{fill-rule:evenodd;clip-rule:evenodd;fill:url(#SVGID_00000062188539665801801770000007203896008606838674_);}
	.st30{fill-rule:evenodd;clip-rule:evenodd;fill:url(#SVGID_00000130623133779129478270000011245765270242509498_);}
	.st31{fill-rule:evenodd;clip-rule:evenodd;fill:url(#SVGID_00000116939567802433911160000017466131414238341818_);}
	.st32{fill-rule:evenodd;clip-rule:evenodd;fill:url(#SVGID_00000023250943090429277740000000822754397088452753_);}
	.st33{fill-rule:evenodd;clip-rule:evenodd;fill:url(#SVGID_00000111156917587679411620000012937231023527110840_);}
	.st34{fill-rule:evenodd;clip-rule:evenodd;fill:url(#SVGID_00000066495426740653054090000016353771234571119276_);}
	.st35{fill-rule:evenodd;clip-rule:evenodd;fill:url(#SVGID_00000140727213979681827690000012548168825313345939_);}
	.st36{fill-rule:evenodd;clip-rule:evenodd;fill:url(#SVGID_00000075863624867897604410000005618819033935812496_);}
	.st37{fill-rule:evenodd;clip-rule:evenodd;fill:url(#SVGID_00000106840747571885101060000014653832060422397591_);}
	.st38{fill-rule:evenodd;clip-rule:evenodd;fill:url(#SVGID_00000056414246898074921440000009066702206981887415_);}
	.st39{fill-rule:evenodd;clip-rule:evenodd;fill:#A2D9F7;}
	.st40{clip-path:url(#SVGID_00000124861886408225497920000011327841041441184443_);}
	.st41{clip-path:url(#SVGID_00000026849369611812522020000009252533810374418596_);}
	.st42{fill:none;}
	.st43{clip-path:url(#SVGID_00000062882255190015975450000017722813356388510381_);}
	.st44{clip-path:url(#SVGID_00000001641868128496198660000016536730684511277222_);}
	.st45{clip-path:url(#SVGID_00000150818235398497197540000002107723929309499066_);}
	.st46{clip-path:url(#SVGID_00000104694172849162421240000015854329734673848197_);}
</style>
<g id="Layer_x0020_1">
	<g id="_2368908160512">
		<g>
			<path class="st0" d="M77,11h1c0.3,0,0.5-0.1,0.6-0.2s0.2-0.3,0.2-0.6c0-0.2-0.1-0.4-0.2-0.6c-0.1-0.1-0.3-0.2-0.6-0.2h-1V11z
				 M75.5,14.5V8.3h2.6c0.7,0,1.2,0.2,1.5,0.5c0.4,0.3,0.5,0.8,0.5,1.4c0,0.7-0.2,1.2-0.5,1.5c-0.3,0.4-0.8,0.5-1.5,0.5H77v2.2
				C77,14.5,75.5,14.5,75.5,14.5z M83.1,12.3c-0.1,0.1-0.3,0.1-0.6,0.2c-0.1,0-0.2,0.1-0.3,0.1c-0.2,0.1-0.3,0.1-0.4,0.2
				c-0.1,0.1-0.1,0.2-0.1,0.3c0,0.2,0,0.3,0.1,0.4c0.1,0.1,0.2,0.1,0.4,0.1c0.2,0,0.4-0.1,0.6-0.2c0.2-0.1,0.2-0.3,0.2-0.6
				C83.1,12.8,83.1,12.3,83.1,12.3z M84.7,14.5h-1.4c0-0.1,0-0.1,0-0.2c0-0.1,0-0.2,0-0.2c-0.2,0.2-0.4,0.4-0.6,0.5
				c-0.2,0.1-0.5,0.2-0.7,0.2c-0.4,0-0.7-0.1-1-0.4c-0.2-0.2-0.4-0.6-0.4-1c0-0.4,0.1-0.7,0.3-0.9c0.2-0.2,0.5-0.4,0.8-0.5
				c0.2-0.1,0.5-0.1,0.8-0.2c0.5-0.1,0.7-0.2,0.7-0.4v-0.1c0-0.1,0-0.2-0.1-0.3c-0.1-0.1-0.2-0.1-0.4-0.1c-0.2,0-0.4,0-0.5,0.1
				c-0.1,0.1-0.2,0.2-0.2,0.4h-1.3c0.1-0.5,0.3-0.9,0.6-1.2c0.3-0.3,0.8-0.4,1.4-0.4c0.4,0,0.7,0,1,0.1c0.3,0.1,0.5,0.2,0.6,0.4
				c0.1,0.1,0.2,0.3,0.2,0.5c0,0.2,0.1,0.5,0.1,1v1.7c0,0.2,0,0.4,0.1,0.5c0,0.1,0.1,0.2,0.2,0.2L84.7,14.5L84.7,14.5z M89.3,12.8
				c-0.1,0.6-0.3,1-0.7,1.4c-0.4,0.3-0.8,0.5-1.4,0.5c-0.6,0-1.1-0.2-1.5-0.7c-0.4-0.4-0.6-1-0.6-1.7c0-0.8,0.2-1.4,0.6-1.8
				c0.4-0.4,0.9-0.7,1.6-0.7c0.6,0,1.1,0.2,1.4,0.5c0.4,0.3,0.6,0.8,0.6,1.3h-1.4c0-0.2-0.1-0.4-0.2-0.5c-0.1-0.1-0.2-0.2-0.4-0.2
				c-0.2,0-0.4,0.1-0.5,0.3c-0.1,0.2-0.2,0.5-0.2,1c0,0.4,0.1,0.7,0.2,0.9c0.1,0.2,0.3,0.3,0.5,0.3c0.2,0,0.3-0.1,0.4-0.2
				c0.1-0.1,0.2-0.3,0.2-0.5C88,12.8,89.3,12.8,89.3,12.8z M90,14.5V8.3h1.4v3.2l1.3-1.6h1.6l-1.5,1.7l1.5,2.8h-1.5l-0.9-1.8
				l-0.5,0.6v1.2C91.4,14.5,90,14.5,90,14.5z M97.3,12.3c-0.1,0.1-0.3,0.1-0.6,0.2c-0.1,0-0.2,0.1-0.3,0.1c-0.2,0.1-0.3,0.1-0.4,0.2
				C96,12.9,96,13,96,13.1c0,0.2,0,0.3,0.1,0.4c0.1,0.1,0.2,0.1,0.4,0.1c0.2,0,0.4-0.1,0.6-0.2c0.2-0.1,0.2-0.3,0.2-0.6
				C97.3,12.8,97.3,12.3,97.3,12.3z M98.8,14.5h-1.4c0-0.1,0-0.1,0-0.2c0-0.1,0-0.2,0-0.2c-0.2,0.2-0.4,0.4-0.6,0.5
				c-0.2,0.1-0.5,0.2-0.7,0.2c-0.4,0-0.7-0.1-1-0.4c-0.2-0.2-0.4-0.6-0.4-1c0-0.4,0.1-0.7,0.3-0.9c0.2-0.2,0.5-0.4,0.8-0.5
				c0.2-0.1,0.5-0.1,0.8-0.2c0.5-0.1,0.7-0.2,0.7-0.4v-0.1c0-0.1,0-0.2-0.1-0.3c-0.1-0.1-0.2-0.1-0.4-0.1c-0.2,0-0.4,0-0.5,0.1
				c-0.1,0.1-0.2,0.2-0.2,0.4h-1.3c0.1-0.5,0.3-0.9,0.6-1.2c0.3-0.3,0.8-0.4,1.4-0.4c0.4,0,0.7,0,1,0.1c0.3,0.1,0.5,0.2,0.6,0.4
				c0.1,0.1,0.2,0.3,0.2,0.5c0,0.2,0.1,0.5,0.1,1v1.7c0,0.2,0,0.4,0.1,0.5c0,0.1,0.1,0.2,0.2,0.2C98.8,14.3,98.8,14.5,98.8,14.5z
				 M99.6,14.9h1.4c0,0.1,0.1,0.2,0.2,0.3c0.1,0.1,0.2,0.1,0.4,0.1c0.3,0,0.5-0.1,0.6-0.2c0.1-0.1,0.2-0.4,0.2-0.8v-0.5
				c-0.2,0.2-0.3,0.4-0.6,0.6c-0.2,0.1-0.5,0.2-0.8,0.2c-0.5,0-0.9-0.2-1.3-0.7c-0.3-0.4-0.5-1-0.5-1.7c0-0.7,0.2-1.3,0.5-1.7
				c0.3-0.4,0.8-0.7,1.3-0.7c0.3,0,0.6,0.1,0.8,0.2c0.2,0.1,0.4,0.3,0.6,0.6V9.9h1.3v3.8c0,0.6,0,1-0.1,1.2c0,0.2-0.1,0.4-0.2,0.6
				c-0.2,0.3-0.4,0.5-0.7,0.6c-0.3,0.1-0.7,0.2-1.1,0.2c-0.6,0-1.1-0.1-1.5-0.4C99.8,15.7,99.6,15.4,99.6,14.9z M100.8,12.2
				c0,0.4,0.1,0.7,0.2,0.9c0.1,0.2,0.3,0.3,0.6,0.3c0.3,0,0.5-0.1,0.6-0.3c0.1-0.2,0.2-0.5,0.2-0.9c0-0.4-0.1-0.7-0.2-0.9
				c-0.1-0.2-0.3-0.3-0.6-0.3c-0.3,0-0.5,0.1-0.6,0.3C100.8,11.5,100.8,11.8,100.8,12.2z M104.7,9.5V8.3h1.4v1.2H104.7z M104.7,14.5
				V9.9h1.4v4.6H104.7z M107.1,14.5V9.9h1.4v0.6c0.1-0.3,0.3-0.4,0.5-0.6c0.2-0.1,0.5-0.2,0.8-0.2c0.5,0,0.9,0.1,1.1,0.4
				c0.2,0.3,0.3,0.7,0.3,1.3v3h-1.4v-2.3c0-0.5,0-0.9-0.1-1c-0.1-0.1-0.2-0.2-0.5-0.2c-0.2,0-0.4,0.1-0.5,0.3
				c-0.1,0.2-0.2,0.5-0.2,0.8v2.5C108.5,14.5,107.1,14.5,107.1,14.5z M112.1,14.9h1.4c0,0.1,0.1,0.2,0.2,0.3
				c0.1,0.1,0.2,0.1,0.4,0.1c0.3,0,0.5-0.1,0.6-0.2c0.1-0.1,0.2-0.4,0.2-0.8v-0.5c-0.2,0.2-0.3,0.4-0.6,0.6
				c-0.2,0.1-0.5,0.2-0.8,0.2c-0.5,0-0.9-0.2-1.3-0.7c-0.3-0.4-0.5-1-0.5-1.7c0-0.7,0.2-1.3,0.5-1.7c0.3-0.4,0.8-0.7,1.3-0.7
				c0.3,0,0.6,0.1,0.8,0.2c0.2,0.1,0.4,0.3,0.6,0.6V9.9h1.3v3.8c0,0.6,0,1-0.1,1.2c0,0.2-0.1,0.4-0.2,0.6c-0.2,0.3-0.4,0.5-0.7,0.6
				c-0.3,0.1-0.7,0.2-1.1,0.2c-0.6,0-1.1-0.1-1.5-0.4C112.4,15.7,112.2,15.4,112.1,14.9z M113.3,12.2c0,0.4,0.1,0.7,0.2,0.9
				c0.1,0.2,0.3,0.3,0.6,0.3c0.3,0,0.5-0.1,0.6-0.3c0.1-0.2,0.2-0.5,0.2-0.9c0-0.4-0.1-0.7-0.2-0.9c-0.1-0.2-0.3-0.3-0.6-0.3
				c-0.3,0-0.5,0.1-0.6,0.3C113.4,11.5,113.3,11.8,113.3,12.2z"/>
			<path class="st0" d="M77,19.3h1c0.3,0,0.5-0.1,0.6-0.2s0.2-0.3,0.2-0.6c0-0.2-0.1-0.4-0.2-0.6c-0.1-0.1-0.3-0.2-0.6-0.2h-1V19.3z
				 M75.5,22.8v-6.2h2.6c0.7,0,1.2,0.2,1.5,0.5c0.4,0.3,0.5,0.8,0.5,1.4c0,0.7-0.2,1.2-0.5,1.5c-0.3,0.4-0.8,0.5-1.5,0.5H77v2.2
				C77,22.8,75.5,22.8,75.5,22.8z M80.9,22.8v-4.6h1.3V19c0.1-0.3,0.3-0.5,0.6-0.7c0.2-0.1,0.5-0.2,0.8-0.2v1.5c-0.1,0-0.1,0-0.2,0
				c-0.1,0-0.1,0-0.2,0c-0.2,0-0.4,0-0.5,0.1c-0.1,0.1-0.3,0.2-0.3,0.3c-0.1,0.1-0.1,0.2-0.1,0.4c0,0.2,0,0.5,0,0.9v1.5L80.9,22.8
				L80.9,22.8z M84.3,17.8v-1.2h1.4v1.2H84.3z M84.3,22.8v-4.6h1.4v4.6C85.7,22.8,84.3,22.8,84.3,22.8z M86.7,22.8v-4.6H88v0.6
				c0.1-0.3,0.3-0.4,0.5-0.6s0.5-0.2,0.8-0.2c0.5,0,0.9,0.1,1.1,0.4c0.2,0.3,0.3,0.7,0.3,1.3v3h-1.4v-2.3c0-0.5,0-0.9-0.1-1
				c-0.1-0.1-0.2-0.2-0.5-0.2c-0.2,0-0.4,0.1-0.5,0.3c-0.1,0.2-0.2,0.5-0.2,0.8v2.5C88.1,22.8,86.7,22.8,86.7,22.8z M91.3,19.1v-0.9
				h0.6v-1.3h1.4v1.3h0.7v0.9h-0.7v2c0,0.3,0,0.5,0.1,0.6c0.1,0.1,0.2,0.1,0.4,0.1c0,0,0.1,0,0.1,0c0,0,0,0,0.1,0v1
				c-0.1,0-0.3,0.1-0.4,0.1c-0.1,0-0.3,0-0.4,0c-0.5,0-0.8-0.1-1-0.4s-0.3-0.8-0.3-1.6v-1.8C91.8,19.1,91.3,19.1,91.3,19.1z
				 M94.6,17.8v-1.2H96v1.2H94.6z M94.6,22.8v-4.6H96v4.6C96,22.8,94.6,22.8,94.6,22.8z M96.9,22.8v-4.6h1.4v0.6
				c0.1-0.3,0.3-0.4,0.5-0.6s0.5-0.2,0.8-0.2c0.5,0,0.9,0.1,1.1,0.4c0.2,0.3,0.3,0.7,0.3,1.3v3h-1.4v-2.3c0-0.5,0-0.9-0.1-1
				c-0.1-0.1-0.2-0.2-0.5-0.2c-0.2,0-0.4,0.1-0.5,0.3c-0.1,0.2-0.2,0.5-0.2,0.8v2.5C98.3,22.8,96.9,22.8,96.9,22.8z M102,23.2h1.4
				c0,0.1,0.1,0.2,0.2,0.3c0.1,0.1,0.2,0.1,0.4,0.1c0.3,0,0.5-0.1,0.6-0.2c0.1-0.1,0.2-0.4,0.2-0.8v-0.5c-0.2,0.2-0.3,0.4-0.6,0.6
				c-0.2,0.1-0.5,0.2-0.8,0.2c-0.5,0-0.9-0.2-1.3-0.7c-0.3-0.4-0.5-1-0.5-1.7c0-0.7,0.2-1.3,0.5-1.7c0.3-0.4,0.8-0.7,1.3-0.7
				c0.3,0,0.6,0.1,0.8,0.2c0.2,0.1,0.4,0.3,0.6,0.6v-0.6h1.3V22c0,0.6,0,1-0.1,1.2c0,0.2-0.1,0.4-0.2,0.6c-0.2,0.3-0.4,0.5-0.7,0.6
				c-0.3,0.1-0.7,0.2-1.1,0.2c-0.6,0-1.1-0.1-1.5-0.4C102.2,24,102,23.7,102,23.2z M103.2,20.5c0,0.4,0.1,0.7,0.2,0.9
				c0.1,0.2,0.3,0.3,0.6,0.3c0.3,0,0.5-0.1,0.6-0.3c0.1-0.2,0.2-0.5,0.2-0.9c0-0.4-0.1-0.7-0.2-0.9c-0.1-0.2-0.3-0.3-0.6-0.3
				c-0.3,0-0.5,0.1-0.6,0.3C103.2,19.8,103.2,20.1,103.2,20.5z"/>
		</g>
		<polygon class="st1" points="27,21 27,23 34.6,18.6 32.8,17.6 27,14.2 		"/>
		<polygon class="st1" points="27,14.2 19.4,18.6 27,23 27,21 		"/>
		<path class="st0" d="M38.1,15.9l-7.1-4.1c-0.1-0.1-0.3-0.1-0.4,0l-3,1.7c-0.3,0.1-0.3,0.5,0,0.7l7.1,4.1c0.1,0.1,0.3,0.1,0.4,0
			l3-1.7C38.4,16.4,38.4,16.1,38.1,15.9z"/>
		<path class="st0" d="M38.1,20.6l-3-1.7c-0.1-0.1-0.3-0.1-0.4,0L27.7,23c-0.3,0.1-0.3,0.5,0,0.7l3,1.7c0.1,0.1,0.3,0.1,0.4,0
			l7.1-4.1C38.4,21.1,38.4,20.8,38.1,20.6z"/>
		<path class="st0" d="M15.9,21.3l7.1,4.1c0.1,0.1,0.3,0.1,0.4,0l3-1.7c0.3-0.1,0.3-0.5,0-0.7l-7.1-4.1c-0.1-0.1-0.3-0.1-0.4,0
			l-3,1.7C15.6,20.8,15.6,21.1,15.9,21.3z"/>
		<path class="st0" d="M19.2,18.3l7.1-4.1c0.3-0.1,0.3-0.5,0-0.7l-3-1.7c-0.1-0.1-0.3-0.1-0.4,0l-7.1,4.1c-0.3,0.1-0.3,0.5,0,0.7
			l3,1.7C18.9,18.3,19.1,18.3,19.2,18.3z"/>
		<g>
			
				<linearGradient id="SVGID_1_" gradientUnits="userSpaceOnUse" x1="31326.918" y1="-18231.4434" x2="31694.0566" y2="-18275.2031" gradientTransform="matrix(2.834645e-02 0 0 -2.834645e-02 -867.6866 -505.1543)">
				<stop  offset="0" style="stop-color:#00376B"/>
				<stop  offset="1" style="stop-color:#00AFEF"/>
			</linearGradient>
			<path class="st2" d="M36,13.9L35,13.4c0.1-0.1,0.3-0.2,0.6-0.3l0,0C35.8,13.4,35.9,13.7,36,13.9z"/>
			
				<linearGradient id="SVGID_00000018925185681614988800000002121299756833349783_" gradientUnits="userSpaceOnUse" x1="31316.3828" y1="-18320.3301" x2="31683.4844" y2="-18364.0801" gradientTransform="matrix(2.834645e-02 0 0 -2.834645e-02 -867.6866 -505.1543)">
				<stop  offset="0" style="stop-color:#00376B"/>
				<stop  offset="1" style="stop-color:#00AFEF"/>
			</linearGradient>
			<path style="fill-rule:evenodd;clip-rule:evenodd;fill:url(#SVGID_00000018925185681614988800000002121299756833349783_);" d="
				M17.6,14.1l-0.9,0.5l0,0l0-0.1c0.3-0.7,0.4-0.7,0.8-1.4l0,0C17.6,13.6,17.6,13.8,17.6,14.1z"/>
			
				<linearGradient id="SVGID_00000135661542603391725870000003519019941841001096_" gradientUnits="userSpaceOnUse" x1="31326.9648" y1="-18231.3945" x2="31694.0742" y2="-18275.1543" gradientTransform="matrix(2.834645e-02 0 0 -2.834645e-02 -867.6866 -505.1543)">
				<stop  offset="0" style="stop-color:#00376B"/>
				<stop  offset="1" style="stop-color:#00AFEF"/>
			</linearGradient>
			<path style="fill-rule:evenodd;clip-rule:evenodd;fill:url(#SVGID_00000135661542603391725870000003519019941841001096_);" d="
				M37.4,14.7l-0.9-0.5c-0.1-0.3-0.3-0.6-0.5-1.2c0.4-0.2,0.4-0.2,0.7-0.4l0,0C37,13.6,37,13.7,37.4,14.7z"/>
			
				<linearGradient id="SVGID_00000057148513595822471700000011018144868606895241_" gradientUnits="userSpaceOnUse" x1="31327.4883" y1="-18226.5781" x2="31694.627" y2="-18270.3398" gradientTransform="matrix(2.834645e-02 0 0 -2.834645e-02 -867.6866 -505.1543)">
				<stop  offset="0" style="stop-color:#00376B"/>
				<stop  offset="1" style="stop-color:#00AFEF"/>
			</linearGradient>
			<path style="fill-rule:evenodd;clip-rule:evenodd;fill:url(#SVGID_00000057148513595822471700000011018144868606895241_);" d="
				M37.3,13.6c0.1,0.3,0.2,0.6,0.2,0.9c0,0.1,0,0.1-0.1,0.2l0,0c-0.4-1.1-0.4-1.1-0.8-2.2c0.1-0.1,0.1-0.1,0.2-0.1l0,0
				C37.1,13,37.2,13.2,37.3,13.6z"/>
			
				<linearGradient id="SVGID_00000088827873764553794030000016294482153428058021_" gradientUnits="userSpaceOnUse" x1="31320.3594" y1="-18286.9668" x2="31687.459" y2="-18330.7266" gradientTransform="matrix(2.834645e-02 0 0 -2.834645e-02 -867.6866 -505.1543)">
				<stop  offset="0" style="stop-color:#00376B"/>
				<stop  offset="1" style="stop-color:#00AFEF"/>
			</linearGradient>
			<path style="fill-rule:evenodd;clip-rule:evenodd;fill:url(#SVGID_00000088827873764553794030000016294482153428058021_);" d="
				M16.8,14.3c0.2-0.8,0.5-1.7,0.9-2.4l0.2-0.4l0,0c-0.2,0.6-0.2,0.6-0.3,1.4l0,0C17.2,13.6,17.1,13.7,16.8,14.3z"/>
			
				<linearGradient id="SVGID_00000143584556768044847950000006222690038117066383_" gradientUnits="userSpaceOnUse" x1="31322.8828" y1="-18265.7988" x2="31689.9434" y2="-18309.5488" gradientTransform="matrix(2.834645e-02 0 0 -2.834645e-02 -867.6866 -505.1543)">
				<stop  offset="0" style="stop-color:#00376B"/>
				<stop  offset="1" style="stop-color:#00AFEF"/>
			</linearGradient>
			<path style="fill-rule:evenodd;clip-rule:evenodd;fill:url(#SVGID_00000143584556768044847950000006222690038117066383_);" d="
				M19.8,12.8l-1.8,1c0-0.4,0-0.6,0-1.3c0.7-0.8,0.7-0.8,1.5-1.6l0,0C19.6,11.8,19.6,11.9,19.8,12.8z"/>
			
				<linearGradient id="SVGID_00000104686656004237782050000000517815978736957573_" gradientUnits="userSpaceOnUse" x1="31333.0508" y1="-18180.6426" x2="31700.1406" y2="-18224.3828" gradientTransform="matrix(2.834645e-02 0 0 -2.834645e-02 -867.6866 -505.1543)">
				<stop  offset="0" style="stop-color:#00376B"/>
				<stop  offset="1" style="stop-color:#00AFEF"/>
			</linearGradient>
			<path style="fill-rule:evenodd;clip-rule:evenodd;fill:url(#SVGID_00000104686656004237782050000000517815978736957573_);" d="
				M32.3,11.8l-1.2-0.7l0.6-0.2l0,0C32,11.3,32.2,11.6,32.3,11.8z M29.4,11.8l-0.2,0.1l0,0C29.2,11.9,29.4,11.8,29.4,11.8z"/>
			
				<linearGradient id="SVGID_00000183233047848547287040000010228382301560902807_" gradientUnits="userSpaceOnUse" x1="31333.4082" y1="-18177.5039" x2="31700.5176" y2="-18221.2637" gradientTransform="matrix(2.834645e-02 0 0 -2.834645e-02 -867.6866 -505.1543)">
				<stop  offset="0" style="stop-color:#00376B"/>
				<stop  offset="1" style="stop-color:#00AFEF"/>
			</linearGradient>
			<path style="fill-rule:evenodd;clip-rule:evenodd;fill:url(#SVGID_00000183233047848547287040000010228382301560902807_);" d="
				M34.8,13.2l-1.4-0.8c-0.3-0.5-0.5-0.8-1-1.7c0.9-0.2,0.9-0.2,1.7-0.4l0,0c0.8,1.2,0.8,1.2,1.5,2.5l0,0C35.1,13,35,13.1,34.8,13.2
				z"/>
			
				<linearGradient id="SVGID_00000176758233059736004140000008472022181777080730_" gradientUnits="userSpaceOnUse" x1="31336.1016" y1="-18155.0664" x2="31703.1914" y2="-18198.8164" gradientTransform="matrix(2.834645e-02 0 0 -2.834645e-02 -867.6866 -505.1543)">
				<stop  offset="0" style="stop-color:#00376B"/>
				<stop  offset="1" style="stop-color:#00AFEF"/>
			</linearGradient>
			<path style="fill-rule:evenodd;clip-rule:evenodd;fill:url(#SVGID_00000176758233059736004140000008472022181777080730_);" d="
				M36.5,12.3c0.1-0.1,0.1-0.1,0.2-0.1l0,0c-0.5-0.9-0.5-0.9-1-1.7l0,0c-0.1-0.1-0.1-0.1-0.4-0.2l0,0C36,11.3,36,11.3,36.5,12.3z"/>
			
				<linearGradient id="SVGID_00000065795875889900081390000009514399148721593743_" gradientUnits="userSpaceOnUse" x1="31335.166" y1="-18162.9941" x2="31702.2441" y2="-18206.7441" gradientTransform="matrix(2.834645e-02 0 0 -2.834645e-02 -867.6866 -505.1543)">
				<stop  offset="0" style="stop-color:#00376B"/>
				<stop  offset="1" style="stop-color:#00AFEF"/>
			</linearGradient>
			<path style="fill-rule:evenodd;clip-rule:evenodd;fill:url(#SVGID_00000065795875889900081390000009514399148721593743_);" d="
				M34.3,10.3c0.8,1.2,0.8,1.2,1.5,2.4l0,0c0.4-0.2,0.4-0.2,0.7-0.3l0,0c-0.6-1.1-0.6-1.1-1.3-2.1l0,0c-0.2,0-0.3,0-0.4,0l0,0
				C34.7,10.3,34.5,10.3,34.3,10.3z"/>
			
				<linearGradient id="SVGID_00000111154853596858695410000018256465017146852007_" gradientUnits="userSpaceOnUse" x1="31328.5898" y1="-18217.9082" x2="31695.6504" y2="-18261.6582" gradientTransform="matrix(2.834645e-02 0 0 -2.834645e-02 -867.6866 -505.1543)">
				<stop  offset="0" style="stop-color:#00376B"/>
				<stop  offset="1" style="stop-color:#00AFEF"/>
			</linearGradient>
			<path style="fill-rule:evenodd;clip-rule:evenodd;fill:url(#SVGID_00000111154853596858695410000018256465017146852007_);" d="
				M18.2,11.1c-0.2,0.6-0.2,0.6-0.3,1.4l0,0c0.7-0.8,0.7-0.8,1.5-1.6l0,0c0-0.7,0-0.7,0.1-1.2l0,0C18.8,10.4,18.8,10.4,18.2,11.1z"
				/>
			
				<linearGradient id="SVGID_00000096752000478019419110000001398707025301270693_" gradientUnits="userSpaceOnUse" x1="31332.3008" y1="-18186.7969" x2="31699.4102" y2="-18230.5566" gradientTransform="matrix(2.834645e-02 0 0 -2.834645e-02 -867.6866 -505.1543)">
				<stop  offset="0" style="stop-color:#00376B"/>
				<stop  offset="1" style="stop-color:#00AFEF"/>
			</linearGradient>
			<path style="fill-rule:evenodd;clip-rule:evenodd;fill:url(#SVGID_00000096752000478019419110000001398707025301270693_);" d="
				M26.4,12.9l-2.1-1.2l-0.5-1c1.4-0.7,1.4-0.7,2.8-1.3l0,0c0.8,1.2,0.8,1.2,1.6,2.6l0,0C27.3,12.4,26.9,12.6,26.4,12.9z"/>
			
				<linearGradient id="SVGID_00000015321654708707657380000000840225884233462917_" gradientUnits="userSpaceOnUse" x1="31331.1074" y1="-18196.7891" x2="31698.209" y2="-18240.5488" gradientTransform="matrix(2.834645e-02 0 0 -2.834645e-02 -867.6866 -505.1543)">
				<stop  offset="0" style="stop-color:#00376B"/>
				<stop  offset="1" style="stop-color:#00AFEF"/>
			</linearGradient>
			<path style="fill-rule:evenodd;clip-rule:evenodd;fill:url(#SVGID_00000015321654708707657380000000840225884233462917_);" d="
				M20.9,12.2l-0.5,0.3c-0.3-1.1-0.3-1.1-0.4-1.9c1-0.8,1-0.8,2.2-1.5l0,0c0.3,0.8,0.3,0.8,0.8,1.8l0,0
				C21.9,11.6,21.7,11.7,20.9,12.2z"/>
			
				<linearGradient id="SVGID_00000168822079256671373740000008242237638782257324_" gradientUnits="userSpaceOnUse" x1="31333.0469" y1="-18180.5117" x2="31700.1367" y2="-18224.252" gradientTransform="matrix(2.834645e-02 0 0 -2.834645e-02 -867.6866 -505.1543)">
				<stop  offset="0" style="stop-color:#00376B"/>
				<stop  offset="1" style="stop-color:#00AFEF"/>
			</linearGradient>
			<path style="fill-rule:evenodd;clip-rule:evenodd;fill:url(#SVGID_00000168822079256671373740000008242237638782257324_);" d="
				M18.4,10.7c0.4-0.6,0.9-1.2,1.4-1.7c-0.1,0.2-0.1,0.2-0.2,0.6l0,0c-0.7,0.7-0.7,0.7-1.3,1.4l0,0C18.3,10.9,18.3,10.8,18.4,10.7z"
				/>
			
				<linearGradient id="SVGID_00000081631320624593884460000012207631333331583679_" gradientUnits="userSpaceOnUse" x1="31342.9707" y1="-18097.1035" x2="31710.0898" y2="-18140.8633" gradientTransform="matrix(2.834645e-02 0 0 -2.834645e-02 -867.6866 -505.1543)">
				<stop  offset="0" style="stop-color:#00376B"/>
				<stop  offset="1" style="stop-color:#00AFEF"/>
			</linearGradient>
			<path style="fill-rule:evenodd;clip-rule:evenodd;fill:url(#SVGID_00000081631320624593884460000012207631333331583679_);" d="
				M35.2,10.2c0.2,0.1,0.2,0.1,0.4,0.2l0,0c-0.2-0.2-0.2-0.2-0.3-0.4l0,0c-0.3-0.4-0.6-0.7-1-1.1l0,0c-0.2-0.2-0.2-0.2-0.4-0.3l0,0
				C34.5,9.3,34.5,9.3,35.2,10.2z"/>
			
				<linearGradient id="SVGID_00000109732626944497390010000005876654243395709870_" gradientUnits="userSpaceOnUse" x1="31338.2617" y1="-18136.7539" x2="31705.3613" y2="-18180.5039" gradientTransform="matrix(2.834645e-02 0 0 -2.834645e-02 -867.6866 -505.1543)">
				<stop  offset="0" style="stop-color:#00376B"/>
				<stop  offset="1" style="stop-color:#00AFEF"/>
			</linearGradient>
			<path style="fill-rule:evenodd;clip-rule:evenodd;fill:url(#SVGID_00000109732626944497390010000005876654243395709870_);" d="
				M27.4,9.1c0.8,1.2,0.8,1.2,1.7,2.6l0,0c1.4-0.5,1.4-0.5,2.5-1l0,0c-0.9-1.2-0.9-1.2-1.8-2.3l0,0C28.7,8.7,28.7,8.7,27.4,9.1z"/>
			
				<linearGradient id="SVGID_00000024720654960425635290000014681035632320174727_" gradientUnits="userSpaceOnUse" x1="31343.7305" y1="-18091.2871" x2="31710.7891" y2="-18135.0273" gradientTransform="matrix(2.834645e-02 0 0 -2.834645e-02 -867.6866 -505.1543)">
				<stop  offset="0" style="stop-color:#00376B"/>
				<stop  offset="1" style="stop-color:#00AFEF"/>
			</linearGradient>
			<path style="fill-rule:evenodd;clip-rule:evenodd;fill:url(#SVGID_00000024720654960425635290000014681035632320174727_);" d="
				M34.2,10.1c0.5,0,0.5,0,0.9,0l0,0c-0.7-0.9-0.7-0.9-1.5-1.6l0,0c-0.5-0.2-0.5-0.2-1.1-0.3l0,0C33.4,9.1,33.4,9.1,34.2,10.1z"/>
			
				<linearGradient id="SVGID_00000061454204605799909300000000430546324678135438_" gradientUnits="userSpaceOnUse" x1="31342.3633" y1="-18102.5371" x2="31709.4531" y2="-18146.2969" gradientTransform="matrix(2.834645e-02 0 0 -2.834645e-02 -867.6866 -505.1543)">
				<stop  offset="0" style="stop-color:#00376B"/>
				<stop  offset="1" style="stop-color:#00AFEF"/>
			</linearGradient>
			<path style="fill-rule:evenodd;clip-rule:evenodd;fill:url(#SVGID_00000061454204605799909300000000430546324678135438_);" d="
				M30.4,8.3c0.9,1,0.9,1,1.8,2.2l0,0c0.9-0.2,0.9-0.2,1.7-0.4l0,0c-0.8-1-0.8-1-1.7-1.9l0,0C31.4,8.2,31.4,8.2,30.4,8.3z"/>
			
				<linearGradient id="SVGID_00000025419689085046233020000015194236490569242770_" gradientUnits="userSpaceOnUse" x1="31337.3828" y1="-18144.2188" x2="31704.4727" y2="-18187.9688" gradientTransform="matrix(2.834645e-02 0 0 -2.834645e-02 -867.6866 -505.1543)">
				<stop  offset="0" style="stop-color:#00376B"/>
				<stop  offset="1" style="stop-color:#00AFEF"/>
			</linearGradient>
			<path style="fill-rule:evenodd;clip-rule:evenodd;fill:url(#SVGID_00000025419689085046233020000015194236490569242770_);" d="
				M20,9.3c0,0.5,0,0.5,0,1.2l0,0c1-0.8,1-0.8,2.1-1.5l0,0c-0.2-0.5-0.2-0.5-0.3-0.9l0,0C20.9,8.6,20.9,8.6,20,9.3z"/>
			
				<linearGradient id="SVGID_00000132786069647413996720000011484412995792232334_" gradientUnits="userSpaceOnUse" x1="31339.918" y1="-18122.9648" x2="31706.998" y2="-18166.7148" gradientTransform="matrix(2.834645e-02 0 0 -2.834645e-02 -867.6866 -505.1543)">
				<stop  offset="0" style="stop-color:#00376B"/>
				<stop  offset="1" style="stop-color:#00AFEF"/>
			</linearGradient>
			<path style="fill-rule:evenodd;clip-rule:evenodd;fill:url(#SVGID_00000132786069647413996720000011484412995792232334_);" d="
				M22.8,8.7c0.4,0.8,0.4,0.8,0.9,1.8l0,0c1.4-0.7,1.4-0.7,2.8-1.3l0,0c-0.7-0.9-0.7-0.9-1.2-1.6l0,0C24.1,8.1,24.1,8.1,22.8,8.7z"
				/>
			
				<linearGradient id="SVGID_00000073688114037118015440000001072089194131026320_" gradientUnits="userSpaceOnUse" x1="31340.7539" y1="-18115.873" x2="31707.873" y2="-18159.6328" gradientTransform="matrix(2.834645e-02 0 0 -2.834645e-02 -867.6866 -505.1543)">
				<stop  offset="0" style="stop-color:#00376B"/>
				<stop  offset="1" style="stop-color:#00AFEF"/>
			</linearGradient>
			<path style="fill-rule:evenodd;clip-rule:evenodd;fill:url(#SVGID_00000073688114037118015440000001072089194131026320_);" d="
				M20.2,8.7l0.1-0.1c0.6-0.5,0.7-0.5,1.4-1l0,0c0,0.1,0,0.1,0.1,0.4l0,0c-0.9,0.6-0.9,0.6-1.8,1.3l0,0C20.1,8.9,20.1,8.9,20.2,8.7z
				"/>
			
				<linearGradient id="SVGID_00000044893684774897166730000017454853674234263962_" gradientUnits="userSpaceOnUse" x1="31347.9316" y1="-18055.4355" x2="31715.0508" y2="-18099.207" gradientTransform="matrix(2.834645e-02 0 0 -2.834645e-02 -867.6866 -505.1543)">
				<stop  offset="0" style="stop-color:#00376B"/>
				<stop  offset="1" style="stop-color:#00AFEF"/>
			</linearGradient>
			<path style="fill-rule:evenodd;clip-rule:evenodd;fill:url(#SVGID_00000044893684774897166730000017454853674234263962_);" d="
				M33.7,8.5C34,8.6,34,8.6,34.1,8.8l0,0c-0.5-0.5-1.1-0.9-1.7-1.3l0,0c-0.1,0-0.1,0-0.1-0.1l0,0C33,7.9,33,7.9,33.7,8.5z"/>
			
				<linearGradient id="SVGID_00000055704978037442286570000011321065738337750913_" gradientUnits="userSpaceOnUse" x1="31350.4355" y1="-18033.5391" x2="31717.666" y2="-18077.2891" gradientTransform="matrix(2.834645e-02 0 0 -2.834645e-02 -867.6866 -505.1543)">
				<stop  offset="0" style="stop-color:#00376B"/>
				<stop  offset="1" style="stop-color:#00AFEF"/>
			</linearGradient>
			<path style="fill-rule:evenodd;clip-rule:evenodd;fill:url(#SVGID_00000055704978037442286570000011321065738337750913_);" d="
				M32.2,7.4C32.2,7.4,32.2,7.4,32.2,7.4L32.2,7.4c0,0-0.1-0.1-0.1-0.1l0,0C32.1,7.3,32.1,7.3,32.2,7.4z"/>
			
				<linearGradient id="SVGID_00000034049137768986111570000012759490959129798051_" gradientUnits="userSpaceOnUse" x1="31349.2441" y1="-18044.3027" x2="31716.373" y2="-18088.0625" gradientTransform="matrix(2.834645e-02 0 0 -2.834645e-02 -867.6866 -505.1543)">
				<stop  offset="0" style="stop-color:#00376B"/>
				<stop  offset="1" style="stop-color:#00AFEF"/>
			</linearGradient>
			<path style="fill-rule:evenodd;clip-rule:evenodd;fill:url(#SVGID_00000034049137768986111570000012759490959129798051_);" d="
				M32.4,8.1C33,8.2,33,8.2,33.5,8.4l0,0c-0.7-0.6-0.7-0.6-1.5-1.1l0,0c-0.5-0.2-0.5-0.2-1.2-0.4l0,0C31.6,7.5,31.6,7.5,32.4,8.1z"
				/>
			
				<linearGradient id="SVGID_00000106139450221005723460000004518021982408729005_" gradientUnits="userSpaceOnUse" x1="31346.1504" y1="-18070.7266" x2="31713.2402" y2="-18114.4961" gradientTransform="matrix(2.834645e-02 0 0 -2.834645e-02 -867.6866 -505.1543)">
				<stop  offset="0" style="stop-color:#00376B"/>
				<stop  offset="1" style="stop-color:#00AFEF"/>
			</linearGradient>
			<path style="fill-rule:evenodd;clip-rule:evenodd;fill:url(#SVGID_00000106139450221005723460000004518021982408729005_);" d="
				M25.9,7.4C26.5,8,26.5,8,27.2,8.9l0,0c1.3-0.4,1.3-0.4,2.5-0.6l0,0c-0.8-0.8-0.8-0.8-1.5-1.3l0,0C27.1,7.1,27.1,7.1,25.9,7.4z"/>
			
				<linearGradient id="SVGID_00000150081759272423146060000011156077356304456876_" gradientUnits="userSpaceOnUse" x1="31349.0098" y1="-18046.6602" x2="31716.0996" y2="-18090.4102" gradientTransform="matrix(2.834645e-02 0 0 -2.834645e-02 -867.6866 -505.1543)">
				<stop  offset="0" style="stop-color:#00376B"/>
				<stop  offset="1" style="stop-color:#00AFEF"/>
			</linearGradient>
			<path style="fill-rule:evenodd;clip-rule:evenodd;fill:url(#SVGID_00000150081759272423146060000011156077356304456876_);" d="
				M28.7,6.9c0.7,0.5,0.7,0.5,1.6,1.3l0,0c0.9-0.1,0.9-0.1,1.7-0.1l0,0c-0.8-0.7-0.8-0.7-1.6-1.2l0,0c-0.5,0-0.7-0.1-1-0.1l0,0
				C29.3,6.8,29.1,6.9,28.7,6.9z"/>
			
				<linearGradient id="SVGID_00000043427024332663341950000014467890715626050480_" gradientUnits="userSpaceOnUse" x1="31345.0391" y1="-18079.9121" x2="31712.1484" y2="-18123.6719" gradientTransform="matrix(2.834645e-02 0 0 -2.834645e-02 -867.6866 -505.1543)">
				<stop  offset="0" style="stop-color:#00376B"/>
				<stop  offset="1" style="stop-color:#00AFEF"/>
			</linearGradient>
			<path style="fill-rule:evenodd;clip-rule:evenodd;fill:url(#SVGID_00000043427024332663341950000014467890715626050480_);" d="
				M22.3,7.7C22.5,8,22.5,8,22.8,8.6l0,0C24,8,24,8,25.2,7.5l0,0c-0.4-0.4-0.4-0.4-0.8-0.7l0,0C23.4,7.2,23.4,7.2,22.3,7.7z"/>
			
				<linearGradient id="SVGID_00000146464513969025388770000015050476819456554373_" gradientUnits="userSpaceOnUse" x1="31347.1426" y1="-18062.2441" x2="31714.2539" y2="-18106.0039" gradientTransform="matrix(2.834645e-02 0 0 -2.834645e-02 -867.6866 -505.1543)">
				<stop  offset="0" style="stop-color:#00376B"/>
				<stop  offset="1" style="stop-color:#00AFEF"/>
			</linearGradient>
			<path style="fill-rule:evenodd;clip-rule:evenodd;fill:url(#SVGID_00000146464513969025388770000015050476819456554373_);" d="
				M22.2,7.3c0,0.1,0,0.1,0.2,0.3l0,0c1-0.5,1-0.5,2-0.9l0,0c-0.3-0.1-0.3-0.1-0.5-0.2l0,0C23,6.9,23,6.9,22.2,7.3z"/>
			
				<linearGradient id="SVGID_00000114043312782915303830000011926959179853438096_" gradientUnits="userSpaceOnUse" x1="31352.2168" y1="-18019.7559" x2="31719.3066" y2="-18063.5059" gradientTransform="matrix(2.834645e-02 0 0 -2.834645e-02 -867.6866 -505.1543)">
				<stop  offset="0" style="stop-color:#00376B"/>
				<stop  offset="1" style="stop-color:#00AFEF"/>
			</linearGradient>
			<path style="fill-rule:evenodd;clip-rule:evenodd;fill:url(#SVGID_00000114043312782915303830000011926959179853438096_);" d="
				M30.7,6.9c0.6,0.2,0.6,0.2,1.2,0.4l0,0c-0.3-0.2-0.3-0.2-0.6-0.3l0,0c-0.5-0.2-0.9-0.4-1.4-0.5l0,0c-0.3-0.1-0.3-0.1-0.5-0.1l0,0
				C30,6.6,30,6.6,30.7,6.9z"/>
			
				<linearGradient id="SVGID_00000132055828876761980950000000922851183326497982_" gradientUnits="userSpaceOnUse" x1="31353.5879" y1="-18008.7363" x2="31720.6074" y2="-18052.4766" gradientTransform="matrix(2.834645e-02 0 0 -2.834645e-02 -867.6866 -505.1543)">
				<stop  offset="0" style="stop-color:#00376B"/>
				<stop  offset="1" style="stop-color:#00AFEF"/>
			</linearGradient>
			<path style="fill-rule:evenodd;clip-rule:evenodd;fill:url(#SVGID_00000132055828876761980950000000922851183326497982_);" d="
				M29.3,6.3c0.2,0,0.2,0,0.4,0.1l0,0c-0.2,0-0.3-0.1-0.5-0.1l0,0C29.2,6.3,29.3,6.3,29.3,6.3z"/>
			
				<linearGradient id="SVGID_00000013890309557683222580000003810889362492358846_" gradientUnits="userSpaceOnUse" x1="31350.1816" y1="-18036.8105" x2="31717.2812" y2="-18080.5703" gradientTransform="matrix(2.834645e-02 0 0 -2.834645e-02 -867.6866 -505.1543)">
				<stop  offset="0" style="stop-color:#00376B"/>
				<stop  offset="1" style="stop-color:#00AFEF"/>
			</linearGradient>
			<path style="fill-rule:evenodd;clip-rule:evenodd;fill:url(#SVGID_00000013890309557683222580000003810889362492358846_);" d="
				M24.9,6.6c0.4,0.3,0.4,0.3,0.9,0.7l0,0C27,7,27,7,28.1,6.8l0,0c-0.6-0.4-0.6-0.4-1.2-0.6l0,0C26,6.4,26,6.4,24.9,6.6z"/>
			
				<linearGradient id="SVGID_00000036213736559103653090000002255071682656314557_" gradientUnits="userSpaceOnUse" x1="31353.4082" y1="-18007.6602" x2="31720.8281" y2="-18051.3691" gradientTransform="matrix(2.834645e-02 0 0 -2.834645e-02 -867.6866 -505.1543)">
				<stop  offset="0" style="stop-color:#00376B"/>
				<stop  offset="1" style="stop-color:#00AFEF"/>
			</linearGradient>
			<path style="fill-rule:evenodd;clip-rule:evenodd;fill:url(#SVGID_00000036213736559103653090000002255071682656314557_);" d="
				M29.2,6.3c0,0-0.1,0-0.2,0l0,0C29.1,6.3,29.2,6.3,29.2,6.3z"/>
			
				<linearGradient id="SVGID_00000037654907151803641810000006792784369947769217_" gradientUnits="userSpaceOnUse" x1="31352.416" y1="-18018.0586" x2="31719.5254" y2="-18061.8281" gradientTransform="matrix(2.834645e-02 0 0 -2.834645e-02 -867.6866 -505.1543)">
				<stop  offset="0" style="stop-color:#00376B"/>
				<stop  offset="1" style="stop-color:#00AFEF"/>
			</linearGradient>
			<path style="fill-rule:evenodd;clip-rule:evenodd;fill:url(#SVGID_00000037654907151803641810000006792784369947769217_);" d="
				M27.4,6.2C28,6.4,28,6.4,28.6,6.8l0,0c0.9,0,0.9,0,1.7,0.1l0,0c-0.7-0.3-0.7-0.3-1.3-0.6l0,0c-0.6-0.1-0.7-0.1-1.1-0.1l0,0
				C27.8,6.2,27.6,6.2,27.4,6.2z"/>
			
				<linearGradient id="SVGID_00000165230091622422253030000015994907523954975886_" gradientUnits="userSpaceOnUse" x1="31351.5156" y1="-18025.627" x2="31718.625" y2="-18069.3867" gradientTransform="matrix(2.834645e-02 0 0 -2.834645e-02 -867.6866 -505.1543)">
				<stop  offset="0" style="stop-color:#00376B"/>
				<stop  offset="1" style="stop-color:#00AFEF"/>
			</linearGradient>
			<path style="fill-rule:evenodd;clip-rule:evenodd;fill:url(#SVGID_00000165230091622422253030000015994907523954975886_);" d="
				M26,6.1L26,6.1c0.4,0,0.4,0,0.8,0.1l0,0c-0.9,0.1-0.9,0.1-1.9,0.4l0,0c-0.3-0.1-0.3-0.1-0.6-0.2C25.2,6.2,25.2,6.2,26,6.1z"/>
			
				<linearGradient id="SVGID_00000118358271972251992000000018190601934733761940_" gradientUnits="userSpaceOnUse" x1="31353.4746" y1="-18009.2266" x2="31720.5645" y2="-18052.9863" gradientTransform="matrix(2.834645e-02 0 0 -2.834645e-02 -867.6866 -505.1543)">
				<stop  offset="0" style="stop-color:#00376B"/>
				<stop  offset="1" style="stop-color:#00AFEF"/>
			</linearGradient>
			<path style="fill-rule:evenodd;clip-rule:evenodd;fill:url(#SVGID_00000118358271972251992000000018190601934733761940_);" d="
				M26.5,6.1L26.5,6.1L26.5,6.1L26.5,6.1L26.5,6.1L26.5,6.1L26.5,6.1L26.5,6.1L26.5,6.1L26.5,6.1l0.2,0l0,0l0,0l0,0l0,0l0,0
				c0.1,0,0.3,0,0.4,0h0l0,0l0,0l0,0c0.4,0,0.8,0,1.2,0.1l0,0c0.2,0,0.2,0,0.5,0.1l0,0c-0.8-0.1-0.8-0.1-1.6-0.1l0,0
				C26.9,6.1,26.9,6.1,26.5,6.1z"/>
			
				<linearGradient id="SVGID_00000055703604311738667220000011910168942387742350_" gradientUnits="userSpaceOnUse" x1="31322.0605" y1="-18267.2324" x2="31689.5293" y2="-18311.0918" gradientTransform="matrix(2.834645e-02 0 0 -2.834645e-02 -867.6866 -505.1543)">
				<stop  offset="0" style="stop-color:#00376B"/>
				<stop  offset="1" style="stop-color:#00AFEF"/>
			</linearGradient>
			<path style="fill-rule:evenodd;clip-rule:evenodd;fill:url(#SVGID_00000055703604311738667220000011910168942387742350_);" d="
				M37.5,14.6c0,0.1,0,0.1,0,0.2l-0.1,0C37.5,14.7,37.5,14.7,37.5,14.6z"/>
		</g>
		
			<linearGradient id="SVGID_00000091707684997709356280000009413006004150224825_" gradientUnits="userSpaceOnUse" x1="31281.4238" y1="-18471.9492" x2="31611.2734" y2="-18403.6484" gradientTransform="matrix(2.834645e-02 0 0 -2.834645e-02 -867.6866 -505.1543)">
			<stop  offset="0" style="stop-color:#00376B"/>
			<stop  offset="1" style="stop-color:#00AFEF"/>
		</linearGradient>
		<path style="fill-rule:evenodd;clip-rule:evenodd;fill:url(#SVGID_00000091707684997709356280000009413006004150224825_);" d="
			M29.8,15.5l0.8,1.2c-12.4,10.5-15.8,2.9-13-4.6c-6.4,16.2,7.9,15,14,6l0.8,1.1l2.4-5.2C34.8,14,29.8,15.5,29.8,15.5z"/>
		<path class="st1" d="M27,23.6L27,23.6L27,23.6L27,23.6L27,23.6L27,23.6L27,23.6L27,23.6L27,23.6L27,23.6L27,23.6L27,23.6L27,23.6
			l-3.9,2.3l-3.9-2.3v1.5C19,25.1,18.8,25,18.6,25l-0.5-0.3c-0.3-0.2-0.1-0.4-0.5-0.7c0,0-0.3-0.3-0.3-0.5c0,0-0.4,0,0,0.5
			c0,0-0.3-0.1-0.3-0.6c0-0.5-0.2-0.7-0.3-0.7l0,0.2c0,0-0.1-0.4-0.4-0.3c0.2,0.6,0.4,1.1,0.6,1.6c4.5,7.9,15.5,7.2,20.2,0.4
			c0,0,0.4-0.8,0.7-2c-0.2-0.1-0.4,0.3-0.4,0.3l0-0.2c-0.2-0.1-0.3,0.2-0.3,0.7c0,0.5-0.3,0.6-0.3,0.6c0.3-0.5,0-0.5,0-0.5
			c0,0.2-0.3,0.5-0.3,0.5c-0.4,0.3-0.2,0.5-0.5,0.7L35.4,25c-0.2,0.1-0.4,0.2-0.6,0.2v-1.5l-3.9,2.3L27,23.6L27,23.6
			C27,23.7,27,23.6,27,23.6z"/>
		<path class="st39" d="M67.5,28.2V9.3l1.5-1h4.4v15.5h7.7c-0.1,1.1-0.6,2-1.5,2.5l-1.5,1c0,0,0,0,0,0c0,0,0,0,0,0
			c-1.1,0.7-2.8,1-4.8,0.9L67.5,28.2z M50.3,27.7C50.3,27.7,50.3,27.7,50.3,27.7c-0.8,0.5-1.9,0.8-3.3,0.8h-1.2
			c-1.9,0-3.2-0.3-3.9-1c-0.7-0.6-1.1-1.8-1.1-3.5v-2.1l1.5-1h4.1v1.8c0,0.5,0.1,0.8,0.3,1c0.2,0.2,0.4,0.3,0.7,0.3
			c0-0.1,0-0.2,0-0.4v-1.3c0-0.4,0-0.7-0.1-0.9c0-0.2-0.1-0.4-0.3-0.5c-0.3-0.3-1-0.6-2-0.9c-0.5-0.1-0.8-0.2-1.1-0.3
			c-1.2-0.3-2.1-0.8-2.5-1.5c-0.5-0.6-0.7-1.6-0.7-3v-1.7c0-1.7,0.3-2.9,1-3.6c0.1-0.1,0.3-0.2,0.4-0.3l1.5-1c0.7-0.5,1.7-0.7,3-0.7
			h1.3c1,0,1.9,0.1,2.5,0.3c0.7,0.2,1.2,0.5,1.5,0.8c0.3,0.3,0.5,0.7,0.6,1.1c0.1,0.5,0.2,1.2,0.2,2.2v1.5l-1.5,1h-3.9v-1.2
			c0-0.6-0.1-1-0.2-1.2c-0.1-0.1-0.3-0.2-0.6-0.3c0,0.1,0,0.2,0,0.3v1.2c0,0.9,0.8,1.6,2.4,2c0.4,0.1,0.8,0.2,1.1,0.3
			c1.2,0.3,2,0.8,2.5,1.4c0.5,0.6,0.7,1.6,0.7,2.9v2.5c0,1.6-0.4,2.7-1.1,3.4c-0.1,0.1-0.2,0.2-0.4,0.3
			C51.9,26.7,50.3,27.7,50.3,27.7z M63,28.2L63,28.2l-7.1,0L53.3,9.3l1.5-1h4.5l0.9,9.3l0.8-8.3l1.5-1h4.5l-2.7,18.9
			C64.5,27.2,63,28.2,63,28.2z"/>
		<g>
			<path class="st0" d="M45,21.9v1.8c0,0.5,0.1,0.8,0.3,1c0.2,0.2,0.5,0.3,1,0.3c0.5,0,0.9-0.1,1-0.3c0.2-0.2,0.3-0.6,0.3-1.1v-1.3
				c0-0.4,0-0.7-0.1-0.9c0-0.2-0.1-0.4-0.3-0.5c-0.3-0.3-1-0.6-2-0.9c-0.5-0.1-0.8-0.2-1.1-0.3c-1.2-0.3-2.1-0.8-2.5-1.5
				c-0.5-0.6-0.7-1.6-0.7-3v-1.7c0-1.7,0.3-2.9,1-3.6c0.7-0.7,1.8-1,3.4-1h1.3c1,0,1.9,0.1,2.5,0.3c0.7,0.2,1.2,0.5,1.5,0.8
				c0.3,0.3,0.5,0.7,0.6,1.1c0.1,0.5,0.2,1.2,0.2,2.2v1.5h-3.9v-1.2c0-0.6-0.1-1-0.2-1.2c-0.2-0.2-0.5-0.3-1-0.3
				c-0.5,0-0.8,0.1-1,0.3c-0.2,0.2-0.2,0.5-0.2,1v1.2c0,0.9,0.8,1.6,2.4,2c0.4,0.1,0.8,0.2,1.1,0.3c1.2,0.3,2,0.8,2.5,1.4
				c0.5,0.6,0.7,1.6,0.7,2.9V24c0,1.6-0.4,2.7-1.1,3.4c-0.8,0.7-2,1-3.7,1h-1.2c-1.9,0-3.2-0.3-3.9-1c-0.7-0.6-1.1-1.8-1.1-3.5v-2.1
				C41,21.9,45,21.9,45,21.9z"/>
			<g>
				<defs>
					<path id="SVGID_00000076573418653865662170000013715969375243837104_" d="M45,21.9v1.8c0,0.5,0.1,0.8,0.3,1
						c0.2,0.2,0.5,0.3,1,0.3c0.5,0,0.9-0.1,1-0.3c0.2-0.2,0.3-0.6,0.3-1.1v-1.3c0-0.4,0-0.7-0.1-0.9c0-0.2-0.1-0.4-0.3-0.5
						c-0.3-0.3-1-0.6-2-0.9c-0.5-0.1-0.8-0.2-1.1-0.3c-1.2-0.3-2.1-0.8-2.5-1.5c-0.5-0.6-0.7-1.6-0.7-3v-1.7c0-1.7,0.3-2.9,1-3.6
						c0.7-0.7,1.8-1,3.4-1h1.3c1,0,1.9,0.1,2.5,0.3c0.7,0.2,1.2,0.5,1.5,0.8c0.3,0.3,0.5,0.7,0.6,1.1c0.1,0.5,0.2,1.2,0.2,2.2v1.5
						h-3.9v-1.2c0-0.6-0.1-1-0.2-1.2c-0.2-0.2-0.5-0.3-1-0.3c-0.5,0-0.8,0.1-1,0.3c-0.2,0.2-0.2,0.5-0.2,1v1.2c0,0.9,0.8,1.6,2.4,2
						c0.4,0.1,0.8,0.2,1.1,0.3c1.2,0.3,2,0.8,2.5,1.4c0.5,0.6,0.7,1.6,0.7,2.9V24c0,1.6-0.4,2.7-1.1,3.4c-0.8,0.7-2,1-3.7,1h-1.2
						c-1.9,0-3.2-0.3-3.9-1c-0.7-0.6-1.1-1.8-1.1-3.5v-2.1C41,21.9,45,21.9,45,21.9z"/>
				</defs>
				<clipPath id="SVGID_00000163767742948417218130000002237340033963849389_">
					<use xlink:href="#SVGID_00000076573418653865662170000013715969375243837104_"  style="overflow:visible;"/>
				</clipPath>
				<g style="clip-path:url(#SVGID_00000163767742948417218130000002237340033963849389_);">
					<g>
						<defs>
							<path id="SVGID_00000121973569251713263200000003172240135200448897_" d="M45,21.9v1.8c0,0.5,0.1,0.8,0.3,1
								c0.2,0.2,0.5,0.3,1,0.3c0.5,0,0.9-0.1,1-0.3c0.2-0.2,0.3-0.6,0.3-1.1v-1.3c0-0.4,0-0.7-0.1-0.9c0-0.2-0.1-0.4-0.3-0.5
								c-0.3-0.3-1-0.6-2-0.9c-0.5-0.1-0.8-0.2-1.1-0.3c-1.2-0.3-2.1-0.8-2.5-1.5c-0.5-0.6-0.7-1.6-0.7-3v-1.7c0-1.7,0.3-2.9,1-3.6
								c0.7-0.7,1.8-1,3.4-1h1.3c1,0,1.9,0.1,2.5,0.3c0.7,0.2,1.2,0.5,1.5,0.8c0.3,0.3,0.5,0.7,0.6,1.1c0.1,0.5,0.2,1.2,0.2,2.2v1.5
								h-3.9v-1.2c0-0.6-0.1-1-0.2-1.2c-0.2-0.2-0.5-0.3-1-0.3c-0.5,0-0.8,0.1-1,0.3c-0.2,0.2-0.2,0.5-0.2,1v1.2
								c0,0.9,0.8,1.6,2.4,2c0.4,0.1,0.8,0.2,1.1,0.3c1.2,0.3,2,0.8,2.5,1.4c0.5,0.6,0.7,1.6,0.7,2.9V24c0,1.6-0.4,2.7-1.1,3.4
								c-0.8,0.7-2,1-3.7,1h-1.2c-1.9,0-3.2-0.3-3.9-1c-0.7-0.6-1.1-1.8-1.1-3.5v-2.1C41,21.9,45,21.9,45,21.9z"/>
						</defs>
						<clipPath id="SVGID_00000021109340948004389320000005237934483927780024_">
							<use xlink:href="#SVGID_00000121973569251713263200000003172240135200448897_"  style="overflow:visible;"/>
						</clipPath>
						<g style="clip-path:url(#SVGID_00000021109340948004389320000005237934483927780024_);">
						</g>
					</g>
					<g>
						<defs>
							<path id="SVGID_00000021838309328490733570000014357604156223907749_" d="M45,21.9v1.8c0,0.5,0.1,0.8,0.3,1
								c0.2,0.2,0.5,0.3,1,0.3c0.5,0,0.9-0.1,1-0.3c0.2-0.2,0.3-0.6,0.3-1.1v-1.3c0-0.4,0-0.7-0.1-0.9c0-0.2-0.1-0.4-0.3-0.5
								c-0.3-0.3-1-0.6-2-0.9c-0.5-0.1-0.8-0.2-1.1-0.3c-1.2-0.3-2.1-0.8-2.5-1.5c-0.5-0.6-0.7-1.6-0.7-3v-1.7c0-1.7,0.3-2.9,1-3.6
								c0.7-0.7,1.8-1,3.4-1h1.3c1,0,1.9,0.1,2.5,0.3c0.7,0.2,1.2,0.5,1.5,0.8c0.3,0.3,0.5,0.7,0.6,1.1c0.1,0.5,0.2,1.2,0.2,2.2v1.5
								h-3.9v-1.2c0-0.6-0.1-1-0.2-1.2c-0.2-0.2-0.5-0.3-1-0.3c-0.5,0-0.8,0.1-1,0.3c-0.2,0.2-0.2,0.5-0.2,1v1.2
								c0,0.9,0.8,1.6,2.4,2c0.4,0.1,0.8,0.2,1.1,0.3c1.2,0.3,2,0.8,2.5,1.4c0.5,0.6,0.7,1.6,0.7,2.9V24c0,1.6-0.4,2.7-1.1,3.4
								c-0.8,0.7-2,1-3.7,1h-1.2c-1.9,0-3.2-0.3-3.9-1c-0.7-0.6-1.1-1.8-1.1-3.5v-2.1C41,21.9,45,21.9,45,21.9z"/>
						</defs>
						<clipPath id="SVGID_00000078022055965598664010000001033766890028580225_">
							<use xlink:href="#SVGID_00000021838309328490733570000014357604156223907749_"  style="overflow:visible;"/>
						</clipPath>
					</g>
				</g>
			</g>
			<path class="st42" d="M45,21.9v1.8c0,0.5,0.1,0.8,0.3,1c0.2,0.2,0.5,0.3,1,0.3c0.5,0,0.9-0.1,1-0.3c0.2-0.2,0.3-0.6,0.3-1.1v-1.3
				c0-0.4,0-0.7-0.1-0.9c0-0.2-0.1-0.4-0.3-0.5c-0.3-0.3-1-0.6-2-0.9c-0.5-0.1-0.8-0.2-1.1-0.3c-1.2-0.3-2.1-0.8-2.5-1.5
				c-0.5-0.6-0.7-1.6-0.7-3v-1.7c0-1.7,0.3-2.9,1-3.6c0.7-0.7,1.8-1,3.4-1h1.3c1,0,1.9,0.1,2.5,0.3c0.7,0.2,1.2,0.5,1.5,0.8
				c0.3,0.3,0.5,0.7,0.6,1.1c0.1,0.5,0.2,1.2,0.2,2.2v1.5h-3.9v-1.2c0-0.6-0.1-1-0.2-1.2c-0.2-0.2-0.5-0.3-1-0.3
				c-0.5,0-0.8,0.1-1,0.3c-0.2,0.2-0.2,0.5-0.2,1v1.2c0,0.9,0.8,1.6,2.4,2c0.4,0.1,0.8,0.2,1.1,0.3c1.2,0.3,2,0.8,2.5,1.4
				c0.5,0.6,0.7,1.6,0.7,2.9V24c0,1.6-0.4,2.7-1.1,3.4c-0.8,0.7-2,1-3.7,1h-1.2c-1.9,0-3.2-0.3-3.9-1c-0.7-0.6-1.1-1.8-1.1-3.5v-2.1
				C41,21.9,45,21.9,45,21.9z"/>
			<polygon class="st0" points="55.9,28.2 53.3,9.3 57.8,9.3 59.4,25.8 61.1,9.3 65.7,9.3 63,28.2 			"/>
			<g>
				<defs>
					<polygon id="SVGID_00000052100202630738092670000002690219777934791337_" points="55.9,28.2 53.3,9.3 57.8,9.3 59.4,25.8 
						61.1,9.3 65.7,9.3 63,28.2 					"/>
				</defs>
				<clipPath id="SVGID_00000018937368547550572060000005764804691182813868_">
					<use xlink:href="#SVGID_00000052100202630738092670000002690219777934791337_"  style="overflow:visible;"/>
				</clipPath>
				<g style="clip-path:url(#SVGID_00000018937368547550572060000005764804691182813868_);">
					<g>
						<defs>
							<polygon id="SVGID_00000113320482590519888250000006479724655444093578_" points="55.9,28.2 53.3,9.3 57.8,9.3 59.4,25.8 
								61.1,9.3 65.7,9.3 63,28.2 							"/>
						</defs>
						<clipPath id="SVGID_00000003785087545258280950000017906477675525398676_">
							<use xlink:href="#SVGID_00000113320482590519888250000006479724655444093578_"  style="overflow:visible;"/>
						</clipPath>
						<g style="clip-path:url(#SVGID_00000003785087545258280950000017906477675525398676_);">
						</g>
					</g>
					<g>
						<defs>
							<polygon id="SVGID_00000000920356752924428100000016994615189853424571_" points="55.9,28.2 53.3,9.3 57.8,9.3 59.4,25.8 
								61.1,9.3 65.7,9.3 63,28.2 							"/>
						</defs>
						<clipPath id="SVGID_00000084490707328269685780000017189485755718762429_">
							<use xlink:href="#SVGID_00000000920356752924428100000016994615189853424571_"  style="overflow:visible;"/>
						</clipPath>
					</g>
				</g>
			</g>
			<polygon class="st42" points="55.9,28.2 53.3,9.3 57.8,9.3 59.4,25.8 61.1,9.3 65.7,9.3 63,28.2 			"/>
			<path class="st0" d="M67.5,28.2V9.3h4.4v15.5h7.7c-0.2,2.6-2.7,3.6-6.3,3.4L67.5,28.2z"/>
			<g>
				<defs>
					<path id="SVGID_00000112616891977288038890000009794478644966707337_" d="M67.5,28.2V9.3h4.4v15.5h7.7
						c-0.2,2.6-2.7,3.6-6.3,3.4L67.5,28.2z"/>
				</defs>
				<clipPath id="SVGID_00000142887885593363534000000003553667822717101461_">
					<use xlink:href="#SVGID_00000112616891977288038890000009794478644966707337_"  style="overflow:visible;"/>
				</clipPath>
				<g style="clip-path:url(#SVGID_00000142887885593363534000000003553667822717101461_);">
					<g>
						<defs>
							<path id="SVGID_00000160899987003482038950000003418172851293032124_" d="M67.5,28.2V9.3h4.4v15.5h7.7
								c-0.2,2.6-2.7,3.6-6.3,3.4L67.5,28.2z"/>
						</defs>
						<clipPath id="SVGID_00000153671953368051424810000004188591718202331311_">
							<use xlink:href="#SVGID_00000160899987003482038950000003418172851293032124_"  style="overflow:visible;"/>
						</clipPath>
						<g style="clip-path:url(#SVGID_00000153671953368051424810000004188591718202331311_);">
						</g>
					</g>
					<g>
						<defs>
							<path id="SVGID_00000062153970642134673200000018250881847915149489_" d="M67.5,28.2V9.3h4.4v15.5h7.7
								c-0.2,2.6-2.7,3.6-6.3,3.4L67.5,28.2z"/>
						</defs>
						<clipPath id="SVGID_00000065048895033577796720000001755162303786923702_">
							<use xlink:href="#SVGID_00000062153970642134673200000018250881847915149489_"  style="overflow:visible;"/>
						</clipPath>
					</g>
				</g>
			</g>
			<path class="st42" d="M67.5,28.2V9.3h4.4v15.5h7.7c-0.2,2.6-2.7,3.6-6.3,3.4L67.5,28.2z"/>
		</g>
	</g>
</g>
</svg>
