<?xml version="1.0" encoding="UTF-8"?>
<svg version="1.1" xmlns="http://www.w3.org/2000/svg" width="196" height="167">
<path d="M0 0 C64.68 0 129.36 0 196 0 C196 55.11 196 110.22 196 167 C131.32 167 66.64 167 0 167 C0 111.89 0 56.78 0 0 Z " fill="#FDFEFE" transform="translate(0,0)"/>
<path d="M0 0 C1.20029908 2.40059817 1.11459743 3.89360649 1.09765625 6.5703125 C1.09443359 7.46621094 1.09121094 8.36210938 1.08789062 9.28515625 C1.07951172 10.22230469 1.07113281 11.15945312 1.0625 12.125 C1.05798828 13.06988281 1.05347656 14.01476563 1.04882812 14.98828125 C1.03702375 17.3255477 1.01908799 19.66278169 1 22 C-3.95 24.475 -3.95 24.475 -9 27 C-9.33 24.69 -9.66 22.38 -10 20 C-10.1546875 21.8871875 -10.1546875 21.8871875 -10.3125 23.8125 C-10.7261187 27.26743263 -11.26538436 28.74096969 -14 31 C-14 31.99 -14 32.98 -14 34 C-12.87356079 33.3498291 -12.87356079 33.3498291 -11.72436523 32.68652344 C-8.90835335 31.06124134 -6.09226365 29.4360942 -3.27612305 27.81103516 C-2.06287623 27.11089299 -0.84965944 26.41069878 0.36352539 25.71044922 C0.95061279 25.37158691 1.5377002 25.03272461 2.14257812 24.68359375 C2.7221225 24.34888062 3.30166687 24.01416748 3.89877319 23.66931152 C5.59760162 22.68992239 7.29902274 21.71503491 9.00048828 20.74023438 C10.76874421 19.71434082 12.52726298 18.67073104 14.26123047 17.58789062 C18.53881924 14.93338694 18.53881924 14.93338694 20.9387207 15.2800293 C23.08257372 16.02884163 24.92059861 16.93840727 26.890625 18.06640625 C27.59960938 18.46923828 28.30859375 18.87207031 29.0390625 19.28710938 C29.76867187 19.70798828 30.49828125 20.12886719 31.25 20.5625 C31.99507812 20.98724609 32.74015625 21.41199219 33.5078125 21.84960938 C35.34098961 22.89546042 37.17082677 23.94716192 39 25 C38.69018555 26.86743164 38.69018555 26.86743164 38 29 C35.62464513 30.65573517 33.34060207 32.053185 30.8125 33.4375 C29.27129878 34.30580834 27.7309798 35.17568393 26.19140625 36.046875 C24.94447998 36.74780273 24.94447998 36.74780273 23.67236328 37.46289062 C20.79825764 39.11603964 17.97461799 40.83805528 15.15234375 42.578125 C14.17225342 43.1769751 13.19216309 43.7758252 12.18237305 44.39282227 C10.24924688 45.57593861 8.32213063 46.76893936 6.40161133 47.97241211 C5.51111084 48.5113208 4.62061035 49.05022949 3.703125 49.60546875 C2.91583008 50.09168701 2.12853516 50.57790527 1.31738281 51.07885742 C-1.57151963 52.22717484 -3.06360662 51.90112186 -6 51 C-9.10691793 49.49346587 -12.01174588 47.73943151 -15 46 C-14.34 50.62 -13.68 55.24 -13 60 C-11.618125 59.13375 -10.23625 58.2675 -8.8125 57.375 C-6.45703125 55.8984375 -6.45703125 55.8984375 -4 55 C-0.57590573 56.13195823 2.44298126 57.73527256 5.5390625 59.56640625 C6.36664063 60.05173828 7.19421875 60.53707031 8.046875 61.03710938 C8.89765625 61.54048828 9.7484375 62.04386719 10.625 62.5625 C12.32401834 63.56634942 14.02447938 64.56776217 15.7265625 65.56640625 C16.84925537 66.23071655 16.84925537 66.23071655 17.99462891 66.90844727 C20.10190769 68.13163525 20.10190769 68.13163525 23 69 C23 68.34 23 67.68 23 67 C22.27079346 66.72365723 21.54158691 66.44731445 20.7902832 66.16259766 C18.16460173 65.06858286 15.80794329 63.83321852 13.35546875 62.3984375 C12.51435547 61.90859375 11.67324219 61.41875 10.80664062 60.9140625 C9.51016602 60.15222656 9.51016602 60.15222656 8.1875 59.375 C7.30384766 58.859375 6.42019531 58.34375 5.50976562 57.8125 C3.33805211 56.54468886 1.1682182 55.27377652 -1 54 C2.05396903 51.60587255 5.22137508 49.63734997 8.5859375 47.70703125 C9.67600098 47.07998291 10.76606445 46.45293457 11.88916016 45.80688477 C13.05106713 45.14202056 14.2130144 44.47722678 15.375 43.8125 C16.55399927 43.13555395 17.73287277 42.45838879 18.91162109 41.78100586 C22.2725023 39.85066029 25.63602645 37.92495201 29 36 C29.85400391 35.51080078 30.70800781 35.02160156 31.58789062 34.51757812 C35.38917678 32.34020672 39.19263737 30.16673546 43 28 C43.556875 28.38671875 44.11375 28.7734375 44.6875 29.171875 C49.64402809 32.55437052 54.57516251 35.43553137 60 38 C53.09910466 33.34430104 53.09910466 33.34430104 46 29 C46.015625 26.8046875 46.015625 26.8046875 47 24 C49.37098612 21.99129069 52.01805357 20.58716851 54.75 19.125 C55.46671875 18.70992187 56.1834375 18.29484375 56.921875 17.8671875 C59.8892932 16.23074364 62.11851592 15.01084903 65.5390625 14.96875 C69.10394153 16.46260407 72.33287892 18.35801238 75.625 20.375 C77.12970414 21.27948514 78.63493373 22.18309658 80.140625 23.0859375 C80.92759766 23.55999023 81.71457031 24.03404297 82.52539062 24.52246094 C87.59513392 27.54950183 92.72427631 30.47503389 97.84228516 33.41943359 C98.98383057 34.07806396 98.98383057 34.07806396 100.1484375 34.75 C101.15656494 35.33007812 101.15656494 35.33007812 102.18505859 35.921875 C103.8228144 36.89474689 105.41500997 37.94333998 107 39 C104.94500595 43.87474174 101.66075527 45.33886552 97.1875 47.8125 C96.47529297 48.23208984 95.76308594 48.65167969 95.02929688 49.08398438 C89.78132097 52.03081266 89.78132097 52.03081266 86.2265625 51.890625 C82.9010193 50.56040772 80.06198542 48.86120683 77 47 C79.36620011 49.61527381 81.942048 51.26440562 85 53 C82.13356767 56.1027091 79.32913679 58.14229622 75.6328125 60.171875 C74.58818848 60.75050293 73.54356445 61.32913086 72.46728516 61.92529297 C71.36433105 62.52744629 70.26137695 63.12959961 69.125 63.75 C66.86422797 64.99675167 64.60380908 66.2441439 62.34375 67.4921875 C61.25320312 68.09256836 60.16265625 68.69294922 59.0390625 69.31152344 C56.45689102 70.74615534 53.89400895 72.20497616 51.34375 73.6953125 C50.69905762 74.07204102 50.05436523 74.44876953 49.39013672 74.83691406 C47.75000546 75.80148365 46.11314494 76.77160883 44.4765625 77.7421875 C42 79 42 79 39 79 C38.90557617 79.61061279 38.81115234 80.22122559 38.71386719 80.8503418 C37.42533834 84.73047057 33.67671729 85.9392681 30.25 87.8125 C29.53328125 88.23208984 28.8165625 88.65167969 28.078125 89.08398438 C22.76919497 92.04585986 22.76919497 92.04585986 19.1171875 91.828125 C17.00468209 91.00183137 15.02738437 90.01369218 13 89 C12.01 89 11.02 89 10 89 C11.40751221 89.86916887 12.8264521 90.71985149 14.25 91.5625 C15.03890625 92.03816406 15.8278125 92.51382813 16.640625 93.00390625 C19.45023245 94.19008158 20.17789435 93.97777334 23 93 C24.41856991 92.14584601 25.80385151 91.23508103 27.16015625 90.28515625 C39.9575349 81.75662215 39.9575349 81.75662215 45.34375 82.3984375 C48.21182209 84.02203003 50.52293046 85.83007113 53 88 C54.76719339 89.18322905 56.55865388 90.33120427 58.375 91.4375 C59.14585938 91.95183594 59.91671875 92.46617188 60.7109375 92.99609375 C63.74066767 94.32483207 64.87688879 94.09104322 68 93 C70.6017388 91.6453545 73.0796843 90.12249924 75.5625 88.5625 C76.87552358 87.75004259 78.18930406 86.9388069 79.50390625 86.12890625 C80.11121582 85.7539502 80.71852539 85.37899414 81.34423828 84.99267578 C83.18322511 83.89015138 85.05620741 82.90512479 87 82 C87.495 85.96 87.495 85.96 88 90 C91.00384054 89.3045656 91.00384054 89.3045656 94 88 C94.83333333 86.08333333 94.83333333 86.08333333 95 84 C95.99 82.515 95.99 82.515 97 81 C97.66 81 98.32 81 99 81 C99.99 79.02 99.99 79.02 101 77 C101.66 77 102.32 77 103 77 C101.96218854 87.37811456 95.89549183 94.70476198 88.18359375 101.2421875 C71.53668086 114.64310128 52.07285637 119.83223832 31 118 C13.029779 115.46316907 -1.18347243 105.24615826 -12 91 C-15.29638156 86.1374643 -18.10204861 81.87844923 -19 76 C-18.34 76 -17.68 76 -17 76 C-17 76.66 -17 77.32 -17 78 C-16.34 78 -15.68 78 -15 78 C-14.67 78.33 -14.34 78.66 -14 79 C-14.66 77.88625 -15.32 76.7725 -16 75.625 C-18 72.25 -18 72.25 -18 70 C-19.32 69.67 -20.64 69.34 -22 69 C-21.76228882 68.17097168 -21.76228882 68.17097168 -21.51977539 67.32519531 C-20.95067733 64.77935695 -20.7896572 62.40300555 -20.68359375 59.796875 C-20.62075195 58.32734375 -20.62075195 58.32734375 -20.55664062 56.828125 C-20.51732422 55.81234375 -20.47800781 54.7965625 -20.4375 53.75 C-20.39431641 52.71875 -20.35113281 51.6875 -20.30664062 50.625 C-20.20074318 48.0834613 -20.09866557 45.54182804 -20 43 C-20.66 42.67 -21.32 42.34 -22 42 C-21.6875 40.125 -21.6875 40.125 -21 38 C-20.01 37.34 -19.02 36.68 -18 36 C-17.04498963 33.4290422 -16.23583042 30.94487399 -15.5 28.3125 C-11.54437581 14.54437581 -11.54437581 14.54437581 -8 11 C-7.3503125 9.88625 -7.3503125 9.88625 -6.6875 8.75 C-4.71512208 5.5357545 -2.45833539 2.85698437 0 0 Z " fill="#0678AF" transform="translate(54,32)"/>
<path d="M0 0 C0.66 0 1.32 0 2 0 C2 0.66 2 1.32 2 2 C2.66 2 3.32 2 4 2 C6.14836044 4.42556824 7.86996797 6.75175703 9.375 9.625 C11.45104346 12.65921736 13.65992734 13.5897471 17 15 C17 12.03 17 9.06 17 6 C18.051875 6.66 19.10375 7.32 20.1875 8 C26.74297329 11.24299032 33.99006185 11.08305312 40.96484375 9.19921875 C43.68273649 8.21193373 46.33512355 7.1214186 49 6 C50.72358745 5.40038224 52.45248662 4.81570639 54.1875 4.25 C54.92355469 4.00765625 55.65960938 3.7653125 56.41796875 3.515625 C57.20107422 3.26039062 57.20107422 3.26039062 58 3 C57.62584597 5.4195507 57.38354814 6.669224 55.49707031 8.29614258 C53.42221818 9.48377105 51.34781247 10.66572047 49.25 11.8125 C48.53328125 12.23208984 47.8165625 12.65167969 47.078125 13.08398438 C41.76919497 16.04585986 41.76919497 16.04585986 38.1171875 15.828125 C36.00468209 15.00183137 34.02738437 14.01369218 32 13 C31.01 13 30.02 13 29 13 C30.40751221 13.86916887 31.8264521 14.71985149 33.25 15.5625 C34.03890625 16.03816406 34.8278125 16.51382813 35.640625 17.00390625 C38.45023245 18.19008158 39.17789435 17.97777334 42 17 C43.41856991 16.14584601 44.80385151 15.23508103 46.16015625 14.28515625 C58.9575349 5.75662215 58.9575349 5.75662215 64.34375 6.3984375 C67.21182209 8.02203003 69.52293046 9.83007113 72 12 C73.76719339 13.18322905 75.55865388 14.33120427 77.375 15.4375 C78.14585938 15.95183594 78.91671875 16.46617188 79.7109375 16.99609375 C82.74066767 18.32483207 83.87688879 18.09104322 87 17 C89.6017388 15.6453545 92.0796843 14.12249924 94.5625 12.5625 C95.87552358 11.75004259 97.18930406 10.9388069 98.50390625 10.12890625 C99.11121582 9.7539502 99.71852539 9.37899414 100.34423828 8.99267578 C102.18322511 7.89015138 104.05620741 6.90512479 106 6 C106.495 9.96 106.495 9.96 107 14 C110.00384054 13.3045656 110.00384054 13.3045656 113 12 C113.83333333 10.08333333 113.83333333 10.08333333 114 8 C114.66 7.01 115.32 6.02 116 5 C116.66 5 117.32 5 118 5 C118.66 3.68 119.32 2.36 120 1 C120.66 1 121.32 1 122 1 C120.96218854 11.37811456 114.89549183 18.70476198 107.18359375 25.2421875 C90.53668086 38.64310128 71.07285637 43.83223832 50 42 C32.029779 39.46316907 17.81652757 29.24615826 7 15 C3.70361844 10.1374643 0.89795139 5.87844923 0 0 Z " fill="#A40404" transform="translate(35,108)"/>
<path d="M0 0 C2.22955653 1.27015331 4.45865426 2.54110048 6.6875 3.8125 C7.31333984 4.16892578 7.93917969 4.52535156 8.58398438 4.89257812 C9.81900863 5.59738254 11.05195921 6.30583418 12.28271484 7.01806641 C13.78393893 7.87645754 15.30646184 8.69738032 16.83203125 9.51171875 C19.19947575 11.13693741 19.993293 12.34595427 21 15 C12.03917897 22.436366 3.16716725 29.2636605 -7 35 C-7.94230469 35.55042969 -8.88460937 36.10085937 -9.85546875 36.66796875 C-10.72816406 37.14878906 -11.60085937 37.62960938 -12.5 38.125 C-13.62921875 38.74761719 -13.62921875 38.74761719 -14.78125 39.3828125 C-18.46344333 40.40708459 -21.24007673 38.4046084 -24.49536133 36.67138672 C-25.3489624 36.17912598 -26.20256348 35.68686523 -27.08203125 35.1796875 C-28.01337891 34.64472656 -28.94472656 34.10976562 -29.90429688 33.55859375 C-30.86400391 33.00300781 -31.82371094 32.44742188 -32.8125 31.875 C-33.79154297 31.31167969 -34.77058594 30.74835938 -35.77929688 30.16796875 C-38.18789555 28.78155585 -40.59471395 27.39214945 -43 26 C-39.9376485 23.59610169 -36.75969886 21.63413555 -33.37890625 19.70703125 C-32.28368652 19.07998291 -31.1884668 18.45293457 -30.06005859 17.80688477 C-29.48761414 17.48052032 -28.91516968 17.15415588 -28.32537842 16.81790161 C-18.7817018 11.37496933 -9.28218329 5.8812214 0 0 Z " fill="#BF7A3D" transform="translate(96,60)"/>
<path d="M0 0 C1.39510981 0.71429216 2.76449663 1.48026692 4.109375 2.28515625 C4.86347656 2.73310547 5.61757812 3.18105469 6.39453125 3.64257812 C7.56048828 4.34543945 7.56048828 4.34543945 8.75 5.0625 C9.54277344 5.53494141 10.33554688 6.00738281 11.15234375 6.49414062 C13.1043111 7.65826573 15.05335805 8.82699902 17 10 C15.49920628 14.1553013 13.12486748 15.37498464 9.3203125 17.42578125 C7.58394531 18.37420898 7.58394531 18.37420898 5.8125 19.34179688 C4.58357413 19.99914828 3.35440637 20.65604768 2.125 21.3125 C0.34170939 22.27719518 -1.4398213 23.24505908 -3.22076416 24.21408081 C-4.4008103 24.85472433 -5.58257892 25.49220529 -6.76605225 26.12649536 C-11.77112998 28.82210331 -16.59120708 31.78099275 -21.38330078 34.83666992 C-24.51585062 36.22933646 -25.79263025 36.08949269 -29 35 C-30.94458008 34.06030273 -30.94458008 34.06030273 -32.76953125 32.93359375 C-33.43017578 32.53076172 -34.09082031 32.12792969 -34.77148438 31.71289062 C-35.44501953 31.29201172 -36.11855469 30.87113281 -36.8125 30.4375 C-37.50537109 30.01275391 -38.19824219 29.58800781 -38.91210938 29.15039062 C-40.61216951 28.10690544 -42.30665476 27.05434704 -44 26 C-43.83300781 24.21191406 -43.83300781 24.21191406 -43 22 C-40.70605469 20.29589844 -40.70605469 20.29589844 -37.671875 18.609375 C-36.56730957 17.98546875 -35.46274414 17.3615625 -34.32470703 16.71875 C-33.1333347 16.06214302 -31.94176228 15.40589896 -30.75 14.75 C-28.9552707 13.74619417 -27.16284991 12.7383639 -25.37075806 11.7298584 C-23.62622208 10.74825035 -21.88001666 9.76961121 -20.13378906 8.79101562 C-15.40382644 6.08775871 -10.84785516 3.15176947 -6.3203125 0.125 C-3.51761168 -1.23388525 -2.87681672 -0.97146608 0 0 Z " fill="#C07B3E" transform="translate(144,88)"/>
<path d="M0 0 C2.00011297 0.86560056 3.88169103 1.79803045 5.77368164 2.88134766 C6.48266602 3.28417969 7.19165039 3.68701172 7.92211914 4.10205078 C8.65172852 4.52292969 9.38133789 4.94380859 10.13305664 5.37744141 C10.87813477 5.8021875 11.62321289 6.22693359 12.39086914 6.66455078 C14.22404625 7.71040183 16.05388341 8.76210333 17.88305664 9.81494141 C17.57324219 11.68237305 17.57324219 11.68237305 16.88305664 13.81494141 C14.50770177 15.47067657 12.22365871 16.8681264 9.69555664 18.25244141 C8.15435542 19.12074975 6.61403644 19.99062533 5.07446289 20.86181641 C3.82753662 21.56274414 3.82753662 21.56274414 2.55541992 22.27783203 C-0.31868572 23.93098105 -3.14232537 25.65299668 -5.96459961 27.39306641 C-6.94468994 27.9919165 -7.92478027 28.5907666 -8.93457031 29.20776367 C-10.86769648 30.39088002 -12.79481273 31.58388076 -14.71533203 32.78735352 C-15.60583252 33.32626221 -16.49633301 33.8651709 -17.41381836 34.42041016 C-18.20111328 34.90662842 -18.9884082 35.39284668 -19.79956055 35.89379883 C-23.54836455 37.38392077 -26.19065933 36.19356845 -29.79272461 34.72119141 C-36.54324933 31.12091156 -36.54324933 31.12091156 -38.07788086 27.62744141 C-38.34024357 24.9495324 -38.04880499 23.33837296 -37.11694336 20.81494141 C-35.50024414 19.34204102 -35.50024414 19.34204102 -33.37475586 18.02978516 C-32.15647095 17.26867432 -32.15647095 17.26867432 -30.91357422 16.4921875 C-29.99068604 15.93869629 -29.06779785 15.38520508 -28.11694336 14.81494141 C-27.09028564 14.18797363 -26.06362793 13.56100586 -25.00585938 12.91503906 C-22.19985639 11.2199049 -19.38167842 9.54932705 -16.54931641 7.89868164 C-15.37392388 7.21074727 -14.20176443 6.51726248 -13.03271484 5.81860352 C-11.3217839 4.79631339 -9.60034908 3.79166726 -7.87866211 2.78759766 C-6.86763428 2.19213135 -5.85660645 1.59666504 -4.81494141 0.9831543 C-2.11694336 -0.18505859 -2.11694336 -0.18505859 0 0 Z " fill="#BF7B3E" transform="translate(75.116943359375,47.18505859375)"/>
<path d="M0 0 C0.72791748 0.45560303 1.45583496 0.91120605 2.20581055 1.38061523 C3.00180664 1.87368164 3.79780273 2.36674805 4.61791992 2.87475586 C5.43454102 3.39102539 6.25116211 3.90729492 7.0925293 4.43920898 C7.92848633 4.9593457 8.76444336 5.47948242 9.62573242 6.01538086 C11.68147135 7.29581253 13.73260153 8.58304478 15.7800293 9.87670898 C11.62509683 12.64666396 7.24231322 13.64674654 2.4675293 15.00170898 C1.06083984 15.41743164 1.06083984 15.41743164 -0.37426758 15.84155273 C-11.68317176 19.07722229 -11.68317176 19.07722229 -16.9934082 16.56420898 C-17.85192383 16.00733398 -18.71043945 15.45045898 -19.5949707 14.87670898 C-20.46895508 14.31983398 -21.34293945 13.76295898 -22.2434082 13.18920898 C-23.22180664 12.53952148 -23.22180664 12.53952148 -24.2199707 11.87670898 C-24.2043457 9.68139648 -24.2043457 9.68139648 -23.2199707 6.87670898 C-20.84898458 4.86799968 -18.20191713 3.4638775 -15.4699707 2.00170898 C-14.39489258 1.3790918 -14.39489258 1.3790918 -13.2980957 0.74389648 C-8.21628947 -2.05857019 -5.42251799 -2.74375952 0 0 Z " fill="#BF7C3F" transform="translate(124.219970703125,49.123291015625)"/>
<path d="M0 0 C2.8125 2.4375 2.8125 2.4375 5 5 C5.53625 5.61617187 6.0725 6.23234375 6.625 6.8671875 C8.0985976 8.56591807 9.55500966 10.27693592 11 12 C9.68 12.33 8.36 12.66 7 13 C6.50371094 12.40832031 6.00742188 11.81664063 5.49609375 11.20703125 C1.32996671 6.36104288 -2.62980781 2.46824912 -8 -1 C-7.34 -0.01 -6.68 0.98 -6 2 C-15.01531729 2.63019694 -15.01531729 2.63019694 -19.125 0 C-19.74375 -0.66 -20.3625 -1.32 -21 -2 C-20.34 -0.35 -19.68 1.3 -19 3 C-20.55759343 3.53532823 -22.12138045 4.05265378 -23.6875 4.5625 C-24.55761719 4.85253906 -25.42773438 5.14257812 -26.32421875 5.44140625 C-29.41439425 6.08650858 -31.02766069 6.07022909 -34 5 C-36.53515625 2.8203125 -36.53515625 2.8203125 -39.0625 0.125 C-41.90368274 -2.8781608 -44.60373841 -5.63124481 -48 -8 C-30.78263191 -11.26285148 -14.89657322 -10.17844149 0 0 Z " fill="#B5DAEB" transform="translate(130,24)"/>
<path d="M0 0 C6.89913626 3.31745701 13.49162544 6.97034681 20 11 C17.94500595 15.87474174 14.66075527 17.33886552 10.1875 19.8125 C9.47529297 20.23208984 8.76308594 20.65167969 8.02929688 21.08398438 C2.78189267 24.03049164 2.78189267 24.03049164 -0.8046875 23.890625 C-3.83649825 22.66063772 -6.35429527 20.90736853 -9 19 C-6.50705133 12.32892506 -3.61659877 6.13636021 0 0 Z " fill="#BF7C40" transform="translate(141,60)"/>
<path d="M0 0 C3.29482827 -0.17341201 5.01050638 -0.22820105 8 1 C13.61067133 7.2181259 17.67236908 15.64869493 18.1875 24.0625 C18.0946875 25.0215625 18.0946875 25.0215625 18 26 C15.0625 24.8125 15.0625 24.8125 12 23 C11.125 20.3125 11.125 20.3125 11 18 C10.34 18 9.68 18 9 18 C8.67 18.99 8.34 19.98 8 21 C6.68 20.34 5.36 19.68 4 19 C4 18.34 4 17.68 4 17 C3.0925 16.71125 2.185 16.4225 1.25 16.125 C-5.51125402 13.78456592 -5.51125402 13.78456592 -7.484375 10.6171875 C-7.90203125 9.71226563 -8.3196875 8.80734375 -8.75 7.875 C-9.17796875 6.96492188 -9.6059375 6.05484375 -10.046875 5.1171875 C-10.51867187 4.06917969 -10.51867187 4.06917969 -11 3 C-4.375 1 -4.375 1 -1 1 C-0.34 1.66 0.32 2.32 1 3 C0.67 2.01 0.34 1.02 0 0 Z " fill="#CEEFFC" transform="translate(138,38)"/>
<path d="M0 0 C0.99 0.33 1.98 0.66 3 1 C-0.62111963 4.0441512 -4.32164169 6.45868519 -8.4375 8.78515625 C-9.34133423 9.29869911 -9.34133423 9.29869911 -10.26342773 9.82261658 C-12.17331738 10.90670034 -14.08651552 11.98477647 -16 13.0625 C-17.91271881 14.14510271 -19.82473897 15.22892949 -21.73657227 16.31309509 C-23.4703777 17.29546024 -25.20584631 18.27488829 -26.94140625 19.25415039 C-27.95074219 19.83028076 -28.96007812 20.40641113 -30 21 C-31.43666016 21.76268188 -31.43666016 21.76268188 -32.90234375 22.54077148 C-33.59457031 23.02231689 -34.28679687 23.5038623 -35 24 C-35 24.99 -35 25.98 -35 27 C-32.44696285 28.5390224 -29.88460065 30.05595193 -27.3125 31.5625 C-26.59126953 32.00013672 -25.87003906 32.43777344 -25.12695312 32.88867188 C-24.42119141 33.29794922 -23.71542969 33.70722656 -22.98828125 34.12890625 C-22.02208862 34.70233765 -22.02208862 34.70233765 -21.03637695 35.28735352 C-18.29526019 36.24662936 -16.75913197 35.84367298 -14 35 C-11.68188876 33.88190757 -11.68188876 33.88190757 -9.42578125 32.4609375 C-8.59369141 31.96335937 -7.76160156 31.46578125 -6.90429688 30.953125 C-5.16441273 29.89372305 -3.42483338 28.83382035 -1.68554688 27.7734375 C-0.85732422 27.2784375 -0.02910156 26.7834375 0.82421875 26.2734375 C1.57791748 25.81372559 2.33161621 25.35401367 3.1081543 24.88037109 C3.73246338 24.58984863 4.35677246 24.29932617 5 24 C5.66 24.33 6.32 24.66 7 25 C2.42562094 29.01617433 -2.336935 32.26248006 -7.5625 35.375 C-8.30435547 35.83777344 -9.04621094 36.30054688 -9.81054688 36.77734375 C-10.53435547 37.20917969 -11.25816406 37.64101562 -12.00390625 38.0859375 C-12.65174072 38.4782959 -13.2995752 38.8706543 -13.96704102 39.27490234 C-16.70637332 40.25194293 -18.23941499 39.84791302 -21 39 C-23.2199707 37.87670898 -23.2199707 37.87670898 -25.42578125 36.49609375 C-26.61977539 35.75649414 -26.61977539 35.75649414 -27.83789062 35.00195312 C-28.65451172 34.48568359 -29.47113281 33.96941406 -30.3125 33.4375 C-31.14845703 32.91736328 -31.98441406 32.39722656 -32.84570312 31.86132812 C-34.90144205 30.58089645 -36.95257223 29.2936642 -39 28 C-40.62658606 28.87204804 -42.25115691 29.74785484 -43.875 30.625 C-44.8753125 31.16511719 -45.875625 31.70523438 -46.90625 32.26171875 C-50.61653877 34.34641383 -54.17150212 36.63449724 -57.7109375 38.99609375 C-60.64554506 40.28311447 -61.98527197 39.99699667 -65 39 C-67.23828125 37.80859375 -67.23828125 37.80859375 -69.3125 36.4375 C-70.00988281 35.98246094 -70.70726563 35.52742188 -71.42578125 35.05859375 C-72.20501953 34.53458984 -72.20501953 34.53458984 -73 34 C-71.1484375 33.40625 -71.1484375 33.40625 -69 33 C-68.21625 33.495 -67.4325 33.99 -66.625 34.5 C-63.1481846 36.48675166 -61.84983503 35.98982725 -58 35 C-55.44068738 33.80621033 -53.04039484 32.39732632 -50.625 30.9375 C-49.98433594 30.56044922 -49.34367187 30.18339844 -48.68359375 29.79492188 C-47.11745934 28.87160383 -45.55801966 27.93694607 -44 27 C-44 25.68 -44 24.36 -44 23 C-43.28247559 23.05663818 -42.56495117 23.11327637 -41.82568359 23.17163086 C-38.43066533 22.96541885 -36.69735898 21.99543766 -33.7890625 20.25390625 C-32.79801514 19.66746338 -31.80696777 19.08102051 -30.78588867 18.47680664 C-29.74279541 17.84508545 -28.69970215 17.21336426 -27.625 16.5625 C-26.55677002 15.92884521 -25.48854004 15.29519043 -24.38793945 14.64233398 C-19.62980322 11.81358914 -14.8970889 8.94636422 -10.19140625 6.03125 C-9.50288574 5.6077124 -8.81436523 5.1841748 -8.10498047 4.74780273 C-6.85678258 3.97622128 -5.61451884 3.19492864 -4.37939453 2.40258789 C-2.73046875 1.37890625 -2.73046875 1.37890625 0 0 Z " fill="#F5EAE5" transform="translate(136,87)"/>
<path d="M0 0 C4.62353018 1.54117673 8.10270877 2.98874449 12.25 5.375 C13.28640625 5.96023437 14.3228125 6.54546875 15.390625 7.1484375 C18.07002923 9.0496914 18.71103127 10.09794031 20 13 C17.6123671 14.96850562 15.21354967 16.92289078 12.8125 18.875 C12.13896484 19.43058594 11.46542969 19.98617187 10.77148438 20.55859375 C9.78051758 21.36103516 9.78051758 21.36103516 8.76953125 22.1796875 C8.16729736 22.67194824 7.56506348 23.16420898 6.94458008 23.67138672 C5 25 5 25 0 27 C0 18.09 0 9.18 0 0 Z " fill="#935818" transform="translate(97,62)"/>
<path d="M0 0 C2.50477324 1.423959 5.00531809 2.85461562 7.50073242 4.29492188 C8.38438477 4.79378906 9.26803711 5.29265625 10.1784668 5.80664062 C11.01313477 6.28746094 11.84780273 6.76828125 12.70776367 7.26367188 C13.47193604 7.70130859 14.2361084 8.13894531 15.0234375 8.58984375 C15.57281982 8.98751953 16.12220215 9.38519531 16.68823242 9.79492188 C16.68823242 10.45492187 16.68823242 11.11492187 16.68823242 11.79492188 C9.78786676 14.38514923 2.42758581 15.12739184 -4.75708008 13.10742188 C-9.45448336 10.96412 -12.47964975 8.08877794 -15.31176758 3.79492188 C-14.10545113 0.17597254 -12.43948893 -0.64888214 -9.29614258 -2.63085938 C-5.87336733 -3.62130812 -3.0386242 -1.58397392 0 0 Z " fill="#B87940" transform="translate(57.311767578125,90.205078125)"/>
<path d="M0 0 C2.73828125 2.30078125 2.73828125 2.30078125 5.3125 5.3125 C6.17488281 6.29863281 7.03726563 7.28476562 7.92578125 8.30078125 C10 11 10 11 11 14 C8.71070947 15.17154293 6.41881638 16.33738074 4.125 17.5 C3.47402344 17.83386719 2.82304688 18.16773437 2.15234375 18.51171875 C-2.7734375 21 -2.7734375 21 -5 21 C-6.3410005 18.5664433 -7.67294856 16.12864699 -9 13.6875 C-9.3815625 12.99720703 -9.763125 12.30691406 -10.15625 11.59570312 C-13 6.33984375 -13 6.33984375 -13 3 C-8.43093722 0.80684986 -5.18404911 -0.71436328 0 0 Z " fill="#126EA3" transform="translate(82,18)"/>
<path d="M0 0 C0.81690177 2.22763988 1.62861872 4.4569486 2.4375 6.6875 C2.66759766 7.31333984 2.89769531 7.93917969 3.13476562 8.58398438 C4.38053667 12.03242308 5.39804449 15.3813479 6 19 C4.23268551 20.3172344 2.46102239 21.62863588 0.6875 22.9375 C-0.29863281 23.66839844 -1.28476563 24.39929688 -2.30078125 25.15234375 C-5 27 -5 27 -8 28 C-11.9375 15.25 -11.9375 15.25 -11 9 C-8.62582823 5.22222983 -4.81322319 0 0 0 Z " fill="#144F80" transform="translate(67,23)"/>
<path d="M0 0 C2.0546875 2.3984375 2.0546875 2.3984375 3.875 5.375 C4.79925781 6.84066406 4.79925781 6.84066406 5.7421875 8.3359375 C7 11 7 11 6 14 C3.53366858 15.82669874 0.91398681 17.04906156 -2 18 C-4.5 17.5 -4.5 17.5 -7 16 C-7.65226562 15.71511719 -8.30453125 15.43023437 -8.9765625 15.13671875 C-13.39832673 13.18310292 -16.0409906 11.65264732 -18 7 C-18 6.34 -18 5.68 -18 5 C-15.94587752 3.96241251 -13.88130395 2.9454966 -11.8125 1.9375 C-10.66394531 1.36902344 -9.51539062 0.80054688 -8.33203125 0.21484375 C-4.80250578 -1.07200551 -3.41793646 -1.50435315 0 0 Z " fill="#067BB4" transform="translate(96,35)"/>
<path d="M0 0 C0.99 0.33 1.98 0.66 3 1 C-0.11391099 3.44823592 -3.35858302 5.43533288 -6.796875 7.3984375 C-8.48296875 8.36523438 -8.48296875 8.36523438 -10.203125 9.3515625 C-11.38529776 10.02625005 -12.56759023 10.70072791 -13.75 11.375 C-16.05841934 12.69336393 -18.36538974 14.01418453 -20.671875 15.3359375 C-21.6937793 15.91907715 -22.71568359 16.5022168 -23.76855469 17.10302734 C-27.55731733 19.32716498 -31.27444796 21.67152998 -35 24 C-23.615 30.435 -23.615 30.435 -12 37 C-12 37.66 -12 38.32 -12 39 C-15.39984512 38.34978572 -17.84432 37.02816821 -20.7734375 35.20703125 C-21.6809375 34.65982422 -22.5884375 34.11261719 -23.5234375 33.54882812 C-25.42402336 32.39155359 -27.31733153 31.22224123 -29.203125 30.04101562 C-34.41973856 26.71594218 -34.41973856 26.71594218 -40.3515625 26.51171875 C-41.22554687 27.00285156 -42.09953125 27.49398437 -43 28 C-43.94875 28.37125 -44.8975 28.7425 -45.875 29.125 C-46.57625 29.41375 -47.2775 29.7025 -48 30 C-48.53093324 28.06524329 -49.04942317 26.12706845 -49.5625 24.1875 C-49.85253906 23.10855469 -50.14257812 22.02960938 -50.44140625 20.91796875 C-51 18 -51 18 -50 15 C-49.33613281 15.44472656 -48.67226563 15.88945313 -47.98828125 16.34765625 C-47.10527344 16.91355469 -46.22226562 17.47945312 -45.3125 18.0625 C-44.44238281 18.63097656 -43.57226562 19.19945313 -42.67578125 19.78515625 C-39.37075862 21.28568477 -38.39805812 21.2167719 -35 20 C-32.17913232 18.64010909 -29.46725763 17.1175131 -26.75 15.5625 C-25.96874756 15.12381592 -25.18749512 14.68513184 -24.38256836 14.2331543 C-20.26548637 11.9088019 -16.1895561 9.52567303 -12.14453125 7.078125 C-11.37463867 6.61462646 -10.60474609 6.15112793 -9.81152344 5.67358398 C-8.33359804 4.77915996 -6.86135231 3.87527011 -5.39550781 2.96118164 C-3.64129455 1.89739784 -1.8243051 0.93851534 0 0 Z " fill="#F8F3F0" transform="translate(89,62)"/>
<path d="M0 0 C2.64 1.32 5.28 2.64 8 4 C5.13356767 7.1027091 2.32913679 9.14229622 -1.3671875 11.171875 C-2.41205322 11.75050293 -3.45691895 12.32913086 -4.53344727 12.92529297 C-5.63615967 13.52744629 -6.73887207 14.12959961 -7.875 14.75 C-10.13175499 15.99695331 -12.38826682 17.24434679 -14.64453125 18.4921875 C-15.73459473 19.09256836 -16.8246582 19.69294922 -17.94775391 20.31152344 C-21.83962593 22.46447392 -25.70642727 24.65872246 -29.5625 26.875 C-31.17318359 27.79925781 -31.17318359 27.79925781 -32.81640625 28.7421875 C-33.53699219 29.15726563 -34.25757812 29.57234375 -35 30 C-35.66 29.34 -36.32 28.68 -37 28 C-36.33355469 27.62230469 -35.66710937 27.24460937 -34.98046875 26.85546875 C-24.40053568 20.53710313 -15.91951722 12.18950005 -9 2 C-8.38125 2.66 -7.7625 3.32 -7.125 4 C-5.24362573 6.2284549 -5.24362573 6.2284549 -3 6 C-2.01 4.02 -1.02 2.04 0 0 Z " fill="#955D1F" transform="translate(131,81)"/>
<path d="M0 0 C1.20029908 2.40059817 1.11459743 3.89360649 1.09765625 6.5703125 C1.09443359 7.46621094 1.09121094 8.36210938 1.08789062 9.28515625 C1.07951172 10.22230469 1.07113281 11.15945312 1.0625 12.125 C1.05798828 13.06988281 1.05347656 14.01476563 1.04882812 14.98828125 C1.03702375 17.3255477 1.01908799 19.66278169 1 22 C-3.95 24.475 -3.95 24.475 -9 27 C-9.33 24.69 -9.66 22.38 -10 20 C-10.1546875 21.8871875 -10.1546875 21.8871875 -10.3125 23.8125 C-10.60804096 27.41809966 -11.46571767 28.51640331 -14 31 C-14.99373439 33.2603044 -14.99373439 33.2603044 -15.6875 35.6875 C-15.93886719 36.49574219 -16.19023438 37.30398437 -16.44921875 38.13671875 C-16.63097656 38.75160156 -16.81273437 39.36648437 -17 40 C-17.66 40 -18.32 40 -19 40 C-19.33 40.99 -19.66 41.98 -20 43 C-20.66 42.67 -21.32 42.34 -22 42 C-21.6875 40.125 -21.6875 40.125 -21 38 C-20.01 37.34 -19.02 36.68 -18 36 C-17.04498963 33.4290422 -16.23583042 30.94487399 -15.5 28.3125 C-11.54437581 14.54437581 -11.54437581 14.54437581 -8 11 C-7.3503125 9.88625 -7.3503125 9.88625 -6.6875 8.75 C-4.71512208 5.5357545 -2.45833539 2.85698437 0 0 Z " fill="#315E87" transform="translate(54,32)"/>
<path d="M0 0 C2.359375 2.50390625 2.359375 2.50390625 4.75 5.5625 C5.54921875 6.57441406 6.3484375 7.58632813 7.171875 8.62890625 C7.77515625 9.41136719 8.3784375 10.19382812 9 11 C5.8367155 12.6720218 2.6178082 13.92221136 -0.75 15.125 C-1.73484375 15.47820313 -2.7196875 15.83140625 -3.734375 16.1953125 C-4.48203125 16.46085937 -5.2296875 16.72640625 -6 17 C-7.50571746 14.87885041 -9.00468679 12.75346385 -10.5 10.625 C-10.92925781 10.02171875 -11.35851562 9.4184375 -11.80078125 8.796875 C-15 4.2265625 -15 4.2265625 -15 2 C-13.25364835 1.46706165 -11.50272348 0.94909337 -9.75 0.4375 C-8.77546875 0.14746094 -7.8009375 -0.14257812 -6.796875 -0.44140625 C-2.63151651 -1.27331444 -2.63151651 -1.27331444 0 0 Z " fill="#069FDB" transform="translate(114,29)"/>
<path d="M0 0 C1.859375 2.51953125 1.859375 2.51953125 3.75 5.8125 C4.38421875 6.89144531 5.0184375 7.97039063 5.671875 9.08203125 C7 12 7 12 6 15 C2.68041743 16.10652752 2.17693617 16.03533952 -0.875 14.6875 C-6.14535444 11.95508377 -7.89063131 7.3139865 -10 2 C-3.375 0 -3.375 0 0 0 Z " fill="#08B1EF" transform="translate(137,39)"/>
<path d="M0 0 C2.60198759 1.74821041 4.81018878 3.76359705 7 6 C3.02107438 8.65261708 -0.7962604 10.05246999 -5.625 9.9375 C-8.91379537 8.6392913 -10.7258642 6.66398766 -13 4 C-13 3.34 -13 2.68 -13 2 C-8.48382613 0.23759068 -4.83796518 -0.67901266 0 0 Z " fill="#0789C3" transform="translate(104,20)"/>
<path d="M0 0 C-0.37415403 2.4195507 -0.61645186 3.669224 -2.50292969 5.29614258 C-4.57778182 6.48377105 -6.65218753 7.66572047 -8.75 8.8125 C-9.46671875 9.23208984 -10.1834375 9.65167969 -10.921875 10.08398438 C-16.23060427 13.04574785 -16.23060427 13.04574785 -19.890625 12.828125 C-22 12 -22 12 -24 10.9375 C-26.44989787 9.78911037 -28.32638335 9.85146574 -31 10 C-31.33 9.34 -31.66 8.68 -32 8 C-31.26136719 7.97421875 -30.52273437 7.9484375 -29.76171875 7.921875 C-20.61144708 7.41029691 -13.26647504 4.86381149 -4.9375 1.25 C-2 0 -2 0 0 0 Z " fill="#B47C4A" transform="translate(93,111)"/>
<path d="M0 0 C8.36432675 -1.06026677 8.36432675 -1.06026677 12.1875 1.41796875 C15.26137976 4.42140543 17.22880637 6.69654911 18 11 C14.83855913 12.1584476 12.33047164 12.64509135 9 12 C5.39942913 8.7508362 2.64026067 5.05713815 0 1 C0 0.67 0 0.34 0 0 Z " fill="#07B0EF" transform="translate(116,27)"/>
<path d="M0 0 C5.77923466 2.6187157 10.41578631 6.98762045 14.3125 11.9375 C14.869375 12.618125 15.42625 13.29875 16 14 C16.99 14 17.98 14 19 14 C17.02 11.36 15.04 8.72 13 6 C16.61322401 7.806612 17.83748791 8.66418971 20.25 11.625 C20.77078125 12.25664063 21.2915625 12.88828125 21.828125 13.5390625 C22.40820312 14.26222656 22.40820312 14.26222656 23 15 C22.67 15.66 22.34 16.32 22 17 C20.68 17 19.36 17 18 17 C18.66 18.32 19.32 19.64 20 21 C19.34 21.33 18.68 21.66 18 22 C17.34 20.35 16.68 18.7 16 17 C12.7 17.66 9.4 18.32 6 19 C5.67 18.34 5.34 17.68 5 17 C8.96 16.505 8.96 16.505 13 16 C11.70951192 13.97209016 10.36821051 11.97630407 9 10 C8.484375 9.236875 7.96875 8.47375 7.4375 7.6875 C3.41686705 4.90398488 -1.21575445 5.16497398 -6 5 C-6 4.67 -6 4.34 -6 4 C-3.36 3.67 -0.72 3.34 2 3 C1.34 2.01 0.68 1.02 0 0 Z " fill="#CBEEFB" transform="translate(121,22)"/>
<path d="M0 0 C0 0.33 0 0.66 0 1 C-1.43739513 1.02712066 -2.87493863 1.04645067 -4.3125 1.0625 C-5.51326172 1.07990234 -5.51326172 1.07990234 -6.73828125 1.09765625 C-9 1 -9 1 -12 0 C-11.67 0.66 -11.34 1.32 -11 2 C-20.87646077 4.60359859 -20.87646077 4.60359859 -25 3 C-27.8125 0.9375 -27.8125 0.9375 -30 -1 C-18.99743527 -3.08508841 -10.54891739 -4.18964095 0 0 Z " fill="#107BB2" transform="translate(112,17)"/>
<path d="M0 0 C2.17578125 2.53125 2.17578125 2.53125 4 5 C2.06767179 5.86580287 0.12892806 6.71729941 -1.8125 7.5625 C-2.89144531 8.03816406 -3.97039062 8.51382812 -5.08203125 9.00390625 C-8 10 -8 10 -11 9 C-13 6 -13 6 -13 3 C-4.92567568 -0.87567568 -4.92567568 -0.87567568 0 0 Z " fill="#085D92" transform="translate(82,18)"/>
<path d="M0 0 C2.32590854 3.63423209 2.16265833 6.77088331 2 11 C-2.95 13.475 -2.95 13.475 -8 16 C-8.56724 12.11035428 -8.75153241 10.0906855 -6.4765625 6.7890625 C-4.70861692 4.79020158 -2.90257416 2.87063647 -1 1 C-0.67 0.67 -0.34 0.34 0 0 Z " fill="#093E70" transform="translate(53,43)"/>
<path d="M0 0 C6.99542334 0 6.99542334 0 9.71484375 2.70703125 C11.13438733 4.82651598 12.2808291 6.54662585 13 9 C12.3046875 11.19921875 12.3046875 11.19921875 11 13 C10.01 13.33 9.02 13.66 8 14 C6.66397562 11.85580015 5.33107996 9.70976582 4 7.5625 C3.6184375 6.95083984 3.236875 6.33917969 2.84375 5.70898438 C0 1.11328125 0 1.11328125 0 0 Z " fill="#0EB3EF" transform="translate(138,38)"/>
<path d="M0 0 C6.01698067 0.54699824 10.19736769 3.90219982 14.00390625 8.33203125 C15.71401569 10.52580801 17.3796224 12.73935161 19 15 C17.68 15.33 16.36 15.66 15 16 C14.50371094 15.41992188 14.00742188 14.83984375 13.49609375 14.2421875 C9.26696775 9.37909384 4.94634778 5.12195649 0 1 C0 0.67 0 0.34 0 0 Z " fill="#07B1EF" transform="translate(122,21)"/>
<path d="M0 0 C5.47993078 -0.68499135 9.04961625 -0.44514453 13.5625 2.9375 C15.56640625 4.58984375 15.56640625 4.58984375 17 6 C17 6.33 17 6.66 17 7 C8.56583956 7.91638765 8.56583956 7.91638765 4.77734375 5.69921875 C3.04779881 4.21117084 1.46386291 2.74984938 0 1 C0 0.67 0 0.34 0 0 Z " fill="#0BA7E3" transform="translate(107,19)"/>
<path d="M0 0 C0.66 0 1.32 0 2 0 C2.33 2.31 2.66 4.62 3 7 C2.319375 6.7525 1.63875 6.505 0.9375 6.25 C-2.32154089 5.97263482 -2.99985173 6.35817303 -5.6875 8 C-7.3271875 8.99 -7.3271875 8.99 -9 10 C-9.66 9.67 -10.32 9.34 -11 9 C-9.36587557 7.29159719 -8.13093906 6.06546953 -6 5 C-6 3.68 -6 2.36 -6 1 C-4.7934375 1.0309375 -4.7934375 1.0309375 -3.5625 1.0625 C-1.06645115 1.29633621 -1.06645115 1.29633621 0 0 Z " fill="#F7F2EF" transform="translate(98,109)"/>
<path d="M0 0 C5.29495918 0.51994589 9.34539308 3.26772025 13.8125 5.9375 C14.60076172 6.39318359 15.38902344 6.84886719 16.20117188 7.31835938 C17.31782227 7.97868164 17.31782227 7.97868164 18.45703125 8.65234375 C19.13741455 9.05445068 19.81779785 9.45655762 20.51879883 9.87084961 C21.00759521 10.24346924 21.4963916 10.61608887 22 11 C22 11.66 22 12.32 22 13 C18.88031641 12.35571752 16.44126547 11.27757123 13.671875 9.71484375 C12.87265625 9.26689453 12.0734375 8.81894531 11.25 8.35742188 C10.425 7.88884766 9.6 7.42027344 8.75 6.9375 C7.90953125 6.46505859 7.0690625 5.99261719 6.203125 5.50585938 C4.13301124 4.34142039 2.06544986 3.1726855 0 2 C0 1.34 0 0.68 0 0 Z " fill="#F4EDE6" transform="translate(55,88)"/>
<path d="M0 0 C3.3 1.65 6.6 3.3 10 5 C10 6.65 10 8.3 10 10 C5.89665529 9.06742166 4.28397854 8.35870974 1.625 5 C0 2 0 2 0 0 Z " fill="#F5EDED" transform="translate(42,113)"/>
<path d="M0 0 C0.66 0.66 1.32 1.32 2 2 C1.828125 4.0234375 1.828125 4.0234375 1.25 6.375 C1.06953125 7.14585938 0.8890625 7.91671875 0.703125 8.7109375 C0.01028052 10.96653119 -0.88265521 12.92628382 -2 15 C-2.66 15 -3.32 15 -4 15 C-4.33 15.99 -4.66 16.98 -5 18 C-5.66 17.67 -6.32 17.34 -7 17 C-6.6875 15.125 -6.6875 15.125 -6 13 C-5.01 12.34 -4.02 11.68 -3 11 C-1.98247445 8.35952748 -1.98247445 8.35952748 -1.3125 5.375 C-1.06113281 4.37210938 -0.80976562 3.36921875 -0.55078125 2.3359375 C-0.36902344 1.56507812 -0.18726563 0.79421875 0 0 Z " fill="#63676C" transform="translate(39,57)"/>
<path d="M0 0 C6.71700347 -0.31985731 11.75726932 0.5206176 18 3 C18 3.33 18 3.66 18 4 C16.58376784 4.05447047 15.16691809 4.09300508 13.75 4.125 C12.96109375 4.14820313 12.1721875 4.17140625 11.359375 4.1953125 C8.7704469 3.98099726 7.27669881 3.1943338 5 2 C1.83304044 1.83275263 1.83304044 1.83275263 -1 2 C-0.67 1.34 -0.34 0.68 0 0 Z " fill="#2E9FD0" transform="translate(94,14)"/>
<path d="M0 0 C3 6.625 3 6.625 3 10 C1.109375 9.75390625 1.109375 9.75390625 -1 9 C-2.046875 7.15234375 -2.046875 7.15234375 -2.75 4.9375 C-2.99234375 4.20402344 -3.2346875 3.47054687 -3.484375 2.71484375 C-3.65453125 2.14894531 -3.8246875 1.58304688 -4 1 C-2 0 -2 0 0 0 Z " fill="#07B1EF" transform="translate(151,52)"/>
<path d="M0 0 C9.59453303 1.74259681 9.59453303 1.74259681 13 5 C11.1875 5.625 11.1875 5.625 9 6 C8.01 5.34 7.02 4.68 6 4 C3.26127045 3.54227937 3.26127045 3.54227937 0.3125 3.375 C-0.68136719 3.30023437 -1.67523438 3.22546875 -2.69921875 3.1484375 C-3.45847656 3.09945313 -4.21773438 3.05046875 -5 3 C-5 2.67 -5 2.34 -5 2 C-3.35 1.67 -1.7 1.34 0 1 C0 0.67 0 0.34 0 0 Z " fill="#6BC5E8" transform="translate(110,16)"/>
<path d="M0 0 C-3.38023125 2.9746035 -6.72154854 3.78911751 -11 5 C-11.33 5.66 -11.66 6.32 -12 7 C-12.33 5.68 -12.66 4.36 -13 3 C-8.37802694 0.78145293 -5.23175837 -0.38281159 0 0 Z " fill="#3D7BA4" transform="translate(82,18)"/>
<path d="M0 0 C2 2 2 2 2.13525391 4.79736328 C2.08288574 5.95993652 2.03051758 7.12250977 1.9765625 8.3203125 C1.925 9.57714844 1.8734375 10.83398438 1.8203125 12.12890625 C1.75543074 13.46094835 1.69032366 14.7929795 1.625 16.125 C1.56676177 17.46480294 1.50945844 18.80464687 1.453125 20.14453125 C1.31129726 23.43020732 1.15985087 26.71515936 1 30 C0.67 30 0.34 30 0 30 C-0.16728213 25.88850113 -0.32787468 21.77680194 -0.48217773 17.66479492 C-0.53566026 16.26498319 -0.59099434 14.86524096 -0.64819336 13.46557617 C-0.72992949 11.4577104 -0.80453025 9.44955813 -0.87890625 7.44140625 C-0.9260376 6.23170166 -0.97316895 5.02199707 -1.02172852 3.77563477 C-1 1 -1 1 0 0 Z " fill="#BB8856" transform="translate(96,60)"/>
<path d="M0 0 C4.9317341 0.44833946 8.3192924 2.86026095 12 6 C12 6.33 12 6.66 12 7 C5.85412262 6.7589852 5.85412262 6.7589852 3.421875 4.59765625 C2.21155069 3.11953029 1.09779097 1.56352047 0 0 Z " fill="#33BFF2" transform="translate(122,21)"/>
<path d="M0 0 C-0.3878678 2.48660455 -0.70962479 3.72345219 -2.55859375 5.484375 C-3.17863281 5.90203125 -3.79867187 6.3196875 -4.4375 6.75 C-5.05496094 7.17796875 -5.67242187 7.6059375 -6.30859375 8.046875 C-8 9 -8 9 -10 9 C-8.5124715 4.98367305 -4.56813239 0 0 0 Z " fill="#37658E" transform="translate(67,23)"/>
<path d="M0 0 C3.61322401 1.806612 4.83748791 2.66418971 7.25 5.625 C8.03117188 6.57246094 8.03117188 6.57246094 8.828125 7.5390625 C9.40820312 8.26222656 9.40820312 8.26222656 10 9 C9.67 9.66 9.34 10.32 9 11 C6.03 10.505 6.03 10.505 3 10 C3.99 9.34 4.98 8.68 6 8 C4.02 5.36 2.04 2.72 0 0 Z " fill="#81D7F7" transform="translate(134,28)"/>
<path d="M0 0 C1.61013585 0.73709784 3.21292391 1.49025857 4.8125 2.25 C5.70582031 2.66765625 6.59914063 3.0853125 7.51953125 3.515625 C10.10928331 5.06539789 11.38180834 6.48400766 13 9 C8.02790438 7.23570801 3.56561939 4.6060834 -1 2 C-0.67 1.34 -0.34 0.68 0 0 Z " fill="#EAEBE7" transform="translate(102,62)"/>
<path d="M0 0 C0.99 0 1.98 0 3 0 C6.42857143 8.42857143 6.42857143 8.42857143 6 13 C3 11 3 11 2.4375 8.75 C2.293125 7.8425 2.14875 6.935 2 6 C1.35610218 3.99255385 0.69437747 1.99054876 0 0 Z " fill="#65CEF5" transform="translate(150,51)"/>
<path d="M0 0 C0.33 0 0.66 0 1 0 C1 2.97 1 5.94 1 9 C0.01 9.33 -0.98 9.66 -2 10 C-2.25 3.375 -2.25 3.375 0 0 Z " fill="#194B79" transform="translate(42,51)"/>
<path d="M0 0 C0.33 0.66 0.66 1.32 1 2 C1.99 2 2.98 2 4 2 C3.67 3.65 3.34 5.3 3 7 C0.5625 6.1875 0.5625 6.1875 -2 5 C-2.33 4.01 -2.66 3.02 -3 2 C-2.01 1.34 -1.02 0.68 0 0 Z " fill="#87D9F7" transform="translate(144,52)"/>
<path d="M0 0 C1.75 0.0625 1.75 0.0625 4 1 C5.72518887 3.25123006 6.76906007 5.40134903 8 8 C7.67 8.66 7.34 9.32 7 10 C3.72713318 7.2180632 2.03572303 3.72045933 0 0 Z " fill="#55C9F4" transform="translate(143,39)"/>
<path d="M0 0 C0.66 0.33 1.32 0.66 2 1 C2 1.66 2 2.32 2 3 C-1.96 4.98 -1.96 4.98 -6 7 C-6.33 6.01 -6.66 5.02 -7 4 C-1.7265625 0.77734375 -1.7265625 0.77734375 0 0 Z " fill="#F4E4DF" transform="translate(86,117)"/>
<path d="M0 0 C3.40312738 1.05875074 6.01353231 2.00902154 9 4 C8.67 4.99 8.34 5.98 8 7 C6.66144944 6.21718695 5.32926356 5.42348123 4 4.625 C3.2575 4.18414062 2.515 3.74328125 1.75 3.2890625 C1.1725 2.86367187 0.595 2.43828125 0 2 C0 1.34 0 0.68 0 0 Z " fill="#ECECE8" transform="translate(131,79)"/>
<path d="M0 0 C0.33 0.66 0.66 1.32 1 2 C-1.31 4.64 -3.62 7.28 -6 10 C-6 6.41087588 -5.33563446 5.89142971 -3 3.3125 C-2.443125 2.68988281 -1.88625 2.06726562 -1.3125 1.42578125 C-0.879375 0.95527344 -0.44625 0.48476563 0 0 Z " fill="#587C9E" transform="translate(54,32)"/>
<path d="M0 0 C4.75 0.75 4.75 0.75 7 3 C5.1875 3.625 5.1875 3.625 3 4 C2.01 3.34 1.02 2.68 0 2 C0 1.34 0 0.68 0 0 Z " fill="#67CCF2" transform="translate(116,18)"/>
</svg>
